<mxfile host="app.diagrams.net" agent="Mozilla/5.0 (Windows NT 10.0; Win64; x64) AppleWebKit/537.36 (KHTML, like Gecko) Chrome/129.0.0.0 Safari/537.36" version="24.7.16">
  <diagram name="第 1 页" id="rRfKG4Y1uFe2FbcaGGD3">
    <mxGraphModel dx="989" dy="509" grid="1" gridSize="10" guides="1" tooltips="1" connect="1" arrows="1" fold="1" page="1" pageScale="1" pageWidth="827" pageHeight="1169" background="#FFFFFF" math="0" shadow="0">
      <root>
        <mxCell id="0" />
        <mxCell id="1" parent="0" />
        <mxCell id="aiHj5P8NERkWDrNoBT0p-49" value="" style="edgeStyle=orthogonalEdgeStyle;rounded=0;orthogonalLoop=1;jettySize=auto;html=1;" edge="1" parent="1" source="aiHj5P8NERkWDrNoBT0p-2" target="aiHj5P8NERkWDrNoBT0p-3">
          <mxGeometry relative="1" as="geometry" />
        </mxCell>
        <mxCell id="aiHj5P8NERkWDrNoBT0p-2" value="专家知识处理V1" style="rounded=1;whiteSpace=wrap;html=1;fillColor=#4D9900;strokeColor=#24B300;fontColor=#FBFFF0;fillStyle=solid;" vertex="1" parent="1">
          <mxGeometry x="180" y="20" width="120" height="60" as="geometry" />
        </mxCell>
        <mxCell id="aiHj5P8NERkWDrNoBT0p-50" style="edgeStyle=orthogonalEdgeStyle;rounded=0;orthogonalLoop=1;jettySize=auto;html=1;" edge="1" parent="1" source="aiHj5P8NERkWDrNoBT0p-3" target="aiHj5P8NERkWDrNoBT0p-4">
          <mxGeometry relative="1" as="geometry" />
        </mxCell>
        <mxCell id="aiHj5P8NERkWDrNoBT0p-3" value="&lt;font style=&quot;font-size: 16px;&quot;&gt;&lt;b&gt;数据处理&lt;/b&gt;&lt;/font&gt;" style="rounded=0;whiteSpace=wrap;html=1;" vertex="1" parent="1">
          <mxGeometry x="180" y="120" width="120" height="60" as="geometry" />
        </mxCell>
        <mxCell id="aiHj5P8NERkWDrNoBT0p-4" value="&lt;font style=&quot;font-size: 15px;&quot;&gt;&lt;b&gt;数据使用&lt;/b&gt;&lt;/font&gt;&lt;div style=&quot;&quot;&gt;&lt;font style=&quot;font-size: 12px;&quot;&gt;以给出营销建议为eg&lt;/font&gt;&lt;/div&gt;" style="rounded=0;whiteSpace=wrap;html=1;" vertex="1" parent="1">
          <mxGeometry x="180" y="480" width="120" height="60" as="geometry" />
        </mxCell>
        <mxCell id="aiHj5P8NERkWDrNoBT0p-47" style="edgeStyle=orthogonalEdgeStyle;rounded=0;orthogonalLoop=1;jettySize=auto;html=1;" edge="1" parent="1" source="aiHj5P8NERkWDrNoBT0p-5" target="aiHj5P8NERkWDrNoBT0p-27">
          <mxGeometry relative="1" as="geometry" />
        </mxCell>
        <mxCell id="aiHj5P8NERkWDrNoBT0p-5" value="&lt;span style=&quot;background-color: rgb(255, 255, 255); font-size: 9px;&quot;&gt;&lt;b&gt;&amp;nbsp;&lt;span style=&quot;color: rgb(71, 77, 102); font-family: Inter;&quot;&gt;以2000以内的文&lt;/span&gt;&lt;/b&gt;&lt;/span&gt;&lt;div&gt;&lt;span style=&quot;background-color: rgb(255, 255, 255); font-size: 9px;&quot;&gt;&lt;span style=&quot;color: rgb(71, 77, 102); font-family: Inter;&quot;&gt;&lt;b&gt;字量划分切片&lt;/b&gt;&lt;/span&gt;&lt;/span&gt;&lt;/div&gt;" style="strokeWidth=2;html=1;shape=mxgraph.flowchart.multi-document;whiteSpace=wrap;" vertex="1" parent="1">
          <mxGeometry x="550" y="120" width="100" height="60" as="geometry" />
        </mxCell>
        <mxCell id="aiHj5P8NERkWDrNoBT0p-51" value="" style="edgeStyle=orthogonalEdgeStyle;rounded=0;orthogonalLoop=1;jettySize=auto;html=1;" edge="1" parent="1" source="aiHj5P8NERkWDrNoBT0p-6" target="aiHj5P8NERkWDrNoBT0p-5">
          <mxGeometry relative="1" as="geometry" />
        </mxCell>
        <mxCell id="aiHj5P8NERkWDrNoBT0p-6" value="文章数据" style="strokeWidth=2;html=1;shape=mxgraph.flowchart.database;whiteSpace=wrap;" vertex="1" parent="1">
          <mxGeometry x="370" y="120" width="56" height="60" as="geometry" />
        </mxCell>
        <mxCell id="aiHj5P8NERkWDrNoBT0p-7" style="edgeStyle=orthogonalEdgeStyle;rounded=0;orthogonalLoop=1;jettySize=auto;html=1;exitX=1;exitY=0.5;exitDx=0;exitDy=0;entryX=0;entryY=0.5;entryDx=0;entryDy=0;entryPerimeter=0;" edge="1" parent="1" source="aiHj5P8NERkWDrNoBT0p-3" target="aiHj5P8NERkWDrNoBT0p-6">
          <mxGeometry relative="1" as="geometry" />
        </mxCell>
        <mxCell id="aiHj5P8NERkWDrNoBT0p-26" value="Assets" style="childLayout=tableLayout;recursiveResize=0;strokeColor=#98bf21;fillColor=#A7C942;shadow=1;" vertex="1" parent="1">
          <mxGeometry x="460" y="240" width="280" height="90" as="geometry" />
        </mxCell>
        <mxCell id="aiHj5P8NERkWDrNoBT0p-27" style="shape=tableRow;horizontal=0;startSize=0;swimlaneHead=0;swimlaneBody=0;top=0;left=0;bottom=0;right=0;dropTarget=0;collapsible=0;recursiveResize=0;expand=0;fontStyle=0;strokeColor=inherit;fillColor=#ffffff;" vertex="1" parent="aiHj5P8NERkWDrNoBT0p-26">
          <mxGeometry width="280" height="30" as="geometry" />
        </mxCell>
        <mxCell id="aiHj5P8NERkWDrNoBT0p-28" value="涉及对象" style="connectable=0;recursiveResize=0;strokeColor=inherit;fillColor=#A7C942;align=center;fontStyle=1;fontColor=#FFFFFF;html=1;" vertex="1" parent="aiHj5P8NERkWDrNoBT0p-27">
          <mxGeometry width="90" height="30" as="geometry">
            <mxRectangle width="90" height="30" as="alternateBounds" />
          </mxGeometry>
        </mxCell>
        <mxCell id="aiHj5P8NERkWDrNoBT0p-29" value="论点" style="connectable=0;recursiveResize=0;strokeColor=inherit;fillColor=#A7C942;align=center;fontStyle=1;fontColor=#FFFFFF;html=1;" vertex="1" parent="aiHj5P8NERkWDrNoBT0p-27">
          <mxGeometry x="90" width="97" height="30" as="geometry">
            <mxRectangle width="97" height="30" as="alternateBounds" />
          </mxGeometry>
        </mxCell>
        <mxCell id="aiHj5P8NERkWDrNoBT0p-30" value="论据" style="connectable=0;recursiveResize=0;strokeColor=inherit;fillColor=#A7C942;align=center;fontStyle=1;fontColor=#FFFFFF;html=1;" vertex="1" parent="aiHj5P8NERkWDrNoBT0p-27">
          <mxGeometry x="187" width="93" height="30" as="geometry">
            <mxRectangle width="93" height="30" as="alternateBounds" />
          </mxGeometry>
        </mxCell>
        <mxCell id="aiHj5P8NERkWDrNoBT0p-31" value="" style="shape=tableRow;horizontal=0;startSize=0;swimlaneHead=0;swimlaneBody=0;top=0;left=0;bottom=0;right=0;dropTarget=0;collapsible=0;recursiveResize=0;expand=0;fontStyle=0;strokeColor=inherit;fillColor=#ffffff;" vertex="1" parent="aiHj5P8NERkWDrNoBT0p-26">
          <mxGeometry y="30" width="280" height="60" as="geometry" />
        </mxCell>
        <mxCell id="aiHj5P8NERkWDrNoBT0p-32" value="品牌年轻化" style="connectable=0;recursiveResize=0;strokeColor=inherit;fillColor=inherit;align=center;whiteSpace=wrap;html=1;" vertex="1" parent="aiHj5P8NERkWDrNoBT0p-31">
          <mxGeometry width="90" height="60" as="geometry">
            <mxRectangle width="90" height="60" as="alternateBounds" />
          </mxGeometry>
        </mxCell>
        <mxCell id="aiHj5P8NERkWDrNoBT0p-33" value="就算在老龄化社会中，也应该品牌年轻化" style="connectable=0;recursiveResize=0;strokeColor=inherit;fillColor=inherit;align=center;whiteSpace=wrap;html=1;" vertex="1" parent="aiHj5P8NERkWDrNoBT0p-31">
          <mxGeometry x="90" width="97" height="60" as="geometry">
            <mxRectangle width="97" height="60" as="alternateBounds" />
          </mxGeometry>
        </mxCell>
        <mxCell id="aiHj5P8NERkWDrNoBT0p-34" value="年轻人的终身价值，白酒行业的消费群体....." style="connectable=0;recursiveResize=0;strokeColor=inherit;fillColor=inherit;align=center;whiteSpace=wrap;html=1;" vertex="1" parent="aiHj5P8NERkWDrNoBT0p-31">
          <mxGeometry x="187" width="93" height="60" as="geometry">
            <mxRectangle width="93" height="60" as="alternateBounds" />
          </mxGeometry>
        </mxCell>
        <mxCell id="aiHj5P8NERkWDrNoBT0p-48" value="每一段文本&lt;div&gt;总结如下维度的信息&lt;/div&gt;" style="text;html=1;align=center;verticalAlign=middle;whiteSpace=wrap;rounded=0;" vertex="1" parent="1">
          <mxGeometry x="660" y="180" width="190" height="30" as="geometry" />
        </mxCell>
        <mxCell id="aiHj5P8NERkWDrNoBT0p-76" style="edgeStyle=orthogonalEdgeStyle;rounded=0;orthogonalLoop=1;jettySize=auto;html=1;exitX=1;exitY=0.5;exitDx=0;exitDy=0;" edge="1" parent="1" source="aiHj5P8NERkWDrNoBT0p-52" target="aiHj5P8NERkWDrNoBT0p-55">
          <mxGeometry relative="1" as="geometry" />
        </mxCell>
        <mxCell id="aiHj5P8NERkWDrNoBT0p-52" value="用户输入：&lt;div&gt;我目前的营销方案是....我想要....&lt;/div&gt;" style="shape=parallelogram;perimeter=parallelogramPerimeter;whiteSpace=wrap;html=1;fixedSize=1;" vertex="1" parent="1">
          <mxGeometry x="400" y="480" width="120" height="60" as="geometry" />
        </mxCell>
        <mxCell id="aiHj5P8NERkWDrNoBT0p-53" style="edgeStyle=orthogonalEdgeStyle;rounded=0;orthogonalLoop=1;jettySize=auto;html=1;entryX=0;entryY=0.5;entryDx=0;entryDy=0;entryPerimeter=0;" edge="1" parent="1" source="aiHj5P8NERkWDrNoBT0p-4" target="aiHj5P8NERkWDrNoBT0p-52">
          <mxGeometry relative="1" as="geometry" />
        </mxCell>
        <mxCell id="aiHj5P8NERkWDrNoBT0p-67" style="edgeStyle=orthogonalEdgeStyle;rounded=0;orthogonalLoop=1;jettySize=auto;html=1;" edge="1" parent="1" source="aiHj5P8NERkWDrNoBT0p-55" target="aiHj5P8NERkWDrNoBT0p-66">
          <mxGeometry relative="1" as="geometry" />
        </mxCell>
        <mxCell id="aiHj5P8NERkWDrNoBT0p-55" value="AI：这个问题设计到哪些对象，可能使用什么理论解释" style="shape=process;whiteSpace=wrap;html=1;backgroundOutline=1;" vertex="1" parent="1">
          <mxGeometry x="607" y="480" width="120" height="60" as="geometry" />
        </mxCell>
        <mxCell id="aiHj5P8NERkWDrNoBT0p-57" value="" style="html=1;verticalLabelPosition=bottom;align=center;labelBackgroundColor=#ffffff;verticalAlign=top;strokeWidth=2;strokeColor=#0080F0;shadow=0;dashed=0;shape=mxgraph.ios7.icons.user;" vertex="1" parent="1">
          <mxGeometry x="360" y="460" width="30" height="30" as="geometry" />
        </mxCell>
        <mxCell id="aiHj5P8NERkWDrNoBT0p-68" style="edgeStyle=orthogonalEdgeStyle;rounded=0;orthogonalLoop=1;jettySize=auto;html=1;entryX=0.5;entryY=0;entryDx=0;entryDy=0;" edge="1" parent="1" source="aiHj5P8NERkWDrNoBT0p-62" target="aiHj5P8NERkWDrNoBT0p-66">
          <mxGeometry relative="1" as="geometry" />
        </mxCell>
        <mxCell id="aiHj5P8NERkWDrNoBT0p-62" value="存储在Fastgpt内" style="shape=cylinder3;whiteSpace=wrap;html=1;boundedLbl=1;backgroundOutline=1;size=15;" vertex="1" parent="1">
          <mxGeometry x="860" y="260" width="60" height="80" as="geometry" />
        </mxCell>
        <mxCell id="aiHj5P8NERkWDrNoBT0p-63" style="edgeStyle=orthogonalEdgeStyle;rounded=0;orthogonalLoop=1;jettySize=auto;html=1;" edge="1" parent="1" source="aiHj5P8NERkWDrNoBT0p-31" target="aiHj5P8NERkWDrNoBT0p-62">
          <mxGeometry relative="1" as="geometry" />
        </mxCell>
        <mxCell id="aiHj5P8NERkWDrNoBT0p-78" style="edgeStyle=orthogonalEdgeStyle;rounded=0;orthogonalLoop=1;jettySize=auto;html=1;entryX=0.5;entryY=0;entryDx=0;entryDy=0;" edge="1" parent="1" source="aiHj5P8NERkWDrNoBT0p-66" target="aiHj5P8NERkWDrNoBT0p-73">
          <mxGeometry relative="1" as="geometry" />
        </mxCell>
        <mxCell id="aiHj5P8NERkWDrNoBT0p-66" value="&lt;table border=&quot;1&quot; width=&quot;100%&quot; height=&quot;100%&quot; cellpadding=&quot;4&quot; style=&quot;width:100%;height:100%;border-collapse:collapse;&quot;&gt;&lt;tbody&gt;&lt;tr&gt;&lt;th align=&quot;center&quot;&gt;索引到的数据&lt;/th&gt;&lt;/tr&gt;&lt;tr&gt;&lt;td align=&quot;center&quot;&gt;论点-论据1&lt;/td&gt;&lt;/tr&gt;&lt;tr&gt;&lt;td align=&quot;center&quot;&gt;论点-论据2&lt;/td&gt;&lt;/tr&gt;&lt;/tbody&gt;&lt;/table&gt;" style="text;html=1;whiteSpace=wrap;strokeColor=none;fillColor=none;overflow=fill;" vertex="1" parent="1">
          <mxGeometry x="800" y="420" width="180" height="180" as="geometry" />
        </mxCell>
        <mxCell id="aiHj5P8NERkWDrNoBT0p-71" value="涉及对象和论点作为索引" style="text;html=1;align=center;verticalAlign=middle;whiteSpace=wrap;rounded=0;" vertex="1" parent="1">
          <mxGeometry x="930" y="350" width="60" height="30" as="geometry" />
        </mxCell>
        <mxCell id="aiHj5P8NERkWDrNoBT0p-72" value="" style="shape=image;verticalLabelPosition=bottom;labelBackgroundColor=default;verticalAlign=top;aspect=fixed;imageAspect=0;image=data:image/png,iVBORw0KGgoAAAANSUhEUgAAAjoAAAGECAYAAAA/YIpYAAAAAXNSR0IArs4c6QAAAARnQU1BAACxjwv8YQUAAAAJcEhZcwAADsMAAA7DAcdvqGQAAKLkSURBVHhe7b0JuKXTlf//+j2/HzUohU4pY5srSoyhhRKakCCDTiVBkBZUGyJIiCBCPEJES4VuRFJ0mRK0yiAtUyUhPCRoHSFISogpURSVmGvg93v++d/PvmedWnffvd/hnHNLOb6f5zn3nvOed9h77bXXWnvtfd53uUWLX/tbIYQQQgjRJ8x79oVivXUmhPf/K/wVQgghhOhDFOgIIYQQom9RoCOEEEKIvkWBjhBCCCH6FgU6QgghhOhbFOgIIYQQom/pKNB57Ikni4OOOLGYesBRxVnnXlwsfvXV1jeD/HD2zeG7GZdd29oihBBCCLH06SjQ+d2ch4uXX34lvH/okceLp+fND++FEEIIIZYlGgc6L7z4UvHTG28t1l5zYrHNVpuFgIfARwghhBBiWaNxoMO01ZNPPVNMXG1CsdsuU8K2e++bM2z6SgghhBDi9aZxoHPXr38b/m+1xeRi8ls3CJkdTV8JIYQQYlmkUaDDtNUDv3+oGDduxeJtkzcuVh6/UrHZppM0fSWEEEKIZZJGgY5NWxHYHP+5s8Mvq2bfeFv4TtNXQgghhFjWaBTo2LRVCk1fCSGEEGJZo3agY9NW8IWTjy6uv+bi8Lr28vP16yshhBBCLJPUDnR+ecfdYdqKxcfrr7t2a2tRjFphhbAwGfjZOQGREEIIIcSywHKLFr/2t9Z7IYQQQog3PPOefaFYb50J4X2jNTpCCCGEEG8kFOgIIYQQom9RoCOEEEKIvkWBjhBCCCH6FgU6QgghhOhbFOgIIYQQom9RoCOEEEKIvkWBjhBCCCH6FgU6QgghhOhbenJnZJ5aPv3fZxZ33/tAa0sRnn91wqemhUdEXHXt94udpmwbHh3BIyJOO/P88DiJHNMO2qd4/567tj4VxYzLri3WWnP1Idt+OPvm8MiJM087rlh5/EqtrYPwlPXTz74gPH/LiM8phBBCiP7E3xl5RAKdOKgg8PjqBTOLzxw7bchzsoDvrv/Bz4qjDjswBEUxBEYXzfhWcfQRH2sHNPfc9/visqu+XfzDNlsWixYtKo44dP+w3VNVJiGEEEL0JyP6CAgyObvvOqX1aRCCm2kf36f42U23hcDlrHMvzj78k+wNgYzBw0QnvGWVIUHO+V+7ojj+mGnFvh/aq5j/l+dDdieGoOnA/fYuxo1bsbVFCCGEEG82eh7ovG/PXZKZma232DRkXghY2IcsDVkXDwELgcvkt24YPhMMMT3FtBUQBJHJueDcU0PwxHWYHrv3vjkheIrPxz47vmPr1ichhBBCvNnoaaCz9poTh01NEbxMPeCo8LJMDUEPWZo5f3gkfIYXX3y5mPvUvPa6HiCbw1qexYsXh0AGLpx++pA1Oex76olHFVttMbn47OfPGZYp2m7bLVvvhBBCCPFmo6eBzsTVJhSjRg3N5rAu5vprLi723H2n1pZByO4Q8Bjjx48L2yzIYe3OrwYCHabCRo0aFYIZvidwIrNj8JkX14mDIOCzpq+EEEKINydL9eflixe/FjIzluHhdfznzi5uu/3Xxf6HHNfedtARJxYPPvxose+H3xsyP0IIIYQQnbBUA51Ro5YPmRkyPPY678unhJ+eX3v5+e1tV804t9hr952HZHw8tmZHCCGEEKKMngY6Dz3yePH0vPmtTyMD63jWWnNi61M1rNnx99MRQgghxJuHngY6BBS/m/Nw61MaFiT7n483gXU7jz8xd9iC5xz8CutHs29pfRJCCCHEm42eT13xU+/4Z97GF8+5KAQe9vPxJnDOq6+7odhxh22GLTjOQXaJLJMQQggh3pz0PNDhTsQ33nx769MgTB898PuHii+cfHRYo5O6z04Vds74ZoQ5LDDStJUQQgjx5mXEnnXFz8lTj2ZYGhBYxc/T0iMghBBCiDcHPX/WlRBCCCHEssKIPutKCCGEEGJZQYGOEEIIIfoWBTpCCCGE6FsU6AghhBCib1GgI4QQQoi+RYGOEEIIIfoWBTpCCCGE6FsU6AghhBCib1GgI4QQQoi+RYGOEEIIIfoWBTpCCCGE6FsU6AghhBCib1GgI4QQQoi+RYGOEEIIIfoWBTpCCCGE6FsU6AghhBCib1GgI4QQQoi+RYGOEEIIIfoWBTpCCCGE6FsU6AghhBCib1GgI4QQQoi+RYGOEEIIIfoWBTpCCCGE6FsU6AghhBCib1GgI4QQQoi+RYGOEEIIIfoWBTpCCCGE6FsU6AghhBCib1lu0eLX/tZ6X8lV136/2GnKtsX6667d2rKEGZddW6y15urF+/fctbWlnBdefKn41/MuKQ4/9KPJ8xmLX321mP7vM4v37blLsfUWmw77XJcfzr65+OmNtxZnnnZcsfL4lVpbh8P5L7706mLqB95TWi7ON/epecURh+7f2rKEJrK4577fF5dd9e1h5cptL6OpbGiD0848vzj0oH1q7W/nn7L924vrb/hp8eRTz7S+WcKeu+/UlgkymjlQB2ObrTYrdttlSnHuv13S2rKEtdecWFrXx554srjksv8sTjr+8Ep5ILsfzb6lOOFT04pRK6zQbo937rDNMJ3jvKeffUHx8suvhM8G9YDZN94W/nu+cPLRbXl5PYjr66HuVh6Dcm237Zbtc9Vpv9Q+dftSU6gPoMc5ORnjxq1YnHHKscUaq0/ouv94vIxS9aSt7/r1b7PnSelN3WvHWFng/K9dEeqbq2NVuVLE/ZFy3nvfnGF6U0XK/lTpFnK6/gc/K4467MDiyqu/19Z79HbMmFHFbbf/Onw2fB+I4frz//J8Zbm70VtfXrtGapsn1+519CG2KXWgPF+9YGbxmWOnZevHtWdd/5OsLtWVkbXv3fc+0NqSxttnoxO5lJWrSp6+TyOjnF2p8glVzHv2hWK9dSaE9/87/K0JQU6u4fb78PtCJ11roHC5DuCh8DsOOJ6rr7uhVHnodDRe3IDxZzO0lAtBphwUHPKJk1vvljBtwLCYUXh63vxi/vznQgMc/7mzwzYj5axiUIDHn5hbvGe3QUdZBspJ5yFg8OXiOs88O3/Ydmv46777oyH1s7pz7VhWXi6dYor78QM/FD6vsvJKxfHHTBviQLg27W+OwDDZmqGAuLMha85lIJdOnaXJFINu7YTRZz/Kue+H3xs6lsmE175T92qfx8pJXdE9b9DNmOSgnt65mEzg6CM+Vmkg5/zhkWHtZ9e3c1lwyT7oySaT1i+unvWDsM30tVsDYRAY+j591Yxzg3zAZEJf+9V/3zNEx2i3ukGpBz3Aoe793ncFHacN0KcvnnNRWw4YVn9uggnaN4Zz4fTeu8curS1LoK1jPW3CGhNXC/XtpI5lUOfNNp3Uli3yZ3CGXtg2w+p34L57F5deMSvoF+XI2R/sGgHL5Ldu2NpSDvLmfBY4HH/0oZXO3vrHhLesUmy1xeTwvspejh07JtiTOqTsehyAgd+G/Xnb5I1DPf5+7TVaWwdtRzwosXPH/SdlU8qIz239kv4aD/QoH/0qB2XAZlX5SaB9z/vyKVmbafbSMB3qVC4e9M4Cn6Zstfkmw4JTznfRjG+1PnVPo0AHAU77+D7Fz266LRiX1OgVo2T4wCAlQGP/Q45rvRvEBPrLO+4OI4NrLz+/LQTrTGWjXigbcXjoPJ7fzXk4BGDv2nn7Yso7tq68FsqSikjjIMnjAxaMAmW10Z/Vb4/ddw4OJmdYTvz04cVNt9weOs4dd/0mKAYZoFjmjAgZZfeaECAMdMBjTzwrKOq99z9YO6Ci48QGC5kYlB1niVwJQnzwYNBuD/z+oSBHD04BcgaddjzukwfXMhydYm340COPD5NJHLCYHGhP2tEMlRkOMyr8v3D66Un9333XHYNRwNlBrwwE1ySgxRgiT2Q1evSo4mszvtkuP7obj9woP32I/gu5fg/U3/oDfW/VVcaHPoV94XrUEWfg7QowAEBH0AHO4a9BmWDsmNHFCssvH94bnJvALNY/OHC/vYNelBEfh/6n9H5uSz51oa/G+oz8ye6kMrvox6SN1i+emvdssCF8RyBicvLOFT3HZhMA+CAAuZ960ieLSy+f1Q6uH3v8z8XE1Sa0z8Pxj/9p7oB9uq/Y/G2TwrYUdm1vd7Ffhx97WtYuPP/CS6GPpAafMegAema6Zk66TkaHsvl604aU8/prLg6fLQCI9di48ebbhw1AcnDe3XedUjz0x8faAzXfZ8HbaE8qkPPEfhLsXJ2ADnUjl1cWLCjOu3Bm0E1kT9CKr6Efp/D1s/8H7vuB8H+kaTR1laJu4FEltLrUvZ5h+zPCSDlMjzkhSx3TeH7Uxrks00BjxvVpUjY6n09tIx9g9OGvGe8HKMwWm00eEugAhg/M6Oc6lBHXN4e1HSNs6sc1uXau49t1MRDeAbGdY+97YM6Q+sRyNszZ2yjB9jEHGrenyR/D78+PDGde+e3ipVcWDAlIy8rJdjI6lmIF377gna9lztALzuUNfg7a0c6PjP00Ra6/WJsRaOCocEqM5AADv3jxq+2gx8uyW/x1UzTNHMb1830Lp4xcKL93XLSjD/yRXzxFY3B+36ZAu5IBGzVqVPsY6lVXXpwT6l4vhemW75PUq2wqjHPHU1i2jAB9s4xbbCvM8e+w3dtDf/XHx/X2sjW9N/lzPH2WbbEt4hoMSHYcGBSyPW4j6zOQqnd8vk7w/SiFfU/wmepTsS56KGOdJQTxft52WWIAvYnlk4Myp6b/cjpvcq4Kxnw2vVO5WB0WLFgYBru04YKFi4YETTFmD70N5bPpzzIzdWUdOTZodAqCCFOyJoajDIQZj+I8qQalbEccsl8x4/LrhgmO/XOGyIwPDtQbcozIgw8/2h5xMOouA4cJPpuQUxbkR8eYesBRrS1DiUc5RMBWzhQ2euB6TUnJuUzJSL0i67I0qcFIjPqbIaJdqzBdM3x2zMsl1kcbedGZ43NAWfBhBsA6cRWch5GPb1+OtWumZMo1kIP/zo/gKJ85BxsRGhZovPjygmKlFccOqQsGi/PsuvP2QQ4YoHnP/iX0w7oDghjf/7gW511x7Nh2m/t6W5AC8XFcu2xtn0G9mR4B6yucd+HCxcEwxnqPPJiiuf93Dw1pZ+sjlI3ro78WIJNBwKhO2nC9MOrmmmwjUBw1Ku906oDj8c7H+mG8jYDFY3pqMk5h5/DZkYP2/2DYViZTeObZvxZfn3lNyGKWOVacFX0HWVvgbMx96ungXH2WyhwWXHLBme1zm67hF2hHtp964lHBoVF+n6HlfJy3CTnH6PsRmB4Q+BMwICcrf51zWF+1ANTbQa/7gC5iyxkwwjEnnNH2I952sRZn7712DXKOszM+AAHecx1smskrpVOeJlNXlLlTucDfr7NmMefBPwa5ME1KH7v86+eEz7F8PDY9b4NFWKamrhCuLeY0qJCPLlF+Ckfgk3KQTTBH0gk7br9N+E/5Uov5zJn57TTyrwYCHToIIGjmxzFABC4Y8lVWydeJ42f//NawfslfKwfyYSoihvOkshsxNs+L0uDsgYiawMLkxrkwLuPHjS2NjM0h5fAdjetxDRwF8/6+U8fnseNwxB46TmyYCKwMjrNjy6CNTB9N/jhU8OcwmVY5hW4xnbVRFzKy0YsZE6/XlMsyFhjkOGNCe/pAzk9dgX+PkaHvkTEjhfzU08+GgKfTfujrYpCqjqdkrR0pJ4FZ6jjaJDWlUAX70kfpe+gaeCfh9Q1Zsn6Q6SdkmVqngr7sPiAfDDTnQ6YMZpji4lomT64Rg12wbGQOb+D5n3PiZ5x9YTtLic7Gzsn0x/cB3pO5wRH5gWYVE1f7u+KMzx8bHCY6aOckwEM/wJwe7cR6DdZ82ejc7KEPJmlzbAABDFDveFABphvmxOO1KMiIfVLHeriWl8Vaq69WnHTuqW3dRl42kALrV8A+Vk6gntiClAx9+6EL6F0dWXMNb8vtvemTH2zgeywIw+nHfigly/izt53WBzjeBgo5vAy7lQvyph8BfYip6ipbw7E2iLTBkNnrkabRGh2PBQIYZt8QKCUB0edOnx46c90OmSPXiWJiJ4tQN9pw3TAVhLP3USodzzcyUB9Lw4Fld/hMA7JAeZVMQ3It5vZXnzihGDN61BDnb6SU0zpCyrDGGR3rHNYh4jU6OJlY0ZF92UK3JvhsBf/tPQHK+ed8vpgx89phim4jeUCx2Xfq3nsE+WPIrfNYININtB/rxzDmnNdjix0x7rnOSPtYG5lxB599MfxoxEBPcUTI3JwsDteCDQt0wALtj0zds7UlHfhSJz+wwKBTRuS4ysrji89+/pywlssMmOn0qFHLh3Ij5277n6dORicF+zOtaqP8JngDzjWpE1OoXM/aEjnR/876wpJpg/XWXSusFyCgefmVBcWpXzw/rDHh+pwH48z3DISsPbmWyZBzxJlp9PSOuxaF+lo/NNifgRI2j+9xHDiDGKZVeXF92u2irw5tc3SDtTr8uCMGm1HVn70eg+ky10J/eFkbTJiwashk4XCZ0vvTk08X79/rXcVfn3thSOAAH/ngXkFu4B0m8DneBsiE4D0lB6AcVfowGPQtGQR1iu87daZDvN6ZnU4tf+C8sazsWobZd9oCe037x/rjiQO7KtDLOBNj9eS72IZ5GXQqF9rWqFtWm/HAJ5B9RmZW9tT6I8rUKzoOdBCIGWYrLGlJ+6UGBtgbWYxiboRThY0IUpgSeuiQcXAUN65NGdm5TVEJbHCIGEBGySwYZhTLfuPHjwv7xGDAUWYUmX28w/IOIUWcbkSWcUaHbTZCKSPuYFBXgatAPsiDtmVdiAVdZswI7JBTrpNacIchB8sOUjccDlkIZI2c/DmrsGyWtZ8PKAzqjuPDueQcv+mBBSGGD6BTugbInHqzH+3NtbgO58ot0MPYsVCWRdx0cq4PcftZ/YDyeT2iXXHGyNK3L+WwrFEvqZPRyUF2i35C2zbRRZN5KrikT/h1ATY4oM2Qk+8Pvh1N9xYvXhw+1/0lEgEzU2kEsLGjQnet3c0J5HQNx8hUR9xu1BXdYwqE7SlbUIW3lbHdMJmgl/58jzz6p2LDDdYNgY7HTzlSJwa2/CqsDAuGaG90Ez9gcm8K8iBgtPd+UJia2o9BN979rinFc8+9FIIU+qgNglKDUYNzeTkSCPIr2HfuMLjY30NAii4hT2tvjuPldddkYPav1/jpH9oK2Rt+kGw69eprrxVnnXtxV3Ixcvba2gQfdOpJnwzXYOBAX/Esc7+6irGGtF+XAL9CiH8pQ6EZpeQi+17DtWNnSwOjkBgNU8QcGDQb2aHIZT8XN8XFkHoH2QnIiVXsKIyNJvlP50bBYuOawht0U+puiRWZ/xaB+0DK9MEWR5bB/qQ7cZx+esa+i7MbKSiXz3iUETsXO9amEFLEOoL8fSYQp4Fe29w08rbpS85v8/Yc5wN9gjEMOMYm7uT+mnH9UgE8xEYfmo4K69BpRgeoXyzPOgMfMjJkxbgmgxB/jGUxkZP1F2tbDDayt/UDpltguocs6S91+hXYOh7aGf02fd/27ZuFtUK0O5ANJpDlOikIrBgs2HkMRrwcZ9soM1lm6uazud1gbcC1AR1cddWVk2UlyCFYoBzUacyYMa1vBrH64yzB9IF+QVBrfQUbSdvxHW1TZxCDTTjlhCNbn4b3PYNz33zrnWHKjWxUmYwsCKOu2Czr/6YbXqcNyjvruz8Ovz5MyYhtnMMHpMiWgf8nph0Q9qHuVn/6fpneezsxkjDIMnl2IhcPx9UZ3OeOXxp0fGdkGpMpIZScdCory3Fa8UImsE7ljc1IwbUOOuLEkLHxL8pmC4vj7zCKKHQMHRkjg1Gk7HQiDKuvB0ap0wb050M5MAAY50023iCMAki3s+aA0Xl8DdboEADxn6zASGKKjJOjbDh2fvLPSIHykgFjqpKRLp0nFeSQPkXO7AvIm6wZ5+AXGyOtG+Zc7BdbVg5/Dw90h8WHyBVDDRhtXpSXOpouW4CLXLxxY/qMujBq8fdEAUvBYwS4xo9/uiQwTuktujp33rOtPQYDeHTBXgQzBMB+Gy+2xel+dJkRnBm1OnCMjahT8EsLzknQy8+STZa543wdWZjJtHIVyJ1MCTDg4Bj0jKnkHKavKT0EysH1gcEJ5a0D/RV7Z8fY1ORbB/oEU1C0O3rBuVMDI3Ni5rR9+SgTU1/xlBX7EPxY2r9XIFeyUzg8bqURQ39l0AXoP331HwYCOqCs5110WfHEn+cW856ZP6wdsVWjR48O+6FvFqCiKwSLtE2ss/ELn7L6am8pXWfGuWkLBgrbbL15Met7g21aB85JYEKAQjlT0Mbe/ufgOwtI+REAcmPx99ZbDgaADLJ4ITN+ZJDTe+s3vZiq65Q6cnkj0jijY+lrjCnKSCfAcJnBpbGI8m0RMMaAkS0pzJzCVkEKLJWa9FhqG6Xz89gYHjotv9e/+57fFZM32aj4n7t/WzmdY/XAyORGxr2IvOmsjCxxWhgAUy7qMf3sk0MZSJvG5bXMDeX0o+nUfGy3mCzI3PlRloGD22brtwXHbBke6kHanBdltUCN9qAt/U3m0CGMIPoCXMtS1FX4qZ0ycC4EjQQjZkhwoAQ8OCYCdIwMozDWPrEOhHKBlZ1Rjt0wE9mbo0I+rBEJxm1gG8dxLqsP3xMU0H7IBYfNuqavXvAfIfiCWG/LwEkRFNsUosdfy2NOuU5wAXaN9ddbJwR/1O3LZ5zQ+tbm5Yf3CzvuH7YZzKARCJucmtTRMCdJgOqnhprcaM5D26B/1n/4TKDmM6EG/c5ny9iHKRlsGzpqC7+ZmgTOFd880aBdBp3YcJtBfXAs6JfpCHoaDxrrZEpjW8lAIgWZBWwb/cLz4osvhyylZQTpr7QjfdoGCUH+Y0YXD//xibDuydqEQM6wX4XZrQIoN9/7XxFVkRqMgLeZlpWwMuCL6mYzkbXX6RjLsNU5F/VDV58eGJhgx4E2NwbrP7h+MNYNo+oeYGXYFLjh7T62NPddiiq59Jq47EYvfJfR6D46zwxEq/82YPQwOCgvTpUAJ5XRQBlpVPYj6u409WrnSV0DUCaMjs2DWmBjWPkwHpZeBJ8+NedMA2OsKDNKC/66di1zwt44cl3qyZobv24gBddj5PbVCy8b1il9Oc1Z0YEpL5QFaFZ2K5M/F0YjZTzLoJzMrXJDMUaylNPKguy83AzKgDHPGYfc97RznUd0eChL0zSrdyIp5+bbEWMenyfVPh6ub0E+hst00ebJ2YbBs/qzf2o6yoOcDzvko8X0gSCLcsdyj8/h5+QNyk3QWfeXT8jByunbvAzTa9YjIbe4v+RI6RFY+zJaZvrg4x/7UPGd62eH89Gv7b5OfE7VGay9Pj0QqHEHYUjJBp3YbZcdBoLcO5Iy9vh60X/t13U4Ra8vddolJdtc+2FXLIBIQZvZFAn4NifQ9deJp4tT+mF9wcrCZ9PnA/b5QHHrr+5qB7I5Hcm1S0zueOujscxz9gW83P2+bI9tQ5lN95iOmP3M7Wdg5wg4TY/IZDEgZbrVZO7lC/H3dYnbDlnaVC7f+Tbkc2y/OpGL9U3fJ8vwcYL3Uym9A1+HVB+sg7+PTtc3DBRCLPtgzKDMQQghRL+gQEcIIYQQfYsPdDpejCyEEEIIsayjQEcIIYQQfYsCHSGEEEL0LQp0hBBCCNG3KNARQgghRN+iQEcIIYQQfYsCHSGEEEL0LY3vo8PdHO2W4P6OhXanRH+X2jLsTpPxA0BHEu72aHef5O6tde/EW3aXxvgOktwJNHd3ZH83Us6Zu9ts6s63dufKsuNSxHdAtTt2lhEfA/FdPH2dY6ruGmr4slTdQdXuylp17tSdP8GXP76Gv1OnJ3euMrgOj0xIPQagW/wdX6tItWEZTftvGf7mhNbPc3fktnLyGIU6d4ZN3cU1R07XvQ7V6Q+QugO874t1HjtQZkdMZjzmwd/dOEdOZ2M67Q85mXjZYft4Jhx3w67qH5yz7I7pnrKy9YpYfsjf7mjONU1v7bEucd/DXtGOtGfKDppe8/iKbux1DOVqcodzg/ryaI8qf9eJvhhxG5tv9E9vX5p0fMNA31G5pXWZs4PcbdRNiQ4+8EPFz2/6ZU+Max1iwXul8bfrN7yylgU6ZqDBzsdzUrxBzilQTGq/JsbdQDGpTxxAVBkcXx/fJp0YHytDjroBEfXneVToyxUDhtWMT4qcrGLDZlBf2p7gJBV0xwbQExu/KurWN0ddPfBBS8rQpoLKXgY6FgD451yhC2CfaY/4uVB1+khKBpzLO2YLSuoY3pxeePw1rW4mT9+mOX2wIMjbTx76WhVglQX/de1JTmfK6p37zm9PyTJHU93qxNY0xepCeaoCkTjINb9x6D9/pLjsm98ZZis76Us5ex1j184FOtYuVY9k8FQ9JgOq+onVuc4jIVKDhpHABzq1H+qJAGlUHowIZ5x9YWhIe6ha3ca1DnrBuaeGDvr2LTftmYE1KEuZ8saNwJOXCch4KGlKkThft/BwO56CW2aUegVKiRGtM8qsIg5WePhaXUWlU1AGoBzWCe25WVBmsG1/Hq7o9YW25SGxvm5xBzcngiPiOJxq7FhMPpQTh0s5xowZXVz4jataeyzBP3TO6s+xvEzf4jJRN3sIaK90uxNWHDs2PHmeMpgTGUmQ9/HHTAv9iAcU0o9Gjx5VfG3GN4cECLEOUT76iD08siyIpC1tIAXWltTPnlNXl7Jg3KDNgbrx0EbTt5i4z+E4UlB3X3/bzx9bBrLimYPoWMr5dNMfICcTnJ3puw9kwewOIC/29efhYdCessA/9cDRXuDtGWUlsKB/8NDnvz73QnjqvA9ilgY5ex3bXk88Y2ABEjCj4Pu7n4GJ2870rlt9QQ/Rx0023qAdEzTV6ZGkdkbHKzHEjYIAqwIWKp4aHZuQe5Xioiy5DAz1KItMfaDz9Lz5pWl3ZMAD/aoyOjlnzvbU+cumrsqwjlGW/ozbMUXq+FzbVRG3LXU25087paZBwcqZM4bx91wnzkSxzxabTQ5PI491yzohT/OOA1tPTvZlRihHLsNZFysLlLXhMUce1M6UktHx/ZJyE+iUPXy2Kn3eBDOsuUFH02ul2oN2tswN9bOpn5yue51inzJ7AKlrpmyW6ZS3i7YNfOBGG11/w0+zcjFdqZM5j4ntUpP+QNlzMmH7xhutPyQLT3+2h43acUAb8D6XmfHX4H2VTTK67UOGXZ86WP9AVx959IniT08+HR7oS9DDEgfanuk5r8cEFnWmrsr0uspeW1/18ktt8z7Lb8O3TNpwvbAv/siWaphOPfTI4+3rdmo/0RfrC34Amzrf0qajjA6dnJd1ejMqsbH3UbuNfGNjl3okO6AwdbMFvYBylQVnbLtqxrlBaXygYg3LfHoZzIlyDV4PPvxoccgnTh6i1Gw3RfQKyrWawrkIGqpSnxAHqR5TUA/bCHKMVLt7MEYnfOqwARld2m7z2Bh4PUEu4EeBOCMbXVlWAHwHQk/ojEw7ff6zR4bvY77/w58X41YcG86RYszoUcX8+c8Vn/38OY0MKJ2eDKD1hzKdpYx11yfUgWuVXQ9dwBmVgVE8/uhDW5+q+0JdvG7QhpzLZ5S8vLyuxcch36uu/X6x05Rta5WHIMICCcu+gNd167cxZbps2Dkpvw9YTK/pd5tMWn/AiYwKn2Mowzt32KY9AIPb7/xNW+e846At2A/Qexshe7ATZdlC6pqiqj8YOZnQP798xgnhPeXEVqEzZdzz2znFuf92SevTYPt6Yn3O9alObWMVryxYMCzbBBZ80fbPv/BSsf566xRf+dLJYQCMXSJgaDqjYbB/XXvtmTtgT6uyXciPoMay4NgffNHUvfcIfhido9y+zKyRS1FHXwii6AcEOlzLB61Va1WXFrUDHUDRfnXH3cHhgxn7MjBguVF7CvY/5oQzGjmdFEx3mAMFEy6gLJSdFPnYsWOyjeyZMGHVoNhNwMlzDYyXTYvRURllA6MelMMrLY1vhqQpIQW73961O01d6NhE/2SeDj/2tCBHa3dzHnHETyfyDq4KM25ep9CFhQsXh/fG4sWvhsDEMCOZM+wf/cj7wvUpo8/wcS2Cj4mrvaU4/ZRjwve0j69DXejYVSNSHG4viR2uYcGFJzbkGNfH/zS3uPJb36tc49EUaz8MnpFyJCYv+iVBa+o4gpyybJvHAhp0psnUVexkU5huAtfgha74xarAfk2IbRRYmzJYGAmq+gP4PpUbldO/bQqkTv+2Aaxv3zKsLB6uib1uaofLoP5MRVaBXpHlQQ+pL4OEVB9MDfRzNLXXtAcDTmwxg8Cc3E1HkRe+dOJqE0KAZmU/9sSz2nprvqZT+2kxAToCpju0s2XslgVqBzoIDSf97t3eGQQFCIsgJpd+tZEZipQzzB4LRuooXhU0rgVLNAajH6BxaCTqQwMRzVYpGvvGDrcKrsG870N/fGxAiaaEa5AGZR6TMqFY8//yfDD4sVx6lZ7NwfXK2sKcjxHWF71j61De3XaZEj6jxKRQbXS6ePFrxVnnXjwkfdktqdELI6u5854Nsow7Om0UO1TKiRwxKKd+8fwhI2DLyHF+G5mZA4unE71jjkcjVQatrnFvSp1sBfiAE4NNu63392uF9TAsii0rey+ok9FJwf6TNlo//LKnaRmtf6Ucpoe+bQ4bW2Vl8s49pc+MVFcaGOl28ws7b6MsSDIHZRmdbuikP6AfcTYnHpVj1274yc3B/jPSR7+Z2ukV6AflXFqk6mz4AbIf0NDn0S3r+7SZz+g0DbjrQOYETjnhyGCjcr9YNltAlsV8sEHZmKWgzWLd7URfqPe+H35vsNUG28ggmaxi4jItDWoHOjgApl+IqC+54MzgHKiQ76xGzuiWOQRTlF6AM2QNQiryp3GIilloRtBhjVZGKvNSRsg6DBhZlIQFbigoaWsLrMA7Vw9yHon0rKfJ1BXlWbBwUbHDdm8Pc7Vbbzk5vGhfsjgm41Gjlg+fCXypK/rAaAEDHneeGBQ/VR4MHp3F/ywSPSEIoQ1Zh+DbxC/CAx9gsI1OahkCj+mrZaUwBIZ3zDm8AczR64xOL0DmyAijXKcfdEqdjE4O2phAh3b3NqYuqaCedjYI9BioVTl38Fmjv/z1uWL1iROKXXbarj2F1JS6GZ0yRxzL1QZJ9MtO+gP6Tz1jnfcBIAMdywhYgNZJ26SgnR9/Ym7IWKQYqUXKKd/kfRJ19ZnmXgcxZeBPsE/oi9lBpqUI0GknLyvTlbXWmBj6Vk5vgIXD+Br656knfbJjfQEf6FC+VLKC8+EXq6ZNR4LagY5v6GUdFDTOwDDPyJQRLxSGAI0Gi50c3Hv/g2EdEYpCh051PJQi17lfffW18B/lYB8M4eyf31ps/rZJbSUqo5NpspECWe668/atT4Pwc2xkGNcFBUauBEcmSxwDC37pUPE0SZnic477f/dQCJb4uSKd+tQTPxmyEUy9cH3KYdepA+X161IMpuYWLFhYq21iqJ8FaaZLGOOywKhXVDnxOlg5aeeRotOMDuDUYlmmsjReFjgt2nTeM/OHGG5rH4OyoH/XXn5+23l6h57SB+SEDh528L7FpVfMKjbcYN3wwvlXZY9i6mZ0UraX/tHJGh0Px6X6A6SCdwtKrT1wqvYDhSr8+cqyNQSeuQGod6a9gCAAW0KWOlVfoM4xvhzxcT7wRA+7hawMwfBgkL1kYIzOMB2FPt99z/2trUt0xQbMJ7XW6cTQdn5Rc7f64knpptn6JuuReknjOyPTIacecFR4/ea3g/fGGEloAKZEzBDUIc7AYDiIWoFGYARnIwOiZZzcvGf/EuqEopISRFnIXKEMpPh9x4vXiVjKjxfvH338yXB+FIzj9nz3zsVyyxW10ruUNQ7SXk/oOD6YoO7IhJ9Sxx0IeeJo+d53HGRAkEOwgsLzQtYYPLJaKcXHcTBiZoqFfTbbdFJx5Ke/EAIcpsuYaiB71ImDpmx0OsNPKTYBnUQ3nxnQnc+dPj04V8qKw/P6Shn5Ht0DjIz1Id53CsYPPfWvVOBnGRWuVzbCS9FJ/4vlG0OGkHMymODWDrZmLXcccjvoiBND+bmfEoFzjJfFxw/8UHH1dTeUDiw4JxlW9JV1Z9YelIlsjsnLXlyfY3hxzPjx41pnGuwjTQLbF158OfQFc2Kc3wI13rON71giYDozksRyR75kBAgSkStTVayX8tMc6C39j77o+y/6ldIxnH6ZjgJ2gextmZ2Mg8mm+ml9j/oS4Ab7M2r5IeWz1+VfP6dYa/XVWkcOhXIQlPp9yZAgM96TWevF9BuBGOW0wZQHuVP+bbbevLVl6VDVv+nPp530yeK8C2eGtjnvosvC/q9XkAO1MzooEh3RDApgwPmJZJx+NeLRZS5qNlLRswUiKeOWAsNAJoAMDB3Hrke5WRiMoWSqhE6K0uPcyKDsutM7ir0GnLdB3TBGONhYyZgae/mVwcAJfMrPjsMRA3LjmiutODZsj6f5YgjSOknPxmUqw49+U9jILcWcPzwago137jC4NicGGaSyLZTvxZcXtNsDQ5BzQmbwQgp+QA7WsSgX92dBfpybtjGZkgHLzTHHmE5xHs7NqLRpJsQft8IKy7e2DmL6gi7YvD2BHqP0ww7ZNwSC6CDwnoxW0/ZOGb4cqTU6dWna/0z/+YUKawDIiPrF9YPlHl52O+4fttky9E1bMwOU208nxsRBBlNdFhDn4JxWLn9u2rUso2OwX4pU38L2eFYeCJJI7VNnprU/8sE9W98M2q9U9rMTOukPph/Tzx5cvMoggF+Skf32U1d+Otljeu2ndpjq3mG7rVqfhmNtT4bLFs3GWH9jAOtpqp/olPkvT843pTM6SxZue+Ip2rK+3cRedwprGXO+GQiiPJ3oSwrbjo6jTwS+BJJNbVwvafwICA8Kaj+X9JVGKePpIBx+2VoHzuUXcxl0/Lq/vACL7GNHwHb/yAfrXGR3MER+f/vO3wDOAj2DhkvVBScNjCqRAQbXrmnn8MfG500tRGaflOzqlslD+Ww0kiJn6M0AWlROu9ii3VSZTcENOpWP6L38Dc6z847bFbf+6q4h58vVH/iOQJKfl1M+X27qSkdFB3Oy8o4F45NaiByD8dt/n/cXPx44p5WTa6UMZapNvGyaLMwrk4P1OTIBEMs7RdwGqWOa9j/qRmof/Uq1cQranVE8TpW6xXXJkdM7AiW/3beNHQN1yuah3S2rkbNx4PuW34Y8vL3kl2+PPv7n8DNzBku2Lsi3Q9yP6kAdTx0YUZPVatofDN+/vY5SHm8Hyoj39fpgsgSuY2t+PHGf6oV+pqCcBGZxv6K85pNClqJVduT7mWP/pfjqBf8xRH98+VJ2tErmMWWyjvtW7MO8XfP9w4jPnSpvE31J6b6Hc0FZfXtNx4+AeD2oEuCyhDdkzDWn0nUoICMiDHtKAYVYlngj9T/x5kP6KXK8oQIdIYQQQogm+ECn8WJkIYQQQog3Cgp0hBBCCNG3KNARQgghRN+iQEcIIYQQfYsCHSGEEEL0LQp0hBBCCNG3KNCpgPs02L0ahBBCCPHGovF9dPzdElP4u1nm7vra5O6a4O8CGd8BMkXdO6saZXentWv7W9LnSN1dEpBJ2d2IY1J3Xe0lBG5ld6muAzc+LHuooKdp/WNSd/ksu1FYU33hXP6un1WgL9TZbt9Pe3FbdMrmbxrJ59ydW3N3Lm3aNzgPd5bl+WxV9fTtEJdzpMnJoYwmssj1mVyfNHK6iXxSd2o3/PW4q27qrtjg797MtWLbGffFeB+vy3Xwd2+GXF+vqh942Vh9qx5YW3besj4LcZ9o2heE8Pj76NR+1lWMKX4qmDjmyIPCbc1zHagOcQf3wUjOMXmnFj9yPtUBrQ5GWZ3i27Cnbj/fhPha3D4cp4PzsW2+HKnbn3cDBmxpgLHiDtE8EsOccu4RC1W3RPfsvuuUID8z4t3oi708VUaW2/c/+NCj4QGBKeJnzHB7f++Ecg8SxWniPOu0s8nz4AHZ/vymX4bn/eT6HPLxT+HnuW/24NllFWThH85bBvscuN/ewVEiA6sXD1qFNVYfNHhleEdbhX/iPeVMBdR2PoO7oWODKFuunWLYl2cGVYG+YqMmbbheu660OQ8uxeYB/SD3tPE44ON8FrzFfScO6ny/pc6pp49j7x7642Mh4MzBHeOrHq6bChaFqKJ2oGMdCVB0HO9hB+9bPHPu/JDtQLFx0h/76D8VM2ZeGzpXmcJWPbjSOngcjBixYbHRQi8oy/BAbMA6xYIxYLQLtm3M6FHh88TV3hKuZ9/3AoID2rAqi9FtMIehJVgggCP7gZHlifC0u7Vrp1krzsGTezF8tD26sDT1haeq4zC4Fs7Yzk2dyzI6lI8n+loQa04DnWP/X/33PcMcSZkTveDcU8Nxb99y09IROvuPHTsmOEHKyHPfCArja0GcFegE5Nska0j5ckFwTk/Rz8MO+Wgx/YKZQ46zIBMHjPMmyLTnSEETvSZrOffp4cFzJ0+8Z999P/ze8Ayq3XaZUpz7b5e0vhkaPNj7VLunoA9wTLw/weyDDz/aflAj3xMMnnH2hcUR0wbb5dXXXgv66Psh+sHzwmI7WBb8e/8AVgeees7DIk3ffTvEARIPYyZDnAOd4mGi/7jTO1pbhKhH7UAHheeprxZR02k/e9q5wcB4BTeFpnOZwSRSTxnU1LZunauRehIrpLbRyTvFHKvPvvjO7DGDjcEhI1HG93/48+D07MF3vYLyLli4aEi2qw5WT+/UDYwcT6qOneMNP/5FMKxgI8uy4NbAoKWcW5wlaZIBGgl4Sra1O+1Zp24QZxvpU4sXv1ZcPfuGYQ83TAVkbCNoPP2UY9rXpL/wORU8muPiIbXsT9DJk9/pZ1XTF73mhz/5RXH1rB+0Pi1pQ67vnyJudsbXI0fuyeamsxYA+CAUx+rtFoEfA7b4ic8M6HiSN21tcB6fKWkC9bE6YU/jgLBJvS24wM7G/dnKmOrnPLWd72GF5ZcPAwYDmV32ze8Uf/vb8Cy2sf8hgw9FBbPxlPfyr5+TnQ6N6xmDj9j8bZOyeohcck9MF6KKjqeuvGFCCTfeaP0wXWX4qB/l9gqeU3obpQL7eGdnDgXDs8mk9YtRowYzHjk6mbrqBOpohoLz1V2jw75leJlh0AjcegFrSTgXT+NtgqXq37nDNq0tS8DI7fiOrcNI1dqdtrzxltvbmShGhzkjFoOcvKxML+I1OuiQ0am+xCPRGG/UDYJxnrJOIMo0LdNGyJV6Uz7vOKjz8Ucf2vqUh8B23Ipji8lv3bC1ZTjosJ+eS5UNqLsPAhnZ2zHIEgdYZ3qmWxjIxIMZgg4cPMRtaLA9dazHZxusHxPgIX9bO4a8kAXZY+Dp9NiFUaNWCMfawI2+ybQfGaXx48aGLBlgLwjUzY4ZyJOAyIPupYJzdAW8nsWZkk6gbgSvuSlt2tlncwhImOK8YiBg89kvP/CjbWCH7d4ebMS0jw9dl0gdyqZzuSYDIf7b08Djfunb1IIk6sJ2dDYGm0MG6pUFCxTkiI7pKNB55NEnQpqRtCTGgVEoBp1Ah2geg3L4saeFfeNRvpFaI4LCk17HEJmzo9PYNazT0XlGkjLHZ5gBGynMeJvDxjimjEtTaJuHHnl8WHYkJs6sMeLacSDIyRka1h/ghOf84ZHQTrQ5gTDGEaPXrWFP4XWoU31hH3O8Hhxg6unznn2m7hXa6d6BOiJXHGDK2Rm0YS6Q+ehH3hdkRpv7ETGBAPVEjji2usae/Y854YwwtTPr+p8UkwYGIsCUC9MnnIP+hgOJs5zdZMq8Q/fnoV0IeqsymeYYy4IB2sZDtgUHa/uTgUGO6Dk2inaknYJ9GTM62Z7IHluVmpLmWM4B1GP2z28t1pi4ZM0PdYzrGS+6Nj2Ly94NK44dmwzEwK5num99Y63VVytOak13evx+1PemgUFKk4wOU6I333pnGOQhZ4PzEUTGAxWDfc+7cGYyyAGCNYI5n70UoimNAh06A5E3isfIyAyk7xDegTJCSAU5GG/Ss3VgGmilgZFuamqkjE6nruJMUAoMRsog9hI6tc8M9ArqlUv1G2asCTjtMwtZCWZyYMCYGvHOGCNGkMNC5Lp4RxmTCs5wijY1AZ3qi4dy49imbP/2duCWg++55q47bx8++2mS6777o1B32tI7uJRu2nQwjuvUL54/5Ndsaw0EnZSBNUgWCJRhzof9kSe/yDJMTgbOskrfm+AdbCpbE+ODVTsGp1c12DD7Qf1Gjx4dpvLINqKzlt05daAs6C4ZHhaPk43odJoau2A6feB+/1TccdeS7DVlsAxGXdAHn91Ive/VNL4nnprzWEbHiINN6pnL6CDne+9/cMi0PfXgnOhvbj0Tx2E32AcZGmynD+cyVkI0odFiZDNCNodso0Qz7H5+1kYIMeznf/0R4xcpc82//PW5YvWB0dMuO23XTklXwTQCMGdsnYvrVk1dcdz8+c+1PuXheOa5gTLGRrlqjQ6O6POfPTK8j8kFaNDNSLsJyIpyADJiSsqyAGUwWsfh4OApJ/8xdma465TfHKUHo5cbEeIwMJLQqb7E2C+Sprxj67CmhCxMytBSrlnf/XEwxk2Ig2kfBLGNMltWIEWZHE3PDeTJK9cfX08sWwVmX6gX8qib0bH60RbHnnhWyLRssN7a7WORJ2s/Pnf69BA4mMzrQjvQn2ljshYcT5/wgc7cp54ZErDh8H3WI9VefOZlwZ19T93qrtEpI7ZL2B6yW1UZHUDX0f9csBlPmVowYgMoru0DP87t7YBhgwLqyjEG+2NHPjHtgJBZEqJbGi1G5uWNDNCB/AgzzujE4PxSPz8EDIaBwWb0wC+7Lr1iVrHhBuuGF1Mo3qik8HPxTeC4CRNWrfVTVAOZpKY+qsBYxlDeXBZn0BEskU9TMB5VmQCwQNYgY4HRq2N4MZCMmMnqPPHnp8LiwZEckSFDm1LoRl88yJmFqYykKTPnYGokdlTsZ1kjpoOsbeL+4I27l2sZ9I0663p6QWrqaiTbjMzK2dO/EdaJEHgwmudXPwyQvI7VzegYyIy2ILiNB1F8Zj0V10oF6889/2IIhN692ztbW5bAVAxtYYMi9NtPP7Idp8zUmbHV5pvUul8QwRnTYJ0E41WYXbIAhoCC6zGt22lGJ4Zz+yDNY4GN6ZLPJNJ3sBGp9X52TuygD36M1IBViCq6vjMynYMORfYEpeY/n1NBDkESzq9sCsScEp0SozJ+/LjwGeh0qU4VQ2fIzcWXgcPq5DgPdcRwWyBDZ+VeK6lOa9kbXrwPC5kH9o1fg51/SZBj5+SVOm8KDA3tUvVCvlzLMmt1ZW6wP1Mm666zZvhvgRsy8XLpBWTgnnl28D4p3eiLgZwJXo4/ZlrbIXIOdDIO8NnOCDY2tr4/EDRee/n54TPvm+IDuZHCpq68DtBm1gcoA+1mDrNb+Fk+cuM66Mff/va35KAEJ+vL5F8pWdLnWetB9ob+ZP2C8pORJLBirRJ6YrAPzphF81WOE11jYWwcKLFIn7VABMeUoQy+x/6BBR0s+F0aDpv2u/ue+0NGx2y0f6XsdRO8TSJIpY04L7rEr/xYL0b9KQcDkq986eRk0ImdKuuzDEaBH1N0YgfFm5OuAx1GrygaowQWzvKfz35Ui4Kj6BjtnIJjkBgZGTgSXjnsuvay63EeOlLd0bNBGfk1Sm5KrQocIeXAKXpHQR1wdpSJ732HtCkMXrxnFBgbIF5+NGT1wxHw4j3beomfUugGjPlBR5wYFqaHtSdOLp3ijRu6xs+kTVc60Rcw/UT/uM9P7HiQP/rEcSmDOiiv+ovTLcC1ssQpfSPnXNnfjo1fyCT+RVA3WBlYUNoNyJTMSNz+TQcX6Hoc/NEm1Jufh+MkrV+wkBXdI2inH7FWieACveQYsgo4fQtYcZ78GAKQOdPTpgvewXrIGHJers1ifHQpBdv5furee4Tr8pnrxjpL+cv02KA8L7+yoPUpD7qJrvN/m603b22tBwFLSsfs5fsQZTZ7hfw92w5cl2wabcQxDEg6tQPIjTZa7n8tN+J2UPQPtR8BgWFA8W2hIwbARnneERv2nf1sM74/CBAceCOfSpmjvJYytuNT1/XXS/3qgQ5iKU+Mq3VSW/CH8Wu6oBBMLnS2KgNldcHwNrlOLAO7JtS5bhnIzRssyE1d2CjUfp7KqC1XD/b162qsDvYrshRetzzxucpoqi8EKE3bjyySX3Cd0qsUXINpj/gWBPQDAimuH7dHLGO+x2nl5O7L4+WYkkFuXw+yT/WnKji3/yl8jtSCWy8Pw8vFH2MBS3wO09XY7rB/2UL12CZ5TEfQA9pwq4H3/OLOZBP3D4PyksV+4cWXg/w7lU2VbsRYOU3X4n7k7Qj4PpBqg5icLnLenC21a8b9LXVMzmbYsb788fmE8I+AaPysK7F0iI3aSK6bEM3xTs0cTiqYMOo4jmWRsjoJIcSyigIdIYQQQvQtPtDpeo2OEEIIIcSyigIdIYQQQvQtCnSEEEII0bco0BFCCCFE36JARwghhBB9iwIdIYQQQvQtCnSEEEII0bco0BFCCCFE36JARwghhBB9iwIdIYQQQvQtCnSEEEII0bco0BFCCCFE36JARwghhBB9iwIdIYQQQvQtCnSEEEII0bco0BFCCCFE36JARwghhBB9iwIdIYQQQvQtCnSEEEII0bco0BFCCCFE36JARwghhBB9iwIdIYQQQvQtCnSEEEII0bco0BFCCCFE36JARwghhBB9iwIdIYQQQvQtCnSEEEII0bco0BFCCCFE37LcosWv/a31vmMWv/pqMf3fZxZ33/tAa0tRbLPVZsUJn5pWPD1vfnH62RcUL7/8ypDto1ZYIXyecdm1xVprrl68f89dw2cP32237ZbF1lts2toyyA9n3xz+p46Bx554csg1YdpB+2T3F0IIIUT/MO/ZF4r11pkQ3o9IRoeg4tQTjwrBzPrrrl1cNePc4trLzw9BzlZbTC7m/OGRYuoBR4XX7BtvK2Ze9e32Z4IbY78Pv6+4bOC7e+77ffHCiy8Vnzt9eghidt91SnHvfXPCduC7s869OPwHrnnJBWeG6wkhhBDizUvPAx2CCwKRmCuv/l4x4S2rhKwKGZrrr7k4vPbcfacQGPGe/56Vx69UHDqw7a5f/7YYNWqFYuzYMSGYIYA6cL+9i5tvvTNkk55/4aVizJhRYR/D9hk3bsXWFiGEEEK82ej51NUXTj46OdU096l5xRGH7h8CldPOPL948qlnWt8Oh+DkjFOODZkZT27Kyp8/hgwRWSNNXQkhhBBvDkZs6mrtNScOC04IbH56460h2GBq6qIZ3yq+8qWTsxkdPjPV9bs5D7ens2yK6m2TNy4e+uNjIbAyeM80Fmt5UuS2CyGEEKL/6WmgM3G1CUOmj4Dppwunnx4CmfO+fEqYYrrnt3PaQYxfo8N/g+yLresx1lh9QrFw4eKwxsew95PfumH4H8P1NX0lhBBCvDkZ8Z+Xs3iYRcRkdniNHTO62GG7rZIZHV6p6SeDdTfv23OX4kezbwmZHF68Z4Gz/YpLCCGEEMIY8UCHLAyLiAl4WFTMT8lZU5PK6PA65oQzQkCUwzI3N958e3hBavGzEEIIIURPA52HHnk83DfHQ6aFjAuZl8efmBvW2TAtlcvoMM3FdFPML269MwRLnO/oIz4W1v3w4n1ZNoegyd9PRwghhBBvHnoa6BBQsIg4xjIu6627VrHKyiuFrE0uo8PL30sHvnjORcXtd/4mZIeYrmJBM7/a4nXdd3/U2ms4NrUlhBBCiDcnPZ+64hdQBBgeFgzz03OCmmNPPKs4/php2YwOL1unQ3aILBHfcwNCpqr2P+S4cD8e2xcIjuyn5x47XgghhBBvTkbkERAEJnbPGn4azt2NzzztuDAlxWcyNGXE99Fh+ol77/CrLv/4CMOu/8yz89vXKSuTEEIIIfoXfx+dEXvWFZmasl9QjSQWGPmbEirQEUIIId4c9DzQEUIIIYRYVhjxh3oKIYQQQiwLKNARQgghRN+iQEcIIYQQfYsCHSGEEEL0LQp0hBBCCNG3KNARQgghRN+iQEcIIYQQfYsCHSGEEEL0LQp0hBBCCNG3KNARQgghRN+iQEcIIYQQfYsCHSGEEEL0LQp0hBBCCNG3KNARQgghRN+iQEcIIYQQfYsCHSGEEEL0LQp0hBBCCNG3KNARQgghRN+iQEcIIYQQfYsCHSGEEEL0LQp0hBBCCNG3KNARQgghRN+iQEcIIYQQfYsCHSGEEEL0LQp0hBBCCNG3KNARQgghRN+iQEcIIYQQfYsCnR7zw9k3h5cQQgghXn+WW7T4tb+13i8zzLjs2mKtNVcv3r/nrsVjTzxZnH72BcXLL7/S+nY4e+6+U3HEofu3PhXhmEsu+8/ipOMPL1Yev1Jxz32/L340+5bihE9NK0atsEJrryUsfvXVYvq/zyzuvveB1pZyvnDy0cXWW2za+jSUF158qTjtzPOLQw/aJ7lPnfrErL3mxOLM044LdQEvH+p2/teuKM445dhi/XXXDt+/nlC22Tfe1vqUZputNhvWFnGbeTjn6NGjizkP/rE4/NCPltazqq2N+Hpl14cmOjJu3IrD2qNuuTzo0r+ed0m2zhZQowcG22Ze9e3Wp0FS8s6d2+r5vj13yep4THyM9YEnn3qmtccSrO+kygnHHHlQcf0NPx12rO8D/nqT37phabtMG+iHXj4xlGPuU/OG2I86oJOQOw4ZXDTjW8XRR3ysrU8pOcX7eKxs+334fVl5mlzQ3y+ec1FrazUpnTAo58WXXl1M/cB7Km1Kal/K8tULZhafOXZa5fGdYPYP2eRsjfmEOvYoxh+73bZbhrbK2Qf69V2//m1bD3rR7r2gyp4Z6Ni9980JunDl1d/Lyipl0+K+Y+2S62+Uqa7vi31eJ8x79oVivXUmhPf/O/ztAK8Edbnq2u8XO03ZdoiwaPTrvvuj4uMHfih0OpTiPbvtVJx34czQAB+Zumex1eabFEcddmCyU5qwPT+76bZivXXXKhVSXP4xY0YV5335lHbZKFfsCExhDfucMrKx0bGG41xXzTi3tbU5lOvxJ+YGGaE4BDkozvGfO7u1R9q4s+9tt/+6OGj/D7a2DJLb3g1lzsUcfgxt9uDDjxaHfOLk8DlW9FVXGV+cfsoxlQYYx8f5b7z59mwZkCH6heOw6xnxZ+8QTj3xqNbWPKY3HvSEMmHoOA86m3LysTH55R13B5n4ti0LsoE6+3rn5J3j6XnziwULFmblm2Lx4lfDfzuGNrtw+unhvUE5Lhuos+2z+65TQv82429G8u1bblrcfudvhrS9Ge0UqXbhWvQ/HFZOBwxsB9ftNZSduuHQmgS3BnX46Y23tuUQyzMGGV5/zcWtT3mQM85sqy0mZ8vE9kkbrR/6SJWzmfOHR4qFCxcXa6w+6FCANibIwakd98mDG/mIKrz9o+1S/QHZEXwATtgccRmmfzl9oU477rBN8FVl5+u23TvF+nmTayLLXw3YGHycHWPy9Oejf8c2jWPRTwb0OdgnDuhiX54qd1l/75TGgQ6FsKiMQKEOFjVuPWDErBKfPvrg4tLLZxWbTFq/+LtVVy5++JNfFH997oWgRCjVV750cggiFi1aXBx/9KHBWZx17sVBiRCajRhixeT89//uofBdDsrzwO8fKv5xp3e0tnRHlfOJG86Cs7KRGg4WBbnsm98Z4thxfgRxEBsSUxqciIGycY2pe+9RjBk9qt2h3znQaVPbqxxDHXDiKUduUDcP5aY9Lv/6OaFtkdf1P/hZMWrUkg671kDgQ0dAF4yyQJNtcRlwfATUdL49dt95SF2tjapGQJ2AMwCCMOC6sZyRP1g7Ux6MkMmkLsjSjzBhwltWCYFfqk0IonwwFwecZaD3XMtGgXZMHOhSJss69lq2HmRGn5i04XrFtZef3zacOdCf+X95fkQCHaBfIh9kT383OcX6itx8kIt98EFOLzA78OLLC4YN6HI2CGI9iAcg1G+3XabUGvBVZdfqYPbPyr80wWbi8NGzsut32u69Zu68Z4e1n28DZLnvh99brLLySsXnTp9evPzKgto+nWMnrjahbdNi6FvYWRIIywKNAh0amADjlBOOLL5z/ezW1moQ7Nsmb9w2QozMMUKMxGx0SwNgnL3DsZGaGbB9p+7VdupnfeG40EE323TSEKOOod78bZOyioNDwanGRoRRiR85G6ltBFu9YsWxY4PhAZw70S6OMTUKxyjh/FBORlsEm6l09f6HHBf+m1IzGqTedDgflOW2A86Jc1cFcSl8Z7KgztrIgjGDtp155beLo4/859AxGGnCW/5u1eKznz+nbYDNWEA8Vdm0jHUyMyms7E1GTXT4m2+9szhwv73DyOiMsy8ckiX0uu2dwO/mPFz8f3/72xBDFdc7BXLAyFJWe28BrD8/uhRnLDnGB5wGOpLL3tq23PfWv3GQGNSY2BFWYfoKOA4bEKA7zzw7v7jg3FNrBwe0B8fMfWqV1pbe49uLIJuAwLJYtEE84qUN6C/0TXSDgU4um10XkxmyYgAZnwuHVSeosvIalI9BJdmVTvtUE8z+obNNsD4WT5n4AL8OyAfbi4+p6odN230kWGv11YqTMv0BmTz3/IvBJtBHyVahd3Wg/JbNScmO71O+Ge69/8G2f/LE27AXvaRRoINBvOirpwfj3RQqT5ADGBgTEMLFgJuQMYYTJqxaHHviWSHS5ThS3mbAvOM0R802GgwjQYfmfDGk43EyryxYkOzUnUxd9QLK44MpppEgznoAUTRROmWnDr58cUCBXAzKvWDhojBtOHcgcDCHlNveDVUGgGv462A0pn18n2KTjTcIxpJy/+q/7wltz3SayZysRNW568D5fdAUE4+AwAxiJzCqGztmdGijXwwEPNZeZnyBdC7BgB/FW2CCThOsUHdkQVYzHhlapsbKieNhsLDmgKGjfRlkcD0LpHPGadZ3f1wcf8y0pGHMwXm5BteibGa8rX6WXWFKjD7NZy9LC1K9vpaBHGLHwbEmk1T75QLh5194KWQ4CO6of6reVfqS+s7sD9/FGZAqrH9QHgYzB+z7T6GuqWyJUeawzSb6wYeHctUNUvy+6OLV191QvPTKgvCZ8uLcUmsTrW277b9MG2EvfcCcGuhB7ANyUyZNsfYxsJs+I2j60rTdlzbYXcqJTTD9YY1OHWiHXAbwoT8+Vsy6/ifFju/YOtneb5ipq06gU2CsMYI4a150OirEItN9P7RXWHvBZ5wA0xM4boucy+anTZh0NAKiVJADpONpUMsm9ZJcZ/PkItS6GR1kM/vntxZrTFwyFx4HSeANr42QOR9z7qReGUnwnw6Y2w505jpz/h7aLDU9Ar5cQDvRdrxou2NOOCMYSYwG2Q0LLikjWR5GH6Yf3WDX7BQcTmpE4iEdDeg9U7YcY86GTI1NF11ywZltXUTnzVmkRkLAvt4pIW+IHRgyYoR25r9+rRi34tjgGGhXAq7c2iX6JMdY+WLi9jNDzv4E5xagE2jQthasWnvxn7VplBmDSrDSK5AV08AW+AOG8tOfPLi4etYNWWeDfcEgA7oVO2jI6Usd502ZfAakLugNxzG9usN2W4WXBz1pkhFA1/x0tqesz+YwuzLvmfnFSgP6BZSD8mLnvRwpK4Fk2VqOOlBOskfosycVxNrgYGnA4NJP95gudtLunRC3X2ybUoG/2V76IH2R8podin2Znc9sGrKlPdGpFNiBXFD9erJUAh2EaAbBCwDjZ4bQr70A288i5Bi/DaG/e7cdQ0djLYdXcgwY6wPYJzfqgU6nruJMUArK0G2EisE4cL9/Ku646zfhM4aFANAU3Y8gzGEiC8AQmDHwjjK3vRusExmUz2eawLYZlNnWZPnMDXJj2ofgj4xAWUaiCTiSqlEypEZlVXqE7HG4wD7IleuRxbTz5IyAtSnEBsz0ve40HUErGSK/KN8yPXwXY2XiurGhog/mpqbYj1fsfH17e+y8yARSU1dMJ8UGOjVQWLz4tVA2DDW6MnbsmLAoluCY9yussHxrz+FQXha1WmCEbrHeoFvdSvHCiy+H/mij4FjvrK70Hepi+9o07khi7ReTGml7+GEJmViygAaZQ6aWkK3pHO1StpajLvSfEz71L8W3/vO/Wltef0yH6Fcp6rb7u981pXjuuZcq7VGM2SJrPwvw6Hup9qNvA/vT/+yHHdZWYPbFH4/szaYRbJL1ZZDg4dw2mEvpk/GGmLpammDAGN3TaN7xWbo/t4CLBjIQPiPqT0w7oLjplttbW4dDQ4Jfm2AOq2zqiuPmz3+u9SkPx3/5jBNan4ZSd+oK5eP6BDqUjQwIHQjFotx0KBwNgRfnQGHXmLha6+hlG+pD+X0mg7azqRw6KjIk+8S6HQs+kD9Tkr6jNqEsaOg0OKUsvq1NZ219AM4Mvc6Noi1QNAfkjVcnsNgWvTEZkrWhTKm+0yusn6QMdxwIWxvQ3414zUiuLb4+85pgB1i0jlFmAEI9kVf4VZFbzB5D+t0vai3LdnXLyuPHhQDW5FK2VgM5kP1gSmRpgoybDCSYVqb8HoJMAkzOZf2q3RY1zlnGRz6457DrLW1oGx/wU08LrlM0afduoSysdcz9CMfbU2Aw4DOx9Ms6xL/OtbrRxlXnoN7xlFYqIMv1925YJgMdBBJHymxjTnj3XaYUf/nrcyGiZPSTUxQalqwBI2of/Bicz6e6CRDKDGMK5vhZT5RT9DrY1JV3PNb4OagzHYg6ECCgwJ859l+Kr17wH+FXVARf7LP6xLe0jlh6ENVXZeDAOgV1je8DxDYC1HjhpDkhjAQdgw4Rz9kvK5j+wfhxY4ctkrW62H6dBjI5cOQEjuAduP1Hd4xUYBIHYqk2jbNblomhbS1DyHWaGHX2ibOL6IUFj6bz1M32Q4ZA1gDdIbWObcgNRGwfM/rA/tgDshIjFQTSDlCW3TA9WNqBDlOQBHu+v6EP8Ug7DlQ9HIvDI7gxh16W8egFddfopDIJ8WAyB/pFf2BQ6YMcu7VHVYBcp927gbLE9y2inLz4joEWAYZli4Hv4qUJfrBRBzKqPoBLHW++DDsRr2damvTszshUiCyDN6CdQuP4SJlzYoT45Qr3U6FD0nnYlrseilfmPAhSACfJOeJOXoeUcWgCRh0DHhtWlAYjngu8KC+yxuBjrBkBfuFL/16sv946xcKFi8IvA1Bu5NgptOfUA9JBYg5kTufxL4wDRsc+E9RxUzhrG+pKkEMET70wKhhK6s901dGfOSPUA2d83kWXBUcUZDMgc/bD4dVxoK8HlpHEwHRbRqt/nTY1R47zpp/YdEIOZIlMfbv5F+1H5iXejvHC0KEnloYnu1jW71LQ5gRSOBPKbvrNe14scqb+QACHvts1OJZAn0CKwIZ1enxv8saO+ECY8+Ec/T7A+170Gw/nIfgDX85O7cVIgbwpm2X/DAIBFpL7Nq9qW/onwQ3npP65n4LznfXtbkjpJdtiWAQb18XsSArkgDzQFQZdHGvBDGVGT1hLiD1j8S16ZSzNdkfO2E4f5ABlOOiIE0M5sa+pdqOO9C36L//5UUETRo1aPsgQG56D4IblCNSdAZ0tp1jaLJOPgPDpThSIX2v4KSTgPYYJA+uVrC4oCEZwuf+1XIg4/YKyOnA8DqTT0QqGHQUrezECYSQSg1HGeTJXimyQFws9CboAxeP+Ovxqg3IuS1CeC79x1ZDoPywK3WFwITSGknlgOiptzK0CCCjRBeaTLSCizVnw2s1oESOWkjsvphPJFsVgwGyqMwcGBONondoblE4GA+gKurDrztsnnYYHuZHCtl9PsT/Ohu29hjaxAIkAhymnujDKJWNgI3KCKYJiyksATyCCHvPCFhBQIUcMthlW6kQftMwMx7FOz75nMOMztTgdRuE4J9vHwzb6DW3Pvt2AfhJ0kWGlXKyLigNe3iM/v63XVGWGkCkZNwYMOKTDjz2tK12h/Ri82XRizq7SB1afOKGrbLjXBQ/bvGOnTKwBbRJoMMhisTW6YgGR9WP0Az0h8OHcBBLoFW2+tNudc9hgGZ01+4XtJ4uMX+C7GOwvbU3ywII+/IfZRP5bRg8fy699O2EwuFk96BQBcKosS4Nl7hEQCARnxn10MFRxSo7G9Kl+Uyyb0+czjt8rOgoap+aByJ9jUnPTdESb2sLRWirfFqhSzvg6vYZy+zsB2+f37rFL+z5G3Dn67OnfCCnU1OLZpQXtklt34rHUNx2NDkAw4NsP7DsMSdy+1v5g+zTF9MFSrim8Hlq5cnqUgnraz6AfeuTx9tRcHTn5BX1eFjGcC/x37J9bOIxOY3xtcaS1RRVl5zQ4Nw7zsIP3LS69YlapjFLX5Rr8AvN/7v5tO8jxxP3eY+1CQIQsOJdNtZks2cYI3U+15TA52Zoxf74qbDpv1vd+0r4LPDpsAV0ZXi5x29Ztu5SO2jqoFNQN7FzoPVmA+J4zHru22UgGnPRRK1sOP9WZ0t0qTMc+9tF/CtP0Ta4XE8upynaaXOL7XRnmd9Dhbtq9Kf4a3ZwH0IVUP7d29smG1L4p3TG58qtOiGVH+QmIyXjRttYe3dYF/CMglslnXQkhhOhPCDKqHuUiRLco0BFCCCFE3+IDnWVyjY4QQgghRC9QoCOEEEKIvkWBjhBCCCH6FgU6QgghhOhbFOgIIYQQom9RoCOEEEKIvqXrQIcbP9nNn4QQQgghliW6vo+O3bEzdTdTqHOnzZj4LpXchdHfKTd+CGSvyN191V8/B/Vs8vRfo+zcqXOm5Dlu3IpJefhzd9MO3NWyzl2PIVUWrm13GeZZRbm7zKbu4BrflTPXRp3yesiFOnQjT9+udrfYug/NNCgDj6moc6fgGH/DN+4azrN84rvK+jb32+1OqGXX7aSN42OQUUrPqu64miu3kdMX7sJLG1z2ze8MuREe5ai6q3QnUF8os0l291/uAG6Pgsjtb+Wk3P4OzHXwMkU+ndjBGJMzj1ook11OV1J3842J27qObub0o86xnk7lRDvZA2lT+ukx30xb+rutlxHrq9X30wPtwB3Py+4m76kj/5HG30en0dPLU7cXN+JbXZszoJI8b6NTEJg9AReh2xNjed6IUbcRRxLKGT/gk/KWBSV8z/Oa+N4cX5UhjuVpClVFrh2sTXnOTdl169ySO1UWtvHcFXuIIueoOs/S5PWQC7oa62tdQ8m5/BOhCbYoY5XRi+H6OIgrr/5eV+2x7dabDwRdE0Ow5ctOAMQztuJycZt8jGWujsidAIx9mkBdMNBGrGfIDaPv90nBfjwDL/dAXdMXH2hY23EMjss/pqWuY2gKz4TDtiD73Pl5XtOCBQtDmVPPvKLc8WNsaC//lGsDuXQSUHcCOnD1dTcUa0ycMOzxMFVY4MMDbavgGXspHfXEjr9TvW5Kma8Fe4iuBz/Is7V8oOoHj8gmNcDK+U9rBx7xMXG1t7Qf04A+VbUH3/P8Qo6vG/yNJI0CHaPs2SlgUaDhlS83WsiNiDDkKBbEEb4ZmN13nRI+L01iI8F7RtkxPDXXonYUByMIpkRVI5aYlMHBMLOdp9WmMhM8XTeV8YE5f3gkPKiS8/UaC/Sa1nFZYCTl0g3I1J7sT5uTTaE/pbIXBNVHHLJfMePy65J6YcTHMkjZecftimu+/YPWljS33f7r1rtBPvv5c4pTT/pkcenlS551Zee258oR2MfX84YWuXNszsB7CDJxQjbIsvPGzzhCTtgd/8DPHFUPwYydhX9/winnFC+9siDI2mRDPeIMdVNwtqn2hdSzlMw+45QffPjRIU7RyovMc0+SLnOysYOtE+hDqg45B0vwTfDOgyY5jixw2TU4L7YXP1A3SKYf8fBgnqOYg7Yme/KPO71jmEysLnX0Gl+Re+ZV3IdMd4EH0vJQUew25/BBn+m0zaRQVuA7AlUrb0wsczvOl5F6oLP/sM2Wyb5oOlA3S82DQT3d9odO6CjQ6YYVx44NjQeWusO4EbDE0Jg8nZiIkqwABiSlMCbIXMfpNV7p4g7sDQmjrhyMtl4eMIqWoYI6CsB3dGTr/HRYmPzWDYdlJihbbloMkC/1sGxLFWUGF4458qDWu8FzE8jxBF1GuudddFmtZ9tYB7UHNFZRVcdOGEm5dIOVC4eNE+cJ4Dx4Ep0pSxPvuP02rXdLDFsdee0zda/Wu+FQZz/SNWg/b6CBfRcvfq24evbwwN7KA1a/eCAVDypi2D/3vQXb9LGcY/cwILMn1KdGociNl9c7yhdn43Ly6ZRYJjm4LiBLbKe1Q6rdKXeOuA2RYzxlwzmRF3g5gzlws2ng6+Db3UP57eGrYA/GZX9fdvTMBo0EW/DDn/wiPED3bucjfObfB8BkczZ/26SsPaIcfoqoG72GOPhO6QwyxCcC23jiOtsYwE7acL3iK186OfR5myrmM7LpxVIOys5TzKmTZT3xtT6QtfbO9cO6Qe/rwVIPdF5ZsGCI8lmHQBFiyObweHgULTbmsdBpoF6Aw/JOi4DF44McysX1yVT5LAtlqTKq1OFfv/jZYJD8sdQrjoxNRhZBE9TQSSgLI1CCAqgbTBgES2QDOBfntA6Xg7qWKTJ1+flNvwzvqQsjMkAeTOsxwvRtH2P1I5CjTFWZOq7np3F6xUjKpRvoD5YNxQDiyHA8TaDPpDKPI833f/jzYtyKY4M8cyD3OlkXDw7o5lvvDHpvRprjLWC2J8eTAatyChyDk0XGyDdVjtihW1/Ffj3+p7nF2dO/0f7O7Ejs5JpSplsxft9PHXVwsfrEt7Q+NWPhwsXJvprK6ADyZKDlHTiDOZ/ZL8PaCziWwa/ZWT7znbf3nHv+/OeKyZtsVCxatKgdfNrTxelzueCfMtI2VnYPU31nnH1h8FNm48uoo9cpsNtkrcp0Al9AUMNg0fwKwdfUvfcI2RzKh431dcXGev9h2Rh0cJNJ6w8MOkeFz2UQvN1x12+KA/f9QHH1rB8MG8T1Sq+XJh0FOrk0nIdIPkXdjA4GZfbPbw3ztEYcJEFZUNIJqagUBQMUj9QokbRvXMpq6yTosAsWLqrsIDnopDZy4by5BWsH7rd38dULBg3DtI/vE77fdefta8+JUheM+omfPry46Zbbi3t+O6e4ZtZ/VXbuVCAGjNZSzsOuY2XyozLwzsmg4zKqRi/KgjYcv03j9IqlJZemoAtMQU7aaP3wGYNGppMyIa9U38iNsChnqqw+Fc05c9PMnJdgCWNdNyj56EfeF86Lw/LTrhZ4UT/6zUYbrpudgo0NLrLlPPfe/2B7MMA+GGD0h6DJgm3gPddJLSYF9I3jyMCRIUrVjTrgeHLrVSyrmtLrTqC8PrCqA/XfbNONiyuvub61ZQnW7rT13nvls3qpjE5si9B52q+MCRNWza53Mgg88Cm5jDzXs2msY044I/RF9JMlDauuMr6YOxDo8Jl+W7U2h/0IoFJBDjDVh/xOP+WYShsKVXqdAh+BHyEIZ5BmMo4xX0CZqffE1Sa0fQ/HHHviWe1M0pfPOCEcw3aOMb3xmSbaqy4MTFdddZUhNsTaO2VTlnUaBzpxB0hhxqQbaNwD9/unEFkCCsTcozkUP83DvhjlOqnpTuGadERvOA2MoqX7GGkAztfep4gNmI2Ucs4pBvmTeiXCt7awTA8Gu8zAYlgs/Uk5YOstJ4fRH51nx3dsXVoGb5D8SCwGw2SOpwm0KU4Kueb0zIxFLxcALi25dAI6zmjVsOsYNoAo65eUCWeQmgaxPrvKyoOG2vob8F3s5JAV7ZMilQ2gf3BOAvRTv3h+WBthZaXf8t5S9X5dG9i1crJvElxwHXMKMVwDvZsy0M73DlyTsqTk+fwLLwUn5bMbI7XugOvHU9KAPpRNV8IH3//u1rslTs7rDXL963MvtD69PlAGAo/Lv35Opexof9rE9IfPVi+OTdnmGI6njdE5r79sJ9tXlqXoRK9TMP0Ep5xwZPABloWKMRtCVibus6YX6HwqS0ngv9KKYxtNa9EW2GvWG3EMOtYvNLqPDvPWpAurQKgYk5Ti2siTF43B+ppUhohGxckAAieinXrAoCLTKYBRFdM1GBzWU6wxcbWwfSTIjTbMeaBQdBbmfhl1VzlfU1TqQufiP3OkZY40xYsvLwiGF7gmHY5FdjlQZsp6/DHThrWPlQkYVVOfTuE6gPMlOG4K65uoR64MNvqu04HrsLTk0in0h5T+NYHAe94z85P9simcgwwM+h9jgyH0mZcfPSNLnAGBU+rYXoEDxF7EL+xIyoDT/gwa+NUK/ciyo6kyYrfINFsd+U+giT2y6+AwsGu874XOUA5sXZPzeBlYFs8+4yDLMKdu+3t7bdssO+SpMyXjQa8JqOvqJPpz0VdPT/Z7X198AtkZXwe+T/UjttPWn5h2QGtLmm71Gv951rkXh8EU2Z9NNt4gZAf5HLcH+ois6a9k30yX4hd6ttbqq4VBiuk2x/7lr88NDNAmhKwdmf8qveEYAj/qRBbI5Mv57Vq0t/9MXayuZRmsZYFGGR0cKqnIbqYKUiNPhBxPXXnoBHQGGpHMDYrxmWP/ZaAB/yPMVxJ8sU+n89GdQFksfW0pcaLz8ePG1vppY7eYYT74wA8Nma5CrikjAHRoZGdzvjkItkip0kHovDFmND3xLx0wKLw6NfDoGB01FbThYNEXRmZ1DWQZS1MuI0Vq6ioenZYtwESfy35WHUPmh35H8MT5OJ4Mw8H//KHWHnnYn+yNhzbwsrOpKA9G1uOn2gwcgmVXzKHhRMoyPZSdrIJffM6+GH5G394xos+sCZm42t+1tizBT11UXbMptibFMm6QavM4s2QZYuQL1IX3ZVNO6AvBis8umyP0A7H4PDi9Tm4N0Cuom7WV6WNZxgusDthw6hjTrV4bZGUIvgYHzEsyT7STLSq++577W1sH9Y9gCn0LU60Z22S+0/o55eXzYQfvG+57s+EG64YXfb8sEOF6vOKAy+uAycrrAHBNfBH6vqzSKKPDuoD4XjFNoKHI9MSKh4BRtJyRRZBEq7YAC4P0hS/9e7H+eusMjDwWhbUKBBneqdLpiDitgzfFjk8pPxD0EeHHZWZNA+WkzE2hrHXKy7nNMJNmBzIcZVAPW1+U6jAxtFFu5ERntVGNvXpl0A10DJ3Y+73vam1ZAjrId94BdcobTS45bADhrx36VKuvUk9S0r1auI2sWCOBAQXLKtaRoUEfIxsKtKUvu3+RtsfgxtvJsmGTbIRJIMS+TTIE9CX6K79ei9uKAQsBsO+T7L/FZoOZ5k7o1C4hZ36YYXKGVJs3qTv1jZ2WwXYcI3L9xa13FrO+++NhukOb+eMJxuy+PW8U4jrEdKvXBoOOay8/P2mzzNZts/XmrS2dgw8k0Bw/flxrS3k79wLzu8tyu9cOdOjg/MqjU0PpU165F6k6FhbGoGR0YKYVWCvByAIjh8MDGpJ0Gz9BtwCDNCGdruwn3imsnIcfe1qYBoqNn8F1LOjDaBFoMbrE2BCAWLBDfSzdm6sfUzBE+0TLVc6bTkQmiWwGZeP6KLafb07Bvt7xdQrlqyrj60XdQNHzZpALQQ6ZDp+SjkF/yqYcvB7bVAyBACM5RoEEHAQ+41caN2zaI87EGNZHmziRGGRuTp5gqAnUAXtCX0o5AsrFwIpgx9L06AtT6r6O/Ce7UodO7BI6bdlbrtVUx43nnn8xDBjJnPnRd8oxA7JFphd+46owDRQPJj2cg8wyN4mz9vQ2Evz0S5z5XFYJdWhlOpemXnsIcPEPdl3/QqaeoJ8DrxzI3R9f1Q7eb7Nv7Mdvu+PXYdDdq+z6SFF76goFx5B1ErXVdQJ0Frs3gufV114LhgZYwMVPOBE4aVqbJqJxCYaMptNsXJuRvU/VGRgFFCpWCkaPGB2Ou+SCM9sd2sqCzHI3DDTYx6+mr4LMDQ7Jy9MrN07HOqCXz0hBnWzBHDByqZJ5WRnNKcdgYDx2PNgUBs4DY0t75BYULi1ycsnVzyCYiImnI5rA9Vh7FE8Xo7den+0ahi8nZff67eEYgnrag/4A8Q8WaG8jvi79rdcjwfga4PXFdO6SK2ZVLtRE5vRl6sANEakvTs/XkT5c98cXTe0S7UCgZe1PBhe9svrF/QKsLWObyy+UvI2k3AQv/CCCY6hLrJ+0qdlDnD5tHf8Sj2O5waTZJd+/TSeA92anOg3WcuT6lZdPaqrTYz/miPsg5V5h+eVHRK9jmZIVjvsZa3Cqpq7qEq81tXYwXQCfzEj5Qw/Xx3+9HjftbULXz7paVrEGrBNgif4CA0TaXW0vljVkl4RYOvhnXfVtoCOEEEKINyc+0Gm0GFkIIYQQ4o2EAh0hhBBC9C0KdIQQQgjRtyjQEUIIIUTfokBHCCGEEH2LAh0hhBBC9C0KdIQQQgjRtzQOdLgTYuoJwLntZXD32LLnSQkhhBBCdEOjGwbGt7U3uEU8z2tK3RqcW5Ff990fJW/ZT1AU37a76jbdQgghhBBldHxnZHu2B89+skf2W/Cz1RaTi7UGAhv/yHiD43ji70233F7stsuU4o67flPsuvP24WFgPCfD9uf26MvCc4qEEEII8calozsj2/QSwQ0PZuNZQgQm9mj+d+6wTdjOk7SvvPp7Yd8ybr71zvDEUwIkeyqyghwhhBBC9JLaGZ3ck2vLYEqLwIXAJ87oTP3Ae8L0FMGSPfXV9legI4QQQohO6elDPXm8+yWX/Wdx0vGHJx8jD/6x/cA6nK0236S47fZfD3lsvD0qfvy4sWFtT+58QgghhBA5Og50couRU/jsTGqNjmV0hBBCCCF6SVeBzsWXXj0kSElldNh2/Q9+Vhx12IGlgc7PbrptSKYH7JdayuYIIYQQohM6WoycgnU75104s3jw4UeLi2Z8K3zmvjjHf+7sYuyY0bXW2nzh5KOL66+5OLzO+/IpxYpjx7a+EUIIIYTojkaBDoHL8Ucf2l5EzOLkQw/ap9hk4w3Cr61O/eL5xYH77R2CFn6d5Tn33y4JU178v/f+B1tby+GXXvwai5duKiiEEEKIpjTO6BDgEHjAhdNPb08xEfxMP/vk4urrbkjeIdkyN9defn5YiGxww0ALZsgEvbJgQdjONBn35OE4XrxnmxBCCCFEXWqv0SGjQlDifyUFqTU69lN0KFtvw9odbj7I/XcgPpddEwh2bD8hhBBCiBw9/Xm5EEIIIcSyRM8WIwshhBBCLMso0BFCCCFE36JARwghhBB9iwIdIYQQQvQtCnSEEEII0bco0BFCCCFE36JARwghhBB9iwIdIYQQQvQtCnSEEEII0bco0BFCCCFE36JARwghhBB9iwIdIYQQQvQtCnSEEEII0bco0BFCCCFE36JARwghhBB9iwIdIYQQQvQtCnSEEEII0bco0BFCCCFE36JARwghhBB9iwIdIYQQQvQtCnSEEEII0bco0BFCCCFE36JARwghhBB9iwIdIYQQQvQtCnSEEEII0bco0BFCCCFE36JARwghhBB9iwIdIYQQQvQtCnSEEMsEi199tTjvosuKx554srVFCLG06Of+t9yixa/9rfV+mWLGZdcW2227ZbH1FpuGzz+cfXNx731zihM+Na0YtcIKoTFOP/uC4rhPHhz24fuZV3077AvbbLVZcfQRHysumvGt4u57H2htXcK4cSsWZ5xybLH+umuHa82+8bbWN9V84eSj2+XKgdJcfOnVxdQPvCdcI4byzn1qXnHEofu3tgzywosvFf963iXF4Yd+NHnc0qbb8lBPeP+eu4b/deCap515frHZppOGyScHbbjWmqu3r3PPfb8v7vr1b5PH0zbT/31m8b49dxnWjhz3o9m3tPWsilw79gLkgP6ixyuPX6ld7q22mNyuJ9f/6Y23FmeedlzYx+hE7lAmmxzWF19++ZXWljxrrzlxWFk9yP+ygX5ctg/k5B7rgWE69eRTz7S2lFNVToO6X/+DnxVHHXbgEH2hfN4eYW8OPvBDxRVXfy8rp9iupPpe7nrd0om+UJZLLvvP4qTjDw9ySrUd7fHA7x/KyrLKTsZQTu8HbBu6sN+H3xfa+NCD9inV3bo6Rv2+esHM4jPHTgtlK/MTsb6U6Sf00l68Hv0v5xea6lEneleXec++UKy3zoTwvlGgExuLPXffqVGDXXXt94udpmw7RDCc87rv/qj4+IAR8B0XhSDQYd8qAxWXw4zBof/8keKyb35nWCfKNRKNnHOOKWgkb8zAFGnUqBUaBTr2mc5aFlhQt9tu/3Vx0P4fbG0ZJLe9W5BJE8cfU6XITTopWID6s5tuaxScAsEv9Zjzh0fadQIfPPj6Ll78amWQF7djL0FPLdBBTl8856LWN2m8o6ySe46mjgesv3nnm9Ib9vOOsUnb+z6eC8a8vMqMtNmWOoGcXSseLFl5UnX35K4VywJy16qiqR1OkSonOhTbN+tDuTb17U4/gzI5N9G3nN32fZB9qoIdyljHmQP188FOiljvcnqN77v3/geHbY9l2pSUDo5k/4NUW+TaB9Cvpva6W73uOND5xa13hgrwsk7pR5c5UESi8K233LQYPXpU8fObfll8+uiDi0svn1VsMmn91l5F8dfnXgidzRt0lGDBgoXFNlu/LXz/nt12GhLEwNgxo4cIxBq+aaDTqXNIUdWBzYhMG+iQu+86pW242TdVNuvAU/feo3huQA5/fe75MHJ95w7bJLd3WoeUcavCFLKJMlNvyhh3Us4B1p7eKJUFjxxXJ6MTOxMLnH435+FgLNE/DMRHpu5ZXPmt77WNQlMn1K3ximWJjOf/5flizJhRxa47bz9Q1sHA/22TNy6uvu6G0Ef2/fB728Y9pcumQ37Q4DObkNonh7V7N4Y2dvYpqIs5Mo6JjbMNLn55x93DdDeuXxPHWodU3T20YyrQ8XXKkbJTVdfrhLr20F/7xptv79hOeHLXTkF51hpoa/bzx1hfB99ncpl3b1Nyeke56gTN4PcFC7Qok297kyd1iPtGN6R0YiT6H8mInA3E3uHLr571g9aWJZTZwljHeknHgU5MSpg5ECoGatKG6w3Zn4qaw/eVNQPhlRqFeuTRJ4o/Pfl0CG4IesxBWdrSDDTCRfFQwFTDpAxglSOrE2FSxpyjoEzHfOKfi5lXDhoI6oBzXrx4cXHDT27ORtZeUcwBxp04t502InDMdfoy6nYEgzLEQVZqW0q5vR5Y4DfhLasMcW5ed6xeTUAGUKazOZ02/YizCGYEvF5Q3l44I29AOaeV64cDurJw0eKwz6JFi4Lusx9lIwBKOSB01/Yz451y+p2U3dqnzsjQp845rpNAx5fPZETdZ333x0POlatfVVnr9JUy/fO2zOyYP5/ZiKoplpEmZ6t88A9Wl5xusD3OeuTatsw+xvh2QN42cEEfsJkPPvTYEHsd+5AcnKtJoAOpMpsug+3L7IS1N/p35dXfK/bYfecB+fxH8eLLC9o+J2U3OqWOThvd9j8D+fhg08qw4zu2bu/HcWBtUrftfRm7wQc6/zv87RCMKs6ojkGkkjgqYErAjkGAGGH+53hlwYLi+M+d3fq0BIveOf75F14q1l9vneIrXzq5eHre/NAhyQCceuJRYZ+4YWIoE6Pi8758SvJ7a+wqaJwLp58+7HrmQOc9M7+YP/+5YvImGwUnhRJgDPeduld4X1ZOOs6ChYtCChTZmxHIbe8GzkmmYMcdtmkrHNtSzj4H+5OFoOPnsHOiR9dfc3Go/2c/f05YnwPIho5z1YxzgwzZF2cPBIBkXs6e/o1sJ8don3LCkcV3rp8dPmMsMY77HzJooDhHaiRi35vRX2P1wQ7zeuLL7bF+QLugQ6ZTFmDW1V1A/gTgdYMcY6vNN6k9ouw19FsGD3u+e+dK40j94sGWYbpYB/QffY3ridyrQA6QsjOUr24gEA/WmmK2ijpYEMH1cdqrrFzPyZiDY60k5fBOEdvBubys7ZqGXc+Cb9uGDDyUDz3nFQ84KQP2ngFSXZDvIZ84ufVpCbnB7Ipjxw7xDTld9sdSZ/rgcSd/qT3Iwo/VDcia8Hr2P2ApAWvQHv7jY6EfcU30ILb9sRxTwRD60Gs6DnQoEIsgGZVUQcVRVJSZ9DIvKobgR48eXez7ob3CyIvPcaeNO0YOGtYMNOc4/uhDgxDj0a0PmLxSEyhBWQdHaQ3rjCmDxHkZPad44cWXi/XWXatYdZXxxdyBQIfzEAzk9vcw5z1po/XDdBXKwH/kk9sOZpCbQmoamhiPGALOhx55fMAT31JMfuuG7Q7nYZsFo7Qho2RvCGjDY044I0T41MUCLHuPzqy1+mrFSeee2q6zgd6hVyssv3z7GhxDCtaP9LlGysDZ8csClLuTdjS87pZBoGwOpYycQ2jK3HnPJh1ODNfLMXbsmDAqRRcsMAYGLwwqPFWDM6YGvR6ZTqYw55XC2x5kaUEJ9oVsAnaDvkpZ/PrE2N7FjsDopW5im80hYQeRAYPEKijbrOt/kg22rMwMXPwIHZtngzkgUI3BId58653tAMxe3/n+7KRNevSxPxcnnHJOMffpJfa4TEd7lTXIgR7S7gykrr38/Hb78p5gOjWL8XrQi/4HyBmdDIHOQL/j9fgTc8OsC/Ad+v7gw48mkxaxn6Yvm63vBR0FOubkScnVKQyNbArnG5bOYR2EwCRHmbExAwLeQNMwGHdTdt+5uCbnpBMZfE8AklN8olPvLMwgmcGJ5/xpKLDAyQzsO7bZMrzMgHEec8JVIGuTtz8mt71TKDsGjCwTQVQse58uzhkM5EJGiHPA4ceeljWIXI9R4fhxY4vLv37OkHOhL7YOaeJqE5Ij8bLOin7QNlV43fHUPX5pYMYzhZ/e7AbkXWV8TXc9LLJMZZvibeiLJx6JpuB6PiMVX8vOSR+gn5117sVBFkAQ5AcvqVGmkQqMOCcBJjqamrahbBY4ofOWweQ45Eib2WfbHz3+x3du116TyPRGziHnSJW1E2ygZf2S6SoGTWXt8eprr7WzsGRaqVPsvExPcebYB99/Gehia80O00apwGqrAZmxnpMyYhPYd8MN/j68Nx/kB5rLQuBgfRS/QyCM7Uz1C75DV6cecFRP+u7S6n9mqy2Dbu3upxlpX9Yh0a6WCef8Kd/EucHajT5UN6vahMaBDsp2/teu6Cpl2gmp6NyCFzCDBHEQU4c6I1k6UgyBAJmkWBaULdeBY2jssszT0uzAlPu8C2e2FdnL1ZSwaurKOgPztVZuFJ86xaNgMwwY14cGRgNlowumJgmY/DwwcsfY1sUHC/xKjUCGzp7SLwtiPbmAO9YbjNdI4A2Kgb6Tpja8wx0J4qAfnfFtAlYmb8DRC58657iFCwfXGpUR6743zpzDp7ptXzKSBMgek0uuDQF9SEFqnkXgsUOIZVEG9Z/981vDWhZb/0JbYquwAU37eBzEdQIZHLKuyPCwg/ctfjXgpCzTksNnSIFyW9nNKcZ9ybJUXgaA3eUHLSlHu+Yaq4U64jhZdI/fMbtEf7Vzml3CxkBK95YW1NvXvSwLS9s3bfMUr2f/M9kbZHBYrwVMJdu1vd1NEfs/BtO9GrxBo0DHhHfJBWcuFQXCIFHZ3XaZEoSUElTKMNF5jPg4H0DQWQzfWVPQUNaRDBqZ9CojfpTGZ4wwXrkOHOOvHZ9nacNiOvvFQCegsLRJHAjTqZmbpaOxPompOzDDgIHcYL21h3RWz6D8Vx+S+UNWuelDjy8P509NXVHunH75jE4caKQMOwaF0X8veObZ+SH4syA756R9YMWUIdMBdfXntf/7WsiC+ExdjjhQBfpbXWfvKXNy3eD7kofrlGU82R+HHwcPtCdr4Jh+9Q4kTs+XwbkZQEz7+D6hXSzQAfshBfYlDmJHGspiWZkjP/2FYBPr6k0nEDBu/rZJ4RrIpCywIqBiUIW8/9//+39hW2oNJe2KHqFP2C27b08v9Sq1TjTOjnjQk7KAGno1gF2W+h9tQ/syoPBTjGbnY9A7MDlY4FR3HWhdagc6FACFowApwdCwde9NUIYpCIbb5jbZVpXRiaHhcwEEhgzDUnfES91puBhbG0N6jsZh/pGOzHnpbH7djaX+ljYmz1QmIIXJuNNAp6zz0gm+fMYJbeXuBaTDy3SOtsutZSAFTwDFOrGqjA56WHdakHrGU7E4y6r7cXgoF4GXlyfb6mR0cKJl07Axy/+foSP0MswO+L6DbjfNHnEebjmBPRkpyFak1n/kyO1P5o9glwDSsgr0ffqITcEAgQ+BaYw5PNoy1QdpJxtc1DXu6BPEGeOmehZjwX7KKXm4jp/CiIkHDTbFbeel/QkqvfwMv16S70wmH3z/u8N/7Ed8k0wyPpZFrrOmsynxIloPviVFWUaCvtwrlqX+R9tY25NVjQOY3GAqzuj0ulyNp67iKNVGy70CpU6l+xBe3HkgndFJp5PjqByDnVskGxMvUjSDT8PZgjyUmsa0wCJ2NJ1E3W8mcm1sWFbDYxmPMuKsDA7pscf/XHzu9OmhnRjZsDB8JMEYrj5xQu1fb+EQUs4m7n+GZXRwQH5qALwhjOUVy6YKZEcwYLrN9chq1FlM7yFQAPpfU3JrdGKQed3pY2PChFWH7E/9brzl9pChQ8Zkswl4bE0ZztaDQ0Q2FqiiX1VBA2D3qoIcO6fBuWPb1VTPzAGBDSy5Di/sFQ7IOyHTMxx+asoYR4e+ldXZgqR4usWgDtjqGKs/dsCCGa5nWeSVVhwbBpgczzWwz72Y+qA9GaDlyAXI+IbUuhnD2zPaIbXWs4plof8Bsy5khbEvrLMEkgmmC7TB67lGZ5l9BISHESujnbhToNBxloZpDAzfZ479l3DvAj+t4SNsU6x3DDiAGZdflx2ZpKiK1C2bZB2ac1tAaEpsBgEHlHNeRnzs0oB6kOn4n7t/Wzk1ZNkQX/cYyyxBqj5VBrLs3GWkDAjt4heWxtc2gwo2Eo2DVqOq3EbcoTuBcqEvsUO0jA73aLrw698MoyHq6vuDOWRG0WX30fGY0YlHYT7LlKuXlYlrcU07h9eVVF2qiNsOG2B1IkCJy2sZMMoZjxqr8PX0eLuD3Py5y2yDZ6T0psn+1r5MX6T2j88Vyz5FVb3Qi3iNJ/I0XTWs3Yy4/1sfjdvI910bxDRtd3SUwMH3lZi4zHFG2PS/jp8A2oLgA9nYrUbqkGvvpdX/wPSIxelxu3MdZkO8HLxfhLite0XPbhgohKimKqAQohdIz974xEG06BwFOkIIIYToW3yg87/CXyGEEEKIPkSBjhBCCCH6FgU6QgghhOhbFOgIIYQQom9RoCOEEEKIvkWBjhBCCCH6FgU6yxjcYIk7THJPjKUBN5yym04JIYQQ/UbH99HxNzayuxLzvJY6dzi0Oynm7sjp4Q6Pqbsis70Xz9by+GtZGbnLrK8T9U7dMdPfaTJ1p0/D7pzKc0Ca3rHT7ihsz9aK71ibo+zOk1bWum0H3NnSnqdD25fdQRSq7pZaByvnZptOqjyPl3/u7rYxtH3TO1RbvXioIw8rPen4w9syoAxNbvxV566z7MPzuTbZeIPWlqH4gLVK3k3kKYQQbzS6vmFgKlDJBR7x7Z7r4G9ZnwoYCBZ4pka8vep2/VXEQRVlTzmwOoFOap+UM8vta6SOSd0BNeVY42DNPtcJkFKyNOfIgzTtlt5sm/OHR4trZv1XVvbmgOve1tyukwoUU1DWEz512EDdLm0f44M7rp8KKn0QFLd9TEq+qUCHp7/75xF5rExN6udvLW/1yAWuXs7+fSfy7KYfCSHE601XgY4ZzT1233mY48K42gMu41GsOYUyR+Idvr8Ox9lzQXyQxRNrq0bBTUg5OwIY/0ySuJxxJoBR/3GfPDgEfSnHEj8Lp44Tio/pNtCJs1QxqQDPnGwZOQeJDHPO32PHg5dx3AbgA0tPqo7e6Rvxtl4GOlZWX25f3liHIBXQpvrMM8/+pfj1PQ8UO27/9kq96YU8hRDijUjHgY459bKpENsnfshZU0cZG2MzxOAflsb1eHCbN9qdknJ2sVNKOSmocmTQy4xO3cwMWHt1E+h4kFMqe5dyoFyz6fN3TCZQp44+EOwm0OnF1FXdjE7c5nUDHSN1jpT+QjfyFEKINyIdBTo555YDp/er/74nmd2pC+eokwmA1BOxm5JzFJ6UQwLK+nerrlzcfc/viiOm7T/syelGL5xIKnjAmY1ERif1ROgqfB1TDrmK+JhUAMU2n4HIBdKUZZNJ6w/UY1RloNNJRsdfk2uNGTOqmLTR+uG8voz+fUomVYGOXctku3jxq40DnSbyFEKINzJdTV1hEKuCj3gBKEa8zjqdOsEKxrzs8ffdUCfQSe3DNrIBTYOYOrL0+MzM67lGxxYuU36CuwcfeiwbPNVte3+9lGNOySmVWbTrMX1o38VBDaS2NcUHIkZZm/qMTtW0k+Ezoz4YItDx50D3dttlSnHfA3PC/pTDgplu5CmEEG9Eul6MDBjdeHrDHGmdX1MZFiSAD5DKHEaObrM6dQId70CAYwi8GMnvuvP2QRZVjt2cul/PUQXXtRF3k4AFygKkFKm25fqWofvZTbeFtqG9tt1682LUqOWLy775neKxx/9cO+Pn8Q680yyQcdW13w9t+NIrC9q6UBXopHSNuu2+65SknE1POYdldHyg1kk/iGWQIg50TEbPv/BScdvtvy52mrJt+P69e+xSXPmt77Xbrxt5CiHEG5GeBDrm4H0Go4mBx2gTEOz4jq1LA4sy6jiHJsSBTvwZhxFnTQwfiHjKnAzHWKCTcrZgI3p//tQ5U2Wz9rBsS1n5c3AMmQNbFE4ZLXBCPj5IfecO24R9oUnAE+sS7Uqg9e7d3llc+I2rWnul8VkIznPzrXcWCxcuDtNVt9x2V/gJ/O/mPBy+9zoZBzq+7ew7C3R8tsq3me1Hva09KDsyoVzIuK68kTPThGV67PX96Xnz2+/n/OGRoKf7ffh9oRzg+2Cn8hRCiDcqPQl0vME3YscKftRbFzIzRxyyXzHj8usa/Sw9XgDdFAtsWFxKEDZpw/Xaztfqxug+NUXlnaV3SPEUA1hGwMswdraA7GxqJHd+K0OdQCd1XFM4h89Y+aDHByt12502o17+WH8u5JcKFpDH/L883z6G+uPkDzt43+LSK2aFOgPtiYzB66oFKSnZ23dNA52/X2fNIN8ykBcBIIEHa7m+9Z//1S4zt0zwASLZKbI0Vm9rPzKHjzz6RJgypP4W6Hz8wA+F8sbn6USeQgjxRsYHOh3dGRnD+cDvHwoG3oMRxch6cAjXX3PxsNd5Xz4l3Pjs8q+fM+y7q2acW+y4/TbhP58JDAgurr38/CH7cQ4cgW33QQ5OnjsMmzOqA7/eImOBI2fa49QTjwpG3wIGoLxw5dXfC/9TkEFgGgd5APed8fX0DtdDJmDqAUe1X7lAAac+dszoxg6JcnVyHOBkDzrixOL4z50d1r9YXYCy4mhNXpBr9/hFmyH3CW9ZpX0s5yIjwWec9emnHFNcfd0NoS2tHAQb/npsJyAZP35c+AwEJ90EvlUQhK615sTWp6LY+73vGlI32hwdR09tG2WiHdZbd62Bug2WdYUVlg914eZ9BMW0Lzq39lqrF+ddODN8Nu69/8Hi/K9dEbJVXmYe1lCRHSJ44dhO5An0c9NF3gshxBuRxoEOxhFDe/wx09ojRgOj+eLLC4Zt7xacJk7ss58/Z4jRL4MgY8GCheFeO3XAsdx735wQVBFg2WiX+u5/yHHBqeAIqBujXka/OJIYZDD757cWU/feozj2xLOK3/y2voNgtO8dJa/YUVNORudkIJqA3H51x90hW9UJyMMCTzAHiBNNlbMJgwHDYNaFcj7+xNxkuxH4EWiNHzd2WJBNAGFZlxQca2XmFQeRPsgs+86mFyknOuCzInUwPUu1HzK8cPrp7V+6cddpgh+yRRzHNan7V848sVh94oSwEJwghfJxPoJvMo60CSxYuKj405+f7kiepmfoJC/es00IId5o1J66wsgy2vR3xQWcvV9bYtMyKTCUGHBb3NnJVBOBh3dEuesRcHQzTWNlhVQ6H3nggHbZabviqxdeFqbb7EaB9qukuL5G3cXIjKJxYmDHsPA0VS/KY1MSZAxMRnYc8sABdhqQeLl3M0UYtx/4qUDqTDlx3Fb3eJG56aJNB6YWAvvpJq4JXs5+GzrcdOqKTI7dv8l0IV6H5dvEyk79qqaR/PkIen74k18U79/rXeE7jqEt41s9UC4CL6bBzjr3a8X6661TzJ//XCg7+tCJPLmOHWNTlEII8UagJ2t0lnVSzk2IZY14oGCUDRjiwMyCQws+LXBJ3b1cCCHeDLwpAh0hhBBCvDnpejGyEEIIIcQbAQU6QgghhOhbFOgIIYQQom9RoCOEEEKIvkWBjhBCCCH6FgU6QgghhOhbFOgIIYQQom9RoCOEEEKIvkWBjhBCCCH6FgU6QgghhOhbFOgIIYQQom9RoCOEEEKIvkWBjhBCCCH6FgU6QgghhOhbFOgIIYQQom9RoCOEEEKIvkWBjhBCCCH6FgU6QgghhOhbFOgIIYQQom9RoCOEEEKIvkWBjhBCCCH6FgU6QgghhOhbFOgIIYQQom9RoCOEEEKIvkWBjhBCCCH6FgU6QgghhOhbFOgIIYQQom9RoCOEEH3I4ldfLc676LLisSeebG0R4s3JcosWv/a31vtlih/Ovjn8f/+eu4b/xgsvvlT863mXFIcf+tFi/XXXbm1dAsfde9+c4oRPTStGrbBCa2v5cRwz86pvtz4VxTZbbVbstsuU4tx/u6S1ZQlrrzmxOPO044qVx69UzLjs2mL2jbe1vimKPXffqTji0P3De4zLVy+YWXzm2GnJcgLXnfvUvPYxdbnnvt8XP5p9S7uOlGO7bbcMZbr+Bz8rjjrswCF1NyjTJZf9Z3HS8YeHfePzvB7Esgfk36T9PHXrFMsi/pwjtx/bc7Lnu9PPvqB4+eVXWlvSjBu3YnHGKceG+lHfi2Z8qzj6iI+1r4Pjmv7vM4v37blLsfUWmyb38Zh+7ffh9xWnnXl+8eRTz7S+WYLXZ85/8aVXF1M/8J5hMi6Tq5Vrqy0mD+uvuePsmLvvfaC1pSimHbRPKK/vU4b1Leoc1+ULJx8d5AG5/t8rfH3m/OGR4rIB3TX5paBvrrXm6sPkYnC+L55z0ZB2qKsv4I9LwfmryliFt3PexnHuu37926T9qmPbrO5e76vw8o/1Kae7Rlymsrbx/Zl2tnqareUaub7ny7LKyitl+x40qXuKurqSsql1SMnby83aMEeqfqlz1rXvTZj37AvFeutMCO8bBTqxUL3S1+Gqa79f7DRl2yEVoYLXffdHxccP/NCQRkApAWFWNaYZuljZ6x7nr2WNQKBz3wNzhtSP83kn5xucczz0x8eKhQsXDzHenrjR/XWbEHdQ63xWl5/eeGvSsLEfWJ1ySmznAup82+2/Lg7a/4Phs5Hb3i2pMkHdjlDmdI2Us8yRMhDIODbiZW2JrOIgKN4/ZahjWVjd6gQ6HNvUwcVloIxxEGrEjtnXr85xo0atMORaptPI1esfeHl7PVhj9QlBHptMWr+44Sc3Z/t5p0Y+hnrGg5e4T8VYvWjnlN6lApWUvqT6BfvFwXrdAMnb7qr+4ANJ9qXtrJ3B26FUkArWBgQN5hh93U23Y9sZ28zYPhkpmXmsjocOBNN2rG8bYB/fn5A5AQ7X4z/Ytblezv75fkSgUycgsvp1g5U31kXffwz2jQMUBhqx/UrpHZjeI4/U9+Dr97s5D2dtAtdda0AXckFzp/hA53+HvzWhcU3pTHEQRKx0MQiaUdbWWw4qCJ3z00cfXFx6+axgpP5u1ZWLH/7kF8Vfn3shCM43AMKho10149zwmevmHN6NN99eTNpo/aBcnzt9etinznE56LRxx6VzVuENg2HX96B8nD+nAEbsVB5/Ym4YpacwRSV49ErDcff/7qFgpHPQTg/8/qHiH3d6R7t9p+69RzFm9Ki2UXjnDtskt8cdpC6pzjnhLauEtkzJ5fjPnd02mpAyjsC2+HiMOwE1hmeP3XceUmbTy1xGB9nE5zPdOPHThwf9jq/pncm99z9Y7H/IceG9x++PUccoGOgQskEWpisQ1/eQT5w8xCFQ1lywm4N2tPNjwE3nTEY5g4cxw8FQbpyY7VPnuBypESKyLGOt1VcrTjr31GH1tet3C+c5/2tXDBudok/o4FnnXpw09jErjh1bnPflU2rboKbk5OAxx+eZuNqEWvpi39N+Xufpk/Rbq5tdA/3HlmCPAJ2+/pqL2/3NM2bMqCGyMUcJXj/tPxy47weGBLnoruHt8C/vuDvUcfJbNwyfY7gWdoEygO/v/nq857xzB4JC9J6XgQw223Tj4sprrg+fKQvbnnl2fuijKeI+3w2UKQbZ/2qg7vi9GLOj6KwFLnUxu0a/8CA3iP3B7rtOCYkA6kqZ6JMEf4MyHx0GZQTaXtapQUCndDV11cTJodiMNiZtuN4Qg2AKFUeTOYFZwBAHLNaZMDzmGMALLsYESSfwDgcFqJvR8edvkuGyTkzDNzF6JnPv+HKkFNmXzzuhK6/+XghyYsWyOsbBW24758RRpYK9HJzLRkpWvzrtjgx9hqMbqgKdMjjWj/SRgQ/e+D4ebcb6XUcf4voik3i06K+dum4ZZWXwuuLPxXYMLIaMsk3Z/u3F9Tf8tDRbZgFnHKTa1JXpgoGsvNOMsw9NdK0T0MlU3/DE/cE+e4458qDi5zf9snKwRbvVzczEg6A6OuzlCSk9qsLrFvYWymySt0UQlzWle/G2uF8Zcb+IMZ3x2RwwW2ODt802nTTs3FwTe+Zte2yL4n7my700Mzq0azzAYVtqKjfuz8hi9OjRxf/c/dts30V2BAv3Dhxr7WmDGxIWV8/6weCOLRgA3nHXb0L9LPsaD9KAYO/gAXuw5hqrFZtsvMEweXZKxxkdD4UpyyzEoBwEObB48avtCtA5UCL+p0gZNmBkbyCo/fd5f+hkvHznR5FTDW2d3RQiNrIoQh0YUfzpyafbyopcckbKB3PIgGkuOkJdKJMZU85Dx7NOjoPJGVE7LjUqXrBgYXHG2RcWryxYMMyQc+4FCxeF6UacmRmJ3PZOec9uOwWjt+bAaJTzvm3yxj1T9piUA/KkRl7WqZ+eN79tnAmOTa9+dtNtxdynnwm6CsgEvfM0zehYOZuOamgLXpTlvAtnFgfs+09ZA2NY/Txm4GN8HThulVVWamff0K937bx9MeUdW4drxtOHpqv0MWD0jC7b6I46Uu8qyIoQNGBwTT/oz16Whs90dYKV58Lpp4f/OeiLthaKzAHyRK/NFiCrt22yUQgCve3y+HbYavNNhuh+7JiAPoI+9oKyrIPHAjmmInYdaGuwkbrZJIiDKaD9yXx5XbRrYkerICONTGkTdIjsjNftWMdNngyAc86bss+6/ifFjgM668sKXOdX/31PKBtOnPfoEnL///62JD9AXxs7ZnQtO2V9wIKy448+tPVN9yBv6oltoi24lmXd6LdVtmTVVcYP0/OU3tk2z/v3elfxkQ/uFdo9fG5dn0AHOPbUE48a4h998AgsbYHvXD87yKeOPOvSKNCxRkJwKNHppxxTu3GJxDFmNII1BJUmitz3Q3uFyJbP3iBhuHIpeJQrjpT32n3n9jog28Z1mP+j3JalobPM/vmt7Wkc9oHYyOJoYqeIshg0EnWj7Ablt+myMp5/4aXioUcerzQuppww67s/LtZaY+jUGQETwUouYEJOpAVTQQ48+PCj2bYkWmcqkBEPsuY/cs1tBzovqekmILMdB85x5r9+rRi34thQF86H8cCJWvv0AtosNmh1QI44FQJJykaZCMgOP/a0MF3ASMSCPguYPbHj8gYBYj2ijDhO5NsUzsVxTM/tsN1W4eVJ9R3gOIJvHDH6kmpHjFw8qj5w373b2VQwo0Z/MoeHPJAP4KDYByNPWWLKpq4o75fPOCHYCgIdAzn2Uk8M6kkZjznhjKyzBAuovKOgjCsN6PO+U/cKNujSK2YNmbpC3t7p9YK5856tFbDE9oDg7DPH/ksxY+a1ycESdUH/rdy0KXVCZ9Fr+mkqgPP20wIP2h698LY91v8Yrv+Xvz4XMgOG6VkqqDLQV7JxXDsF00vxbAKYL8CWcw7kZYHr+HFjw9Q9wR7yoD/EAxvrRwSAqSDSB2VeLt3CAOD2O3/TtsnIByw4YX2VYQGQgRzKZJnDBsv4EgPfjU0cO3ZMa8uS7NInph1Q3HTL7cUWm00eMuVLHEB/gNwUY6c0CnRMsQDFw8gf98mDKzspx5ngvEKhJNahLLKlQczQpRSwDI4lKrVzWuMiSMrIZ+D7i766xCBZcARcm+ACRUa5UWBreOvsYEaK4MmUGoVFqXMG0Y8ueVUFRFyPrAbKSXCx74ffGzqVh4AJVll5fPgfwzlweLbYy2A7aw7KOhkys7a1dofc9m6gY2L41lt3rbbztUwP3/USa7t4BBjjR0A3/PgXxTZbv60ge+N14YLWegjrxBttuO6wTCdtXTVyQ/65fV548eUhWc243GZE0VfLKrAvGZW6YNhxSuho0zUkyIa2Mh3iXPQb6/PmNHwwQvBAcPTB97+77QjM+ZLyxhBaAGDGF0zu9AXLknFcPCDxdOtIaF8LYFKOgDIxdemhfg//8bFig/XXCZ+pBzKN1+nlyGUA421+4AVxQJ3CyxOwITirlcePCwMO03GD/nL1dTeE76xvWh8wfNtWgWzoKy++vCAE3LRNFQQVBCW2Bsd0FXtKXeKBhUEW6PhjBrOuHmTAOXI+xuoft7fZbOqObX7m2c1Df0f/Ie5HDNr+9OenhgR0vQ5uAZlaORYuXBT6lpWZ7xjsMnXn9cL3C+ujNgWNr6xbPmy21xfDgtfX/u9rIaDBHuEvzA9vveXkYoP11h7o63cU/3HlrHZ7ArEFAWUqydEJHU9d0WkJcggkbITWCxAuI0kUDKqcEgYSAR1xyH7FjMuvCykxoklrRPjs588JAktNKcRYatYaAyeLcUKxGU0QofrRK8SL6AzOEY9+m4CCEkSBKV0c6GAABoODca0tQ+E4Xx9Atj6yXpaY/5fnQ5ujT8gT44rsU47XslmddgRr6xRc04JasF9XILuDjjgxjNSnfXyf9rUtUGMRPI7XtrN/akrFSH0XG1/aFkcbG0n0I87MYLAwaJY9qQs6ik7bqJr6l60TwZjTx1h8icHnBZSdc1EOXpyT6ciyNvILYTlm1KjlQx3NtpA5Y3oBZ+bP452672Ocg31zbdsNOL0qGwJkrW2Q5MF+VE1X067xVAr91wZtZmtjHfX2ooyUY58wYdUwoDJHh97afqzfA74rA7nnAk4/aMB+sqaDvvv366wZrocOl0FZrDy+fekT2Iw4C2hOM/5VlPUhnK4F1iniuth78yv4AmR93kWXhyy0ZZrifkQQiX+47JvfGbJQ2vyZl0s3oAssP0C34mAFebP+qE5/QLdoC+xKyuZ67vntnDBDEt4PXMu3AfU69cRPhvfL/5/lg8wok7d3cdCOrbGsYK/kYnQc6CwtEHwqa5Ay8jtuP3Tk75XVpw5N2CbMMjg3zpYGsM6DAtBhUlAuW6hmWNBGR61yfAadMDdKMbhWbkV9Sj7A9TG+PrL2+PJXKXovsc4IfrrK/lOuGN+5lxZWHgJFn15FxmTOcMg2ugP2t2PAnNPkTTYKnxntxW2UwxZ9lqV1zTk2DXRiaPtUxhGdiYN3sjIG7eSneaz/eSOPblet7aOOOHaMIc7lkgvODLYA+aXwgQAsXvxauFmerZ3rBdTNj949NuVqEITjcNBrw8rupw9S1BmQpeA4HLgFQnWhXn6NiTklC9IIJHyAVUZq8MD5sUVgNmebrTcv7r7nd8Xe731XkNGcPyyZ9qiDz/rH/gG7D3G7oxPUywYKtp/H9OiYT/xzqLfPvLA/7WJy4Duy4kdO2z8rG5MtxAMYL5duoU9if8yOYFOw4zOv/Hax3HJFpZ/zcI6qTD2BGr+y83pqQSC6H9cL+aTO6fttHf3qlNp3Rsaxf+f7P2k7eBqJdJh1LAqMgWN7r+GcnNs6SRk48qkHHBX2x5iSHeJFB2R9Cy+yL2xjlBw7GDoQx9qUENfGqdGIjLJSRpPInv3mPfOX0GnJsPj9MHicg/Kj6FamsheOBMOFMuUUIHUtw0YSsVHl+t5JxSyZCusseKCOyL9OWxnsyzw67YUTIXiro0d0boKjOkFCr6CsZG6ATKGVEydGkMOohDR/HAibXPiO9VBMsfLCIDHVlOo7nJNpHUCvuS77j6RB8FDmOn2aupKapn7oJP3K9JighvVc9J9rLz+/rdsem7ryjoepWmAwgkNJ1Xn+/OeKF198OcgJW+T3IytEkENQ6cvPvkd/5ox20NGEXH/j/ATcno98cM9heom+1glEBrNG1bex8NAG2JimxwHl8g6L8qFn9EkC1Zz8jcf/NLf4xa13tj4Ngr6mAolHHv3TsCAXfWAaowzOhX7xokzYc3QJ24ru8b3pIXVJ2Th0Amdbltkwm7t40avFgfvtHZywXRcsUKHN0Tn6ezwt5ollW0Un+mn200/xY8dZr8WPJHwA5CFYYSBhMq0LMiJoox2x1WRcwc5HXza7FUO9GIB4++jLYS/q1EtqBzooOve5sQJRGQToI9SRgkb6ypdODkqXEwACZEoB6AAWxKCQGGsUjnU5088+OTgbOgTC5nyk3cnYkEGxY3H0NP6xJ54VFN6iUTsOQ0wDfX3mNeF7zn/+1y4PowA/rQVmOCh/ldPwlKXJMSQWHKTgOnXS2DEcR3q9atTZK2g3Rh3Mo9NeOBGcSVVHp934FURqdF0XglrfufwLfYidF8YU48boCH0gyGKKgrZgf6ZycebAyBE9MQONfqBbHOedBnVG3zgnAQ/7cgz141qsFWM7RiwOzHnP+fy2XoJDoF0YGeb0lrozn04f8EEM5acu9Kl//eJnw/fsx/5A0ED/Ouvcr4W6+2NpFxvl8R1ysONwKix65PtPD8j73wZG1KyPwRbFDgxdYi0P1zKox+oTJwxZ1FqFOdBU3wbalum3sj6DPpMNqlpvZvulBi9lWGBYlu1LEZeLz9hR7B5tz6CQrAXbUn2StURfm/HN4u1bbjoYsAy0AW1P1nqwfS8OcjE9TQWABvaKfmR9EF/D+YFzoyO84imnf/n4vqFt2B8HWyXjMszmTlztLcEHmMPmmtQHPaR+5v/o71zb/IInli0ysbrxSgUETfWT/ekfTFcjVz7j75h2ZvYBeQHXo9weP/iIZVoGPp8Xtg9fYWX158NWjc8sp4jxx9mrLBjthGXuERAoh60NSKVBUTSb+kFAuZQXDY6DAIxl3LnMkaS+A5wNCh8Hclzf/1ogBcdahFy2DsTj62Wk6se5Nx4YIad+Su6vC/7a1BeD7Ec6dEwcMgGbp26ZewFlzq2nsDa0aRA6o5U/1z51sHr7tHQMekg2wN8zCbz8IKcP7I8BzOknx0Gu/P4u4rSdn//O4eUTn79MlmD6l5obj/UkTsF7rKzx+Y2cHIEypqZN7fqMtFPHga9f2fx+ldxjrD6+zrEs/ZR2jOkpDjTW85Qe5spHOQjuGDAxLWBtYXLmOrl+VIYdxyid9s/ZVK8D/pqm43aLAfBtn7Pncf/i/Kxr8VONqW1QVle+YwCY6o/xMb5shukOwbH9nNxfm/Yhc5vaTkZts9YNAznPP2yzZcja0pZcP7ZX6FG8vKCpfvrz8j5VZoPv8Q+5vmnE9ibV31NlN6iD6YKXp/dNdSjrx3Xo+BEQQgjxRiXnOIVYFpB+9hYFOkIIIYToW3ygU3uNjhBCCCHEGw0FOkIIIYToWxToCCGEEKJvUaAjhBBCiL5FgY4QQggh+hYFOkIIIYToWxToCCGEEKJv6TjQ4e6J/rbX3CmRz/xPwd0SuTNjDPvzxGfuUpmC66Set5PbXgZlpYwcuzSoU0ZfJuTjbxHuX1XnqZKjEcugU5lwnfiZJXWgjnXajfNTn3g/ykl5c9dFz+zuop4q+XBM6ry540xu1j68Dw+RdG1mL3/7fM5H/VP7xXLJ9RmjShYx/topGVXR5Homn1iv2I6cytqhEzshhBA5at8wEINV5zb0Hrs1Os8M8bd2x5hxu2xuHc6TTv13GDm7pTVG0d963uA25TwjxG7BbuRuN23lwFjGdSi7fXsdMLzxbcS5xTbPYIq3Q/x4BY63W6FT7tStzf0+ZbfD9nJNPXYAkG+dW3FXyYUy8Yywow47MHmtXNuV4W81Tl24bX58q3LKX3are3PgnCfVNh5rC8rq70ha5zieKWTHgMmCW+H7ctdtu9R+ORkY9El7JlSuvdF5/7gCr3+cP37sCOQe8eD7Zh1SdWJbmd7EdbbPPNMt9XgIIYRI0ZM7I8dGFoNa59kXgCHliacYwSOm7V/MmHlt8fGPfaj4zvWzhzz3xUZ2ODZ7TpM5UJ4CzJN6U4ae47bYbHJx0y23F7vtMqW4467fFLvuvH14thUP37P9KVdVYFAXb8Cfnjd/mIHPOQlv2HNOPOcEU04qhQWAPIQtrq/Js+y5T02CXHtWDvjggXP4Z4uZA+ZhdFyX+gBPI04FSDhojksFIOgTuhCX0Tt1rpdzlHZtHr4X75M7zgdHkAt06gYHnQY68fPLcqTa2erty2bb6J9lwV4K9OywQz5aTL9gZvI4BgDIItZb/0wbrs/3tKnpAmVG9gp0hBB16SjQiUeGdcCwVY3Eco4kNuLeAHuHkDL2qUAHJm20fvhvhrbsoaBNoXw4W+pQJSd7qFpc96aBTpkTrEvdQCcOKFPbUqN1tuEwJ224XtiXQMAegslTjbn2Q4883s4e+QDC9MG3Z1xO0wtz1vFnI6dnbCeTxlOpLUiBsqwXjvnUkz4ZnoJfFuik2g1MJnEw4B0+xG2MHOo+GC8+V9NAJ5ZfTjebYGVgkML5kb0NjtAF2h3GjhkdAqLFixcXN/zk5myw1cv+K4ToLzoOdHAUlnkpm5JgNAYYaYyjH2kzJXLwgFO54urvZQ0YxzO6bhpYmeG7cuDccaBjjhND3utAxwy4yYRMAsGXjeRxEvbeB2aUxT8Jt8yRVTnBKrhup1OPtH0c1KSuHwc67OOf7E39eLLw1L33KK6/4aft7T4I4ZH/qUDn0cefLMatOHZYe3ENMMdsn+voD/Xbf5/3h2AE4sxCKttn9SYwymV0rM7Iw2TupwJzQWLTYDb3vT8XWbxU5g/d32TS+gMBxqghQY3JL96WOofHZ898UEVdvnrBzOIzx04L7Yw8LND3+mJZ0MmbbFQsWrQofO/7jdcRH6gKIUSKrqauUiNDT8pQgt+eMupG7nij7FgjDhhwMlttvklx2+2/DkGUnZtzMbIeP27skCCiKZTZnJutsyGYyQUttoYHBzB27JjiyGn7twMdGzVzTnNiqTr770ea2DGbDvhMDHjH5YMDnBRBh582NNkf98mDh+gR504FOsiFz/H0qHeGgFxwynFgaFCW1BTrVdd+v9hpyrZDnKjVm2D5vgfmtNsMp+0DMvCBDteP9cy3X1zmHFVtzPcQnycXSMXyTh0fbzN5+kAmxuutffb18/pCP1y4cHEo25w/PNIO+imzDQ6oM5lg304KdIQQTehJoFOV0YmNrzegZnTLMjrsV+dahs/OYGhzGZ1eY45zwYKFwZH5QMeMvTf8ZtDZZ/Hi17JlQ15VTq6TQMccVxXescWOk3OQ7fjI1D2Ls6d/o9h36l7tdvWBjm+/nKNENr/673uGTF2l2tyO5xoWbLC/OVmw7ElK/4xUoEP95j71TPuYuL7WZl7WlDMV6JBN/LtVVy7+9OTTbTn4tirT6aZZO6t7LNe4/EAgRx1eemVBW9acH7ys/Da7PlRNmVn7cO37f/dQ8ac/P9WekqK+NjCy9jv6yH8etiYPcnVWoCOEaEJPFiPXBcMXT5kwcp4//7nKjI53JmbcMJRxdiN2sLlA52c33TbMYOdG/nWhvGPGjC5uv/M3wbDXDXTM6VE/WyhdNU3npz/8OZuQcySGOWLvgMxxUj+CBH7xZjLDAZGt2WzTSSHjYe3AaJ12X2uNicG55oJa2GTjDcL/VxYsGLL2xdo8dui+vQks/HemP7lFzR7kecQh+xUzLr+uXT4LmCm/LZ5m+ge8rFOBzqH//JEgH2Rn7Z9a4JwipddlbVXm+L2O2eebb70zZFKYrrrltrtCoPi7OQ+H7329TH6sN7NzxPKPSX1PfRjMrDFxQrHBemsPqQP70w9Tfc/XmfdlQXlZQCuEeHPTVaBjRqqK2AiZAWWbGcE6GR0f6JhTJSDAIZnjxZnZvD9QxlygEzvMqmmwOvgsAYGOXTvnZK2sqUAOkBXTbGSJPvRPexTvGgiEPCYH+8VSE7wjSZELdMqyJXYMTtRnMqBKxhZEWfYhJZOUIzXi77yepfBtlWvzKh3HQfuADAh0Dtx37+LSK2aFcz//wkshcwGbv21SVt4GcvLBOpS1FWWE1Hf+OKvvYQfvG8pGu4IFYpDrp0aVPCCVsaNOPvtmWP+3TKAnV2fqoYyOEKIuPtDp6IaBGLXrr7k4+8IZ5sCQ3X3P/cVaq69WXP71c0qPxeAff/ShwbBxnDl3MgAY7FO/eH5x4H57h+Niw3juv10SAg3+33v/g62t1eBoudGZGfy6kOU45BMnB4ewaPHiEKSc9+VTQtkIbKgX75FdGXZdsl44yIULFw0rC44ClqbBJ7C89vLzkwEE7XTqiUcV22y9eWvL0oG2mv+X51ufhoNz5AZ5BFNVIGO7aR/rQ0wfaS+yUrysPS+cfnoxfqVxIUNy/OfODi/es2B6wltWCQEUbbPnu3culluuCOergrJyjjoQeLCou+y8FsSgK/SV8ePHhc9AQJIKkMoo6/Podwz1Oe/CmUGHkY+1AW1GgMggh4X4psvdwLntpot12loI8eaio0CH0b0ZltQrlW5mlMZ2/jdxiOaAAAdjo3AcyfSzTw5GM76jLJhhxjmzANLwZccAM13i4QaGBCn8jL0JLLS1wI3ghEXGLFitiwVYyMcHE/be7khLPZlS2WP3nTvOQhGMmQzi1/6HHFc63dMJc+c9G4LA1PXiaU2wAML2yWUTrK1ycmD7V750csgY5RwgjpY7FwNtZzpmQRKZj4u+enpb1/ydgceMGdUOfsjiXDPrv0J2CdBbHPnf/laEAD3WzxiuQ5Bk2ZwUViaCO+qVqjdlY/2UQVATZ1o89EnfHnXWb3m4XhxsImvam0EJARV9kTZ48OFHi8OPPS3UE5mR0SGz002ww/U5N9ew61j7CCEEjMgaHctAmJPG8PjpCAybn87AMHqHh8ECtsVTJfGxgAPAmUDZept4miN1LrbFUwhNoCxxip3rjh49uvifu38bpt2sTiYXW6Pjp6KQoU/hUy6mAd63167F3b95YMhC0ybE542hTLk1OqlrmuxtfVGd9vLE5451BXy7UX7vjG0akOvYdCj6Ezt3f5xfuB5TpUuU19/40KCMwM/OkZ9fx2TX9tOrcT2q1qtY/eJfqQHX9sFgqn6pduX84NsrtS3uN+DL78uek0+u/Ox//teuGLJAmjpzvVQQ7LE1a7SZ7ZtqeyHEm4+luhj5jUbK0AtRBo7Wr9EiwxEHGjh61ogx3eQDACGEEL1HgY4QQggh+pauFyMLIYQQQrwRUKAjhBBCiL5FgY4QQggh+hYFOkIIIYToWxToCCGEEKJvUaAjhBBCiL5FgY4QQggh+hYFOkIIIYToWxToCCGEEKJvUaAjhBBCiL5FgY4QQggh+pSi+P8BmQdwpJjU4I8AAAAASUVORK5CYII=;" vertex="1" parent="1">
          <mxGeometry x="294.27" y="700" width="321.47" height="218.82" as="geometry" />
        </mxCell>
        <mxCell id="aiHj5P8NERkWDrNoBT0p-73" value="" style="shape=image;verticalLabelPosition=bottom;labelBackgroundColor=default;verticalAlign=top;aspect=fixed;imageAspect=0;image=data:image/png,iVBORw0KGgoAAAANSUhEUgAAAjYAAAJCCAYAAADTBY3iAAAAAXNSR0IArs4c6QAAAARnQU1BAACxjwv8YQUAAAAJcEhZcwAADsMAAA7DAcdvqGQAAP+lSURBVHhe7P0JuF1Vla+Nr7pVV0JCpNEQEKUnEqQVCiUIBYLSKWUQAhilLRrpLBAREeRGEbiRxqJToEKnSBGRWKiAIsIfFCivCIoKgtIoETAKCCQEv/t99T/vzPltxhlnzrXX3mefJGzH+zznOeesvZo5xxxzjDHHnHvNv3t54V//uwqCIAiCIOgD/sfg7yAIgiAIgtc8EdgEQRAEQdA3RGATBEEQBEHfEIFNEARBEAR9QwQ2QRAEQRD0DRHYBEEQBEHQN0RgEwRBEARB3xCBTRAEQRAEfUMENkEQBEEQ9A0R2ARBEARB0DdEYBMEQRAEQd8QgU0QBEEQBH3DqGyC+fxfXqiu/cZ3qv2n71GNWWaZ6r6f/6r67JkXDH46nPHjl6tmnHRMtdYab07/c/3/PueS6tCD9mkdW/jKK9VZ/zarmvDGFavDDto3HQuCIAiCILB0FNg89sST1Z13/aTab98PDB5ZxLdvvq1a7U0Tq8023mDwyKJj9//8wer4jx2cghsLn8H7dt4+/fYQCP34Jz8bEsBcfNk11fwFL1cLFiysdtt5uyHPGim58sNV13yz2mbKFq3gKgiCIAiCpZtGU1FkUI4+fkYKbMYuOyYFGQQDBCAcHzt22eq551+oPnXqWekcIGghu/Lgr3+bzuOaHNz7tJkXpd9AZuY7N99ebbnFJul/4Np5f3quOuKQ6dX0vXevZl359dZzRkKp/NSNMr1hpRXS/xxX+YIgCIIgWHr5+5NPPuV/Df5dZMyYZapd37td9b1b76zmfOuW6kPTdq/+aestq1UnTqimvOPt1UWXfrV6aCCAOeXEo9IxscVmG6X/+bn3vl9UTz/zp2rSumtVD//m8fT56m95U/XFC6+sNt14crXxhuunYw/86uHqO9+9vdrlPdtWf/d3VfWJk8+sVp7whuq4ow6q/uEf/qFacYXXV5PXX7c69fTzqv/5P/8h3U8QqBxx7KnVW9dba0g5SpTKzz3f8uZVqwsu+Wq1YMHL1UmfOLxabty4wauCIAiCIFhaabx4mEwKU0FMzcz9wzODR6uU6Zi48oT0w9+cR7Zj6oeOSNkQZTr2/uBuaWrKZj7I5hDUaEpK2RogU3LMCadVB+2317A1NUwNXXLe59L9SpmgpvjyC8o5aZ01098LF76SfgdBEARBsHTTeI0N2RACmndttXl1wcVfrY467MPVCsu/vrUOhUDArovhf3uepbTGhuMEK/PnL2gtHNaiYa2r4f+LLr26mvr+9/Zk7Uuu/DzjyquvT8HYD+++N51XWg8UBEEQBMHSw6h8KwoU2BCQnHvhFdWLL740+EmezTfdsFp3nTWqd/7jptXFs65ZbIFNEARBEAT9w6gHNp1kbIDr7Fe9fSATgU0QBEEQBCWW+hf0sb6Fr3izaDgIgiAIgqCOxRLYXPfNm1MmphtY48LXxn3WJwfrgFi0zO8gCIIgCP72GNXA5pk/zqsO/OiJ6eviTQITD9+MuvmWO6r37rDN4JEgCIIgCIIyoxbY6AV6l3/pzK6+UfTKX/9aXX3tDdXO79m28VoaFhfP+dpFPX0rcRAEQRAErx1GbfFwEARBEATB4mapXzwcBEEQBEHQlAhsgiAIgiDoGyKwCYIgCIKgb4jAJgiCIAiCviECmyAIgiAI+oYIbIIgCIIg6BsisAmCIAiCoG+IwCYIuoStO06beVHamNVz8WXXxNYeQRAES4CuXtCH0d5yi02GvOE3d0z4HbtF6bgFp3HWv82qdtt5u67eKEy5VnvTKl29/Zi3J5993qzq48cc3PbtxyN5DvCsSy77j+qTxx3a2n6itAt67lzAkX7n5tur4z92cDVmmWUGjw7Hn1e3EztQjrl/eLo67KB9B48sol378ZzLrvp69blTjh1WztzxOproQakeJXlBbrf4ut3ngfL/+Cc/S/qOHHfYbkp16+13pS1EnvzDM4NnDeXNb5pYrK90Z8ftp9TWsaRj7dqh1Dcll8MO3rf66n/85zC5qZ60O8845XPnZus3fvxy1YyTjkkb1ZbOgc033XCIbkrO79pq89rrPHqerSt1BK+jQuXfcINJtee0s0fC9yG1DXWpu0epL9Xhr+FZN3//zvS3Zecdt6m9b10/AD4/9fTzqhdffGnwSF7W4HUxd22Jur7Qru/l4NnWTrfTBY/KfuyRB9T6mFLbNdEbL3uvPyVsvzt4v71q5UL5Zg3YVSF98M8G336wJOo3WvzD4O9a1PBWaXMdyx6T8l77je9U66271uDRoQ0ljvvU6YN/VcMa78Ff/zb9nvzWddLvTuBZjz8xd9T3mqIR5/3puWr/6XtkZWVpZ3wscnRe2X754CPVmmusNsww4IRwil6RKN9nz7xg8L9X2ffAYwf/WgT7egnrrH50971JqQHlv//nDyaF9djOQsCAYtPO9r44NwUA9rjVF6tHKgdtee/9v0g/whtdZJ/bMJXPtx5wOAQ9vqPxN0FN0wAWOIe6Pff8oo1d7/7xT4cFI8jCBxOU75gTThtiQGmbX/zq4WrvD+6WyjJ9792rOd/6XtL3OoNgDclIWWH58an8yL5ON5cbN64654yThshIRg+Q+/lnnZr+LjmXnPG019UhPZ60zprVqqtMyNoS6c4J/3poCjalLyVn2qkTBOm27WvoPfXi/tM+uGuyAT4g4Dr6Dtd1AvdFlwRlteWVHOw5OThv3Lixae++HJT1qotnDv43tG3b4a8Frq8bMPUCZOq33sHe05/pI1b+OXT9qhMndDzYki7Td9vxvVvvzNpsi2wGZbZ6/ZkTj2rZCx+8CPlN+U6VDbgfOontQSfxH2D9bI7Rql9d8NgrGgU2XmlzBcwdQ2lw+DI2BDA4ti98/sRkENRxSpEgn6NsNLB3wh7uu9ceO1ef/8KXhwUVNnDy1I0emkAZMXJ03u/fdlcyXJec97lUP+o/kmwT9zj5hCOSbFEyBToy1pIrik/5f/Rf9w0JCkAKzx5awkfTdQaI5z70yKMtGXI/nO+M089PI31gXy+mZGw9r7z6+hRkUDaN+iWPnXbcdsARTBxSBoucEpkQggbpgR3xUy5kjYPzgRsyoF0nrjxhSCAE0iPb7ugeQc2dd/0k/U1nxlGV4Brq9shvHquefmZeNX65cek62snK3/6tdjhv5snJaCEDRvfSbxvkAWWBTvQTYz73qeHGUCBHHwiAfTY6dNiBe1cXX35tqx9RD4K/puBQ5i94uTrikOlDArAmdSgh2dqBD3pw0MD/0i+Qbk9+69pJh3JyEJTtgV8+nNq+E9oNtngewSsO0+o31/ngvAQDIOyp9Fq65LNealP0qZ2Nmeva3ZOzAwRCHN/vsBOyg7XZc24aFsCNhHZ9z4OdAWyjoCwEOl7+OWSnZGfbBfe0A+XjeU2D1CZ6hj1jgPNP27wjyZ5AX/bSY/sAcG0Jnm0H2tYXUhc/0F4c9VscjGivKCrE6BIDllMefT592u7VFy+8YlgAQ4cpBTZq1E03nlwbWZbO6yao8Pei/BrJU9ZzB+rgO/FV13yz2mbKFimz4etSVwYaOhd5e6zicT8/bUJn3HjDycmI++dI4TtN9QPPJVJvF3jmPse5WGejcrxt8nrD0pX2PLD1UWADkwazfpJZzsDngjNktnDhK+mY/bsOykDnrtM7oPylUR73qBudUF61iTVUOZlwzAZuBDs4dPTROhvJBGPNs8Fe52WGftcFHbYspbb2x3PtwH0UxBL847y4p/SiTs6qe2lKBLgP92SkrvqQlajr/+qbTYIMUICk63CGvo1mXfn16oWX5mfbBL2jvWk3Wx4r4xx1n9N+clp1AZxAJ3EudYGyfR5/lwYfTfpIqU9auI+CtjpymW7a/bvfv6NYH+4NJdnyOQNv1U9tm/Ml2F0YN3bZVO+FCxdWN9x0WzbYA9vXcuWwsqW/5tpF5bE6nOszOubtPDKjT8hHg/Uf6jfMNCyJ+o0mHQU2TZVQncwKXMaPlFXdPTBgn/7E4dXXr795mPHIGVeeQWQpIYvccTVkSdG9obeBDc/zHcEaFvDGJaeYJXJOxpdXHcwHNo8+/mTKGuRkAJL//h/eo7puzs21xhwnCzzXjhiBtjlgoBNcMaCoJYXn+m4CKeuUfWBjO2IpsFFdwcqMDqbgA6xzUfs0dW5A/cg2WbnA9GnvrzUE3jGrvJS1rj9Yg05bY3QIENG75cePa9XL9gvOs0GV/Z+/mz7POjn6XqlNbd1sG3msbnFPyaDkHPVMMm9et6HuWQw2FixYOKxtVVbskDe2Ofvi0TORE23hn18KMNR2vq5Wxh7b3ymv2lB6+/BvH091IWtp/8+V3ep6XRCk87BZyvAwes/ZnVx9LE0CGw/3tboLHAMrI46RXSzVV3Ceb2fVEdArMmmyEQqIre+RbZ68/rrVyy+/nI7b+tfpDe2LrfCBGcdnf+PG9PdL8+cPKV9Jr7F5609aa6CMY4qBDRknAhUNIAhsrI/yKPhZnPVbHDSairLY0SUN7jM2UkLQeQgGOJeI0E6LgBccQvFBTQmeYRsZKNfNt9yRAhJvDOvAeLAWo9QAZDAwtHQEOh5lZYqO8mKcSsZiJKBc7dhnz91SWeiQ1oig2FzP/2fMOD51aCgZtpyjoa3scWS72iorV5+cefIwOek8jufWTOSCtxwzv7hoXh8jjCMCpmbQPekO9zr0mFOScz/5k0dWD//msWR4NX8MnEPnsp2KaVAZNWRACtpjO7VFus11lIP/baC75wd2SZ83QffmHrZPSZfqdJ+2xqAjSw9tTJk8v330ieq2O+5Jf6v9fXvQfuiMwLERBPFz9OH7tdbY2Oyk/hbUw8tNPP3Mn6qf3PfA4H/N4JlMfeb6sX0WcrPZBTkv6sqUEX9rgMG53YwgkRd2haAJ7PMlS9rGw2dMza27zhrFKR0fbFJuynb/Aw+1piU5B+fGGjWmnqzu8rdvTws2i+toxzpbheyQNwM6OHj/vdKx7bd9Z3FqB3n6QN/ip1nBBsPqbwRQOd0F5PepU89KdaOetB/TuqqnDchs3ehH6DV2m/bmWspq+5yFumla6ujjZ6Rr8E+sH1lpxeWruQOOn/8pZ7u1J5xHwITTz8EUP+156klHD5Gp9IqyEpTYNXmysTlY84ecwOrlphutX5uxWdz1Wxx0HNh0ihqHzkzQkFMmD42ohqTT2BG34L65aTAUnA64ysQJ1dhlxyTl9KNMa0SskWehcV1j0okwKCoP/9O4GAqi5KbUGYKcESB6pyPS8RmF+jVDjHAoCwbp5M+e28owAdkFT50R4jntmPv0H7PlBF0vQ5PLhvhrffbFr7GhIx531EHpM0H9tO6LtrMOAGhjpmz+cfNN0qiR+wNlmvLOt6c2yy3Q5V7MFzOKsShgQNZAu2NcySYIjKF3UEJ6Jrm0m2IdCWPHjmkZfHRNDhEZkBHz7W/bAyNl9dOOxN494NyAugueQ9CcQw5L9Vxl4hvT715hbYvQGip0yMrBQjs0Wazsod44egI+GwACAR7gXPwz0VX0l/LKyUjvkHVdICsdR5Y+k+HhOaW24BnYrinv2Ky6f+CZlEU2wsPxjd42Kem3zqGvEDhqUGfhfz9YBeTVLmNDOWR3ma6bP39B9tzV37xqsn2cn2s/MhSQW/eE/vEjX3L5l84slkfQHjxL9lQBEnBtbkDk4Xpkjg1G/oLjTCN7u+fBnr1+uXHZJRA5kDfXyA7Sd7Fj2Ea7RtXaSc5Bnvws7vqNJo0CG++IfZrMCgowpETk++71vurGAWF99tMfqy6edU1KoSO8XJoNcNg2kscJ0JkQHsK2BpXPWXeBobZGgf9xpgh1+eXHD+kAilC9EVEwxMrxdgqvRVVaZKZv8cihWUdQImcIUIbSaGuRg1gUoGCs7TdT+ExwjE5o51QtKFgThRW5dme02i5jI3xZc3XkGOVtRy5o0MJa7i8H4NsYnVGWjWdiON++yQYtJ+0ha4dRh6M+PmNIkGj54d33poCZHwIVBU65kaBto6eenpfKQNpYIFffJzrRJ4Ec6YvovhZV039oM0bcMjDtMjbSTzldQI42S0N62QbYPPPoj36kOv9LXxkWzKpu1KVJBrIptt1VVxlS+rTWZ+VQgJkLvP3AQXqGXCC3CBf5MeolY5jTl15SsqGlhebIhiCF4AHZ1GVfLH95cX4rUOM8Bk7ol+QwUmR3lSVHHydMWCnprofpFwYDtLEfkKCb+uYmx70uCMrdSUBLO15wdv78XBtYvZEd4JmUR3Ad/uOjB38oDd5KcM2f/vxsGqBvt82WrSURdajfAs8R7TI2OUa7fqNNo8DGCkyglAiJSHqdtddI5+TYZSAosQGJjL53Prk5PKJwpqS8oxAcx2kgTP6WgDHcKHZTcHo8p1QHCx2FdCeR/xO//0MyGKMZmSLnUno2B/Lz2Q2RCw5yWKWl3dVJOIbxYZTcLmPjoY3POX9WCgQ0iuM3jgWH10R2csggp5xDgabOJzBmBMHoh29LeMMv0B/aU87hrNMXTVthUAlENJrk2UxJsK7moYcfSwGcRowYg5zTUaYn91V9GwxRhroR/LPP/SWl5N+zw7sGj7yKMlty2uip0uqWdhmbHPpquzITua9+gw2cea6f0pMu9QqeQf8gu0f7UG8cMOVkhK/yetA3H+SX7FBTaGPsArpC++p+OOI5375l8KzhA0Hw/dIO8ATtpuBFMqX+dZkcykCZWFcmneNcdAydtW0j1A9YT2cDIMrSjVxKaHrsXVt9OP3PoILBaskWIFcCGAYHthwMLgmOdIz6EXz6QW8vQW6SXVO9Qffxe+idDQaE7rPvXu9P/uuQA6ZVl14xO/lXfpBP04EBz+FcyiN/gF2w5NpejGb9uu1fndDVVBQFZBSsRZh8M4hO07SwCAwh0ClLiodgtOK9DqaAMGZkNCgLPzmh1qHrmsK5ivz1G6XhK8/QyyCH9Cydv1NKAZENDnLUOR4+Y7V8k4wN9VeH4jhtib6w5iU53MEUr3cu4NfY4LDr4P42mPBZDmXZFhnRVzMlFnRGKV/Vyzo/ghnAUfI3UxJAYHPQR/YccBI/SvPbNkgR6DnQJpSD+ncK5cP5yeHVUZfSh3YZmxwEZHoHCvfvljpj2imUFx2nv+EkKR8B82VfuS4NuBisUC9v0EcLAhimJsnmUU8Fg7vvtkO134empr89tGspkKV+dpTcru96ZKd5KaG/juwNn4FtE65RIER97rrnp9npp17APWU/qauyShbZMYI32tJPtSE/PvdLAejz+AU+H42yd0M73Ze+vPDii8lGMOMgqAM/yKkp2Gp8ks9K+sC6U70q0bR+pcFGL+kosFFHAZvynLbHLkmJcBz2eB11QuA5OMDjjj647b1wPozQSMP7FOXiAOdABgOazIM2gc5oR9U4ahSPTl5aY+MpOTc/Ws/hsy44O5wq5WDO9t77fjn4ST10QgIO7ocBU3CAjJQNyemMOhr1JSsofNkZvQK6JH3imXLOXM8z6NiL6jQ5ZSd8ho3Ao903LHDsTL+AjADtBDh7Fg5zn7qMjUao/hm5azSCt1O6dm0AfQRHDhyzBr/XBoR2430lrGVBnowkm2Lr5gPOdlCPF19aJPMctt0FbUGgqZHh4kS2CHugqeN2Ly2rw9ZPwXFTZJemTd1lmIyAMtHvsOcE2/QHIItKhlM6joMl8OrG8dF+2KA61EdLvqNuYJf0csBPEJgje283oe6bYksb6tNbvH2jVB9kkyNnL6zN5jqCPTI2duAoe6qpqMWN6kcfHW0afd1bClOawxUKfJhusOdyPJeCsopYN51Dp5ahbzLtw31J5TFFkEv7WnydZBC0ILHOGHOuHfFaR1oil2IGf68cOcVENkpFK5AQnToS0IhAxtA/05fTGxOCEuCYz17k6iidgTrdsvWEkrwU2HBurgxqI4zl8R87ZODvS7Ov2ef+Vg/Aj2ykZ9JHyuinXkDvOsoZk9I1TbD9wkNZkYsPuq0cJUOmtc7/8lXpPORFVkv9WNNtOLicjgn6keTJdZDrq9ZG5PpCpzps20ltTbvYLIjaXHXwOtsEW1bpWJ1dUJnajYZ9WUuo3Zhiyclf0A5kPS65YnZjh869lS0hgC+VxepbyRfY9oW69tO5BFJW/71e5+6R65+585AvMqvrX5xDlqrO/oC3LXVYfcm1cclXWH3xeguUAWx9dIxgWuXKtY+35Z7FXb/RZEQv6AuCv2Xo0KXABiMhB7S4OnMQBEEQgU0QBEEQBH3E/xj8HQRBEARB8JonApsgCIIgCPqGCGyCIAiCIOgbIrAJgiAIgqBviMAmCIIgCIK+IQKbIAiCIAj6hghsgiAIgqBP4MWHbKXA779VOnqPjd5U6t/26l9UZuGzpm/5LL3NUtjnsx+LXgVe9xbiptg3OubeamnRWxfZhbbJK6r1RsfSGziF3i7Ky9xQSv+25twbHi259mn6bI/KAu22zW9Xrhx666j2G6Oc3bSnfSmeyL2x04KctAM6G+XZt1rn3lZd94I9nq/9iurKnWvPTml6j9JbPz25N7WW9KVOj+rK1U7/rM7X9TtrG1Q/Nif1b5TtVN95vt34dHGg/qL9mvybd0tQN6g7t8k5FtpOm9Kq/rZP2fax8Jy6NyB72r1BultGs/+18wPC183bnzofaN/O3YmvbPcGftqnzp4it9xby7F1YO25tZe6V87X5I7lyPmLptc2paO9onI7EwOFpBFzAqRh/c7gOUF1yhabbZR+o0DtlLoJeo28NtO86uKZqQFAnRpl8HsKEdR00yDIAAe6+67vTrvTsombXmUtR0ontPdGzhgcj+S5607DN1fEyCtA6YZVJ66c6ttLpQPqbDfnQ/5slJnbcE/1mz5t97TbrYwwxurxJ+am/ass7P5LgMLeYU1A3txPOsnmnbR9KVgHGS82WsTBNtFD9kkZyf5NlHHaB3cdsuNyCeqf231bKAAQkjGbR4qc82r3Sn2wTqRTNt1o/WF2Qc5XsCu1gpqSM7BG22+rIeQU/+ldWyZ9HA3HW4LnsmcOe6hRDuqBvqJHPiDtNigoyUbovsgS+aJT9B1sHM5cbW9lKYeKPNsFTzbAHokNKkH9KOvrlxtX3Knc0k3/K234KygDdrkO7Jn3gSV8W6uf2mM8E9sk6tp53wOHbiKtvsD9CKwV1KKLtBVYf0e75exgKRZYWmiUsSmNAOUQclGt33OmKTQsjqpJpGxpl+1pgg+4Hnrk0erCi7/SKn9p5I7yiXajGJWTjBMQSNm9THLOBAig/s+9PxsmSxthIzcbgFCfkhzZrA8H2Qm5vX0g1/nq4Hzt3G7biw6a27OF48gIWSnSz3VmGV2bhRHI/eRPHlldevnslh5zjN2Y9T/X7zl154Fn/Lza6G2T2mYhrT5wrC6zVdcWHvoO8syNqOpQ/aFdJtG3WU6etn51bUzgQT8H2o66SnY4nNx1uREj+1L97smnioENBph7SwdyZWqqizzfZvqaXtcJ3LOTrIYNwORUrL3hfpBz4Dl55jIJJb3g+o03nFzdevurQaOO+3I0Qfq+/PhxI7bLObj/2efNqj5+zCJ9198lfe+0/1F/rmk3oKPfSB9zfrJkM3PYe4mcXnKetU3+/xLS+Tq/THkJFOc+NfwzyUUDF/aYu2LA1raTqfebuXo2kXUnNA5sfIewHcGn/NUBEWAu/UclbAAh2hmXXle+hAx1KSDrRFnB18vK83u33pkMB/WxMvHKKqXMGTXu7w0oTm79SWsNROJjWtdYB9FOfmrDps/LIUdr25h61QUA3NunULWJJKMEZdR855BObbXl25NO2ut9va1sCYKs/Ln+5794MB3LdT6M49bv2Cwd920kwwa5evv7NYW2z6XbSzqRM7A5rOPjXtSZADLXB70OC8mAXZzJJlHH+Qtert18VoZO5ZT9kHxzhpIg9JAD96nOGnBg+jw3mCmVU6hvawrU4ttzpJT6UMn+WdQelJG/S0Gul0HpmZCz4+2w5WiC1T0fWPUK6cmxRx7QKhdtV7eRZTf9r04fLb6edTpWB2Wsy7BZrG1tqrfeXlA/+VNlbKwvL+lpzkbLxrKbuuyjpZO6Qa5vd0JHU1Geb377lmr8QHRXSvlTqDNmHJ8qffTxM1KgQFBwwPQ90uf3/ezBauYXL0l/eyeoDuLn0ec+/ceU7dCxpo1ahxU6RpdOv9y4ca1UvjWWMg7gr0Mh6nZyFpST6Q6QAnDfBQsWpjpTFwvyY8rlgV8+PCSgkMwoG89H3lLU555/IXXKSeusWe24/ZT0TI4xRTHSbeORvW2TnDGV8ls4Rvkl4xy6x6HHnNIKfvbb9wPpWJ1M4Zk//rn60qyvJYNXpwsYOAwvskYelrl/eCp1fhy8kC7CJed9rnVvGQCCI9qR4yefcEQyCJR/2tRdWvVZlHEaPo3YBO6N7Gy6PSdzSydTUegXgRPnqt4lo24dLAYdVn/Lm6oHH/pN0j9lDS//0pnpfz3HGzpg2pF2wJiKuqkopsmYIuZ/DZjQZRZK+iBO5bSDEOkf1BlZq3uLgzoZAcf58Y5Jtq/b/myDEGwJ2crTz/pybZuDzSx50FHuJ3vYa2RzuT9+h7aXjyCQOOaE07Jt123/62Yqir6jQbGVcQkrTx8k5XRD7T4SbLB84EdPTL+BvugDaQ1SZLfJtpPptlBnbA7yAvqolRm6oOk4yczWiet7mbQYUWCzz567pYrScDYLQENYJeI4c8mWd2/7zvS7NPcoJ4GQ+bFCmD3npmrdddaorptzc4oQcWQjQULnOeKl+fOr4z51+uB/i7DGklFP7jqCmnajsRycS5BC0MQ8N9AZNEdqDQVKQOqV6aSFC1/JrjNBsXbcbkpyONyPdiLjMW7ssulZdR0OI7fDwLVkLkrYDufb2zLj9PNbay1uvuWOYc4W2VljDfxNZgbH2omDmbjyG6oZnz5mcPrj1ek9AjoyCiAnTjvhKK+e/a1Wx6XeYINH2hzDgy6CdY4W6YYMEw7Ygow4J3etxRq53LP8/9YASUdoXwXOJay86Z+qHyAfjExO9rbd0SH0lRE9egbo2NZbbd7WOHGtjLOCDNqkCayH4Rkqmy17Dp4lB9hkrYP6hh9UdQPtZdsM/aCvzpv3bOq7/OAocMpNoF80gX6Vy/JZOK5AHJu15uqrDdPbbqCOslW9Qm3yzB/ntYJmjll4JjqL3bCDCuim/3WLAh30GllY/VRQMpKBeA7rK+qgfkD/lc329UWOfC69sL4MvVprzbekvwXtcNsd9wz0lw2qW279YbXeumsNST4sCRoHNmQTvKPHoKFgONiTP3vukDlOOqCi607w0zwI2EJEOHn9datPnXrWMKXpJU0yNjk4f9JAw2oU3wnWIfFM6seiYp4nR4FjZm3MaZ9ZlKbjfxZx8Q0tApgXX5qf2oI1Ijyf++Bs+JwMikbHMmrAPfwUFUp9949fTvX1HZDzfzSguAQsfI4BRRc8LKzlh+ej5BecPTS4RT/4RgqL2Dx0rnZGFkNlHbsCE55FB+RHbTBhwkppZEuWgCk61nK8b5d3V39+9vlhqfY9P7BLkhv4zsn/uQ6LTEg/5+QAlKOdPiwK8oY6rk4NLe3mMy1K6/KZ74825cvzkWfTNLD0lbqLpmUl+ASCme0HBjnIX2XPGWjKBGoX+uPUDx2R+ggGuuSwlNVE1ymnMsd19NKu2PZDvqAFrATc9A27iL6E+lkdyEZy4Lmd2h/gOaUBT6dT8B71kXby97zn3VOqZ599YTDQrG8Xyobd8P2/2/7HDIHNaORAXwQ6TDutv97a1e677ThgQ3+a1moyCLeZSWYrvjb7P4f1M2/ThD8mWycoQ5P6WXLBXp29QTfesNIK1T9t847qxu++mjHC77zxDSu19GLtgcCHYD3nOxYXjQMbn9q2QuIYQY2iO0FnzY2QuNY7kzpsZ8PA8U2ilVZcPmVuGP1029HqaJKxKcHUD4ENHbmdc7ConrYDCGRr1y2oszFKR6GRqcpnszta57Rw4cL0f9NvCmF8CWYZUXrlZMRMMIXc5dRKbUA7M/dNOawsqCsjF0aqHMcgdJqKtJ2Z65GRkEwInuz9fvvo76p11l4jBTYWO4VIneiYOJw65GRpbwJDvrbbVKc9yKOd42qKnc6hLpRNyNHzmWT+yl//2spoYNgweFAXBKBrOWNacl7STfrvyZ88Mj2DQBpdstRNRVFOgnPsgPQeaIecQdbo2GIHLDm4l+o/UrhPLtAlwOYbOvfe90B1+50/bi2ArQPnQdYxV27kgt1gEIEcoJNg2JObxqQNsCMjgX7oM/ejhdfLdpT6X6dTUayZJNvNOr8xY17X+oYlYHsZWC36e+00nWMzG2SZvR5LH219vF5r+rgd9h4KwGwfxl4+/JvHqv0Ou2nIwEh+R+dyrUBu2F3rD1dYfnwabGjqXH7NB8uyCRYbRDYJ1kqMaCrKQifIpb8RQru5emGNLtCAjDA1UiAzhCEGBEZ0TfAxEgGU6DZjA5Tfl6c0VWOxxovOYq9BcTQ6ttkV/scBESBofYM1SJxD2p6oHGdgHUYdmren/XDWUs4t3r5hWusjY0zHxKCWOj6dmQ6s+wiUnut0jDKz+JS69SpNqzZQR8QBrDQw4siVlaCGDkw5qNPYsWMHP1mE6o/zB+kDxoAgViN8GTo+Kzl5D/p90vGHD/73Kjyjid6MlGVe97pW+RWsISNGk37xf87QWrjOOq/S+aXr67DlXNpBX7KOcqA90W30SH0S2cpZWd1Xdg37xnW5r9fSh5YfP35Y+wXNM0Sl/tcptDkZDYIWAhsdo11pb2vTsK8MYPlMayDpJ6WMbx3dXIetI3NNxtrCbIP8OHbTT0V5sOOPPvb7IT5ewQlyfdvk9ZJ+L+5+2/M3D+c6NFEv86Jkb+ikdGb+Jjrlf/4miNBCTgS632EnJAfBZ6QWZVgtOEVlhHDuKDJQBkagnXTykiESfNODe5Imf+zx37fSyaXrVAfS5WSWaOB2UH6MF7BuhmvImDAfX0KOpJQpoBw8H+hElLcJMr66hnIQdL11vbXTlJKMsbJmHjll7oNS2/JRJqay/BQU52CoNU3RK5Ar2Scco9Z2WXAg55y/aHEwgQpZgX8cCOCAsp5zwWXVE7+fWz39zLxh7YiDXnbZZdN56JsCUnQF40XboKN1P+j3Kiu/MclXjkt61XRNxWhAWcigESxTv6UF2pP+Tt9CzspGjibourUx7fAZFmsn+Bsdw/CrvRl1r7TS61PwTL2YopXNxGmRQfT9pelIvR3qH0LLDiiHfnBWTMu8lpBt9P3N/+T6Xzdg65jG1qAQyNCwLoiMtUfZc85BJ/AxnT6ftsNXdHIdzxq77DIDtuXVd1Z1A9Np6CXLIpAhPpwpOOkta1+xq77PYEvwjfQpoDz049SXB/7uBSNeY+ORAxyJgmAMEFRT/OhPZWgSTACCJ7JnURRfRaZB+DaXWJQaHJ7a1XX/uPmi6Rb79b5O6wByimQM7FRPty92w0mTGdPUFP8TmOl/C53PpgE5h5EEBhhjS3qVcrBWB7iXf1mhQDkXOeXh2Qbqg6MkC4COoOS5jB4O3ZfRQ91s5s/POwscAAGTH3X85S8vJgei9C8dTV8ZpQ0gyX/sstUjv3kirVtSmxC4CX1rS1/dp9x8rlRsE1hvAWrnV1PWzaYOLfc/8NCQdSpanwJ+kaH9LAdtZPvCaOPLLijnX154KfU3sGsTCCjJfti1AsLrRG6K2cNgy4MOMTXZ1K6hC/Rh2pVv6qDf1GHDDf65+sSnz0z3YuCgly2iL7xqwOs8dWPwQD/zz7Y62C3cH+dEVpV+TllGMrruRZmWBL7/iU7X2FgWLvxrytwwRZ3TGzt4/Ov/8/8kHyv72hTrK5qiAAx7522opjLbQVmp23FHH1zsE+gyddfLL2XrebfReWZ6T4NfykPf9zM33dCTNTYyLIKGbipoZUIwuFyXqwzPkvA5p51xQUlZLNpUSRC4XmuuYKVd+hIjxQgKA4Vjm7bHLskwtFsszXW5hZk8l8gbxzj7GzdW+394j6FyGRgF6H8a3o4KPK+8smjNBFxz+bktmaJcZFdQrh2222pAMe9uGdxcmQAFo158LV9Kz70JFGzg5nWAMhIYWaxs5Vw4z36FGmgPUqXtAhvkoqCWa7TGxrehpjI9yy8/vjVtQqfCwHzh8yemshBYUR/07kN7vT8Zf31zBd0mAGIka6EuCkR8sG0p6RjBJG1AYMi3DJh67aZzd7rGph2UBx3QHDnlzKG1OjrPYo2nbTdP3Rqb5V+/3JBpLotfmwBqU0u3a2w41jTdT3kJ7DVdrH6idvdbKGDMZU8sCjrkBLzeWL22/c+2j7+G9pddpF2pl/o+98gFlR4r67oyLa34Mgv1P0s3X/cWrLFRkGh9GPKTfiNHfvicqalSf/dlli1mTUzdes922L5ofXo7iAfqpqgEdUPP5I+8rbdg78n0INORvnKho72iXivQQcEajyAIgm7Aqdh1bUEQLN30ZWATBEEQBMHfJj1fPBwEQRAEQbCkiMAmCIIgCIK+IQKbIAiCIAj6hghsgiAIgiDoGyKwCYIgCIKgb4jAJgiCIAiCviECm6Bv4YVTvBiKF0QFQRAEfxuM+D02eispb00svSlWbzj1OzfrzaDtXp/sz2v3wiy9PdS/3ZTr/KZ+deAY9Yr8EvaNn4INFXnldO4NrHVv+W1C7nkl9BbQpm9v7FQ+TbFlzr111srZv+W2HbwtlNfdN5WJsLLRW4vtmzRLOtsO6mLfsisop/SodI4nJyv7BtLc23Y9dX1FL7LkLcvauLOOJv0BuunvdTKxskM/2HSUt/S2axfuybYeTV7U2dQWdQv3l4xLNtO3VdO+UNfPS7awE2jPs8+blTa+bWcXOpF5jpzuSE9z9+y0P3RiPwHdo85sj7LnB3ZObcKWPZTNt1fOjkA3/SEH9+Gt8dOm7tK2nrYd6mzAaNALnRspjbZU8B2M13IjJISlY7bz2de2wy8ffCS7My0dPfcaaRo8tzWBf9233cNDnZu9PthgEecMCJn9jiiPp10ntLtl1ymEdUBqVO2Qag1ar6h7Jb1AmQlS9Ld/hbhvo17in8ez7NYOKlspgPLbd+TOl04C7dekA5cMTwm25ShtXeEdsW0Ta2BtOS3WWeeQHoGXp722ZKhzRt6X2cNndXrRtD902t9FTiaUWUiW3KPu+YDM2KIkt0Hrkob6s11GO1lynl7JX9JtOc26veRye7aNBtg6tpLYf/oeLSfs94ATTWyYYGsW2l3OciT9QT+WdgHG47+bWz308KPDtlARfi8ptoOxwWa3/cEieR4wINtbbv1ha9fsHF732U+KLXDa9ZleQdnY32wkAe5I6XivKNCePDo2dtlFu3JPXPmNLecBPiCSUUURETKbKHpDKwVkzwjhFa/UyQHFfuiRR1t7EXE/jMiM08+vDjt4UUfSnjZ+xORBcVBI6lR3HnWw9aDT+uBMn+cczuLA7pEjeY4WtIn29LH6sDjwm3l6cNzCG0gM0vRp7x8wYo+1dJZjkMu0qS2RJ0aqE9rtKQboEUiepSDJ6xR9IAdOwToTnddUH9v1h5H0dyjJhCyR2spuNAs2WENenGvv4ze8zAVPIrdR6mghWeJ0msif/e/Y2NfDZptbb7X5MDsoCAaQT7ssxUgzybQPNgWbTHaDwaT2BbIBaZ0dLcE9CPBoa3QWefWiPzRlzdVXS76HZ7Fppe7t/ZBsnQZOlM/undZpfxDcl+BVe4a9fZMNageGnK8Niykj+41h4/yzoNOsvsXbTw865/Wuk4B2JDQObOr45rdvae307Mltnsmup1fffEPaRdsquhSwJLC6jA0CIz1NtsY+T7BDMfeFZV736uZk4A2yJ6cQVgFtY1EHjbR9I460g1msQc9x9OH7Df5V5qJLr245bgvOYCQKTz29QtsA4ePH/Ev6u0RuJ3nIHcNYWtiluGSgfZDFORhIb5DAHiP1jAFrSq5D+3LWOViwetQtth3oK+jEnBu+O6xf6Rw5N7JU3fQHRtbd9HeRkwnX49Rnf+OStJMw96Vt0Cftqs51oOCylHXiXqLUf3LHRur0S2Cv0Kt31QQmFnaapu6SEX8/8MuHi1kp7BqbDOfsYR2yh9aJC4L4cy+8YphtuOHGH6QBJChj7uWfI2crwA9OFpdDLMH0p/oDet6kbjCS/gAcI0g89aSjW89EV/ifNvLBIj6ODXrZaJXzCTLZqBn9HY1lBu02lbVQl5HatKb0JLBB4aR0KD6OqQ4CofHLjWvthJwDgRGMXDfn5qKBBQwqIDA6us3W4JxJ3V0xoJQ2JWodpAIUG+gI7tdkbhljaA0inVCgaFKoXmJlnoPnkrKsA6etKTOwZR2J8iNPGUQ6Mulp62gUYJbwxiBXrtxojQ6fa0fBtba+gvvjKPlhfdT9DzxUbf2OzapxY5dNZSawyWEDGNvmNujNlRM6ydh446/+gANff9JaA4HIooyphzLgNDWqhLvu+WnLScuQch4yUPBGnbvpD9Q1R5P+DnUZG2wBUE5Gr+36030/ezDtSC8U/Ajff2R0fZ+izjxvNPD6SgCH7uemP6k3NoysCHKkjZjimPvUqzvl+8AQvcUW101T5Xjq6XkpO4TueLg/fePqa29o9Wlk9P3b72oNGihHU/thbQVI3n6NjXWI3fYHn0X35HY2J6jddust08CdgQE2FblSb99+JfviadIfaG87uC/tuk7dbdBHBlDXIEuCTGQ5GlB/9Usf8Mqe2FkV286jTU8CGxlvKRiKnRxCwdDts+duqfJcYyuO8jIvJ4Hpet9hhTXMgikse5zGLW09r/NGgu+YgoYWpAU7NS5N8B1c5AzLS/PnDwnoMALMHV/51euHLWrrFaljDRiESeusOXhk9CiNwEsgI+qsdQB+lM/9KDujYbXdK6+8OoUJCmBo606morxTzUHbyphLx5An5bUjvU51ODdVJx3CiI8G7fo7SCb0eTKJU9//3mE6LGPPdJT/LIcMPm3ZhNxaFJ5J/y2tteol6VmDwXQOBboP/vq3qf2lF1xH4O/7MIHSw799vHZqFnxGqt30Fpkm2kHloC2uunhmqx/kbPVIsW3TbX/gHLvEQeQGX569pu6SdPP+gToiVwKInO0V2JdS4NKuPyBHsi5Ns4Scf/TxM6pDDtwnrW2ZtO5a6TiB77QP7prugY54HwA2KBoJyJapR+rElC46siTpSWCDMpRGyrlpBUZgCJvU5cmfPXfICJBvaHjqomxlbOoghVvq3E2uL4FC5cpGpmj3XRZPdNokOwC5NTbMHWPArv3Gd3qi3B4M5KYbrZ8yIIw4SgGqp9upKCuLOuToZJAxkBptWhl+4XMnVF8cGIXs/+E90kj6DwN6xEi2ZGy4FgOZc5AW66CRR86Z5+pBRun1AyO93FRAU+xUnZwAz6JMnUy3leimv+f6kaYuBWufbrjptuTEcBi0YS+NJ06Fci5JCApKuqPPWJhJRgP5SQ/pv6zX8frA/+h3HdJ9BW78z8LTOtnyXKY6rPNFfygjC4ebUrKfkLPXBBK2j/eiP1Bu+uyUd769FaiV4HOeuf2270z/qyzcgzag7vhC2Rfopj9QBqbISwNXi5YMcD7y5BtTwtuQTqaNOoH6/uJXDyddUByATJYkIwpsSg4IiARp6Nwco+AYjaq1DJ66gCmH7ygoBVMLTTI2dZ3M11EjHBRQIwAZCK3T4H5/fvb5FNkzSl5aQflpE8rbS4Xnfig7zht23Wm76vSzvpwcU91zNO1z+ZfObLUXnaTJVJSgPrnsjR+dcF+le/kMw4UO2POUan355YXpMzI7LMqrA73zBskGYBhBnun1zTtzkPFEnn/687PVKhMnVNtts2VrSqhTmmZsuukPOMdu+jv9iHoSXNj2sQEfQbJG5uq3vj93C3pQ9w2q0VhUjHwJBFTfujLwGX0Jh4gM7WBE/Qz5dwP3xo4D8maKSaP8OlhnwtoPlYPfdkq+SSbA2k+BHfVTUQJd0sC3V/1B3xia8o7Nqm/f9IPWNJ+Hcs3+xo2p/3fCSPwf1MmRtsMuCuRp+8figvJRFmwpAS/2CnnB4sh05ug6sKHApaADpePdIk2gcUvzkiUH5ZHxV0exI1EETLqyXcam1MnarbFRXRlJKTMhQ89xUoMYZNvovaSdE22COg7K2Qu4D6M5ghoZJ7JDjCwwWvp2Wo66dQad4LND6ISmdgRlY6RjyaWqIacfVvYYINYmPP3MvCGGzAdglIMRov36ey5jY0GeZNgOOWBadekVs6t11l4j/eDs22WHPE0zNt30B+rRjrr+bh2jYESKXKSj9LfS6xs89n512Ricci7jAU3tWFNkj5ieVR2QG7JnfaBduyK4hnbT1AbthW385Ge+UD38m8da06qCdvU2IQc6a+VCYI+Tt/2mBOXDztDPn/j9H1Jw5adzewkyot9Ar/oDusQ3hlJQPlBm7sEiYR9IcJ6yQmld06BOeNtrdbdp9q+uP/Sa3FTUSNpMumzXr3qZ+LVBftpztGgc2NjsDMIofaNGgUKnWMW1tJu+kHHOwWcLFy4c1TU2KDkOk8CGaRcibxzcMSeclhbZKRWMA8UY8UwME51FI+KmUzQ5FNR5fJCSW2PTFNoG55z7lkQOFJ4gjjrxt6ATkwHxZbPwWd06g6bksg0Ycg/lk7PGaMlpkjmy00W0HUbT1t/KXjLa6G2Tsg4SeBaL+RgRH3rMKcPe8eH7k9LMyAQnsvzy4wc/6Xx09vxfXhyo57+nTFEpYwPobbdp/U7w/Z3+s9qqfGNuUTvQb3/35FNDgj36jKY/rH6orX37+tEuGRIP7dou4+GdZaf9AbATOD59e1R10r2ALCUBjnWutL0GCaqzZEdQQz/2azkoU9NyoT/KSEmnmsK5GhjoN2VjHRr0MsihPyrzTT8aaX/gPAadtIX8AtfTTuiE1RuOy46jm0L9nzYiOM5NRTXF94fRoN1UVKd6zX1yU53IFpvi+9/ipHFgo5QaKHVWijStcpXmGD0obm79QikdbvHBFIEGRgTBktq9975fDn7SW1BoHNWLL81Pz1OwUGpwNTIKxIiDgAbsNx06oanxgtwam6aobXA+TZCRKUEba4rHdmjJpdOMU46mwSKjvJ3fs22SC4uEGcFprp3gTG2D0aLTaw7cd1icEYZX3z7KwTNUb6sf1LsuYyM4L4cfJYHvEysMOAGcDzqrt6gKHEUp/d8p3fR36eNZp5+Y+gDOg2+2YGPsVJQCEF9G9SMbuGy2yeRqqy03HfxvOMiBwJVMyBc+v+i5HuRNoIuht3TaH3QfPwjJOQCCAfRMzhWHydd1pcscx9ZwLzLmtB1BMoOobpwItrLTrF8OysHoHXoVGNvBHyAn26e76Q+23fWeHQvtw3N5GV/OhiAv9LlpJm+k/o+25qcEg59e0aleW2gL9JYvEOEHyUhjR/VSw8Ud5Ix4SwWPKohzwiF4g03HpGFRGHVs0U3lFUTJYPB8+0xvtH1nkVFsEkBZSKmxwA4jTJnVYfRVuxJKxVEuPbOpEwbqS+fKyckqF6Bg7UZNvty5ayirXT/UCaVrbTtIJkxD5c6ljFpjg7ylMzatiV75jIql9Dzv0K187XNzuiS4t11ICXJAoOdBEx2xKGvD823fkr54/Qd7jDrYr13yTbhHH/99+to3gxVliWy7+z7SBOp48iePTFMp3fZ35KvUtu0TlIfAp0kGwJ9r9VuyBJ5jv00jbLtBr/sDqB0hVye1GWtHbr/zx+kcrf/ywZFQm9k+4fHyh5KNsG0BdbbZ9wtvh3JYvbaU+liOTvsDgxJk1MTe6t4MViTPkh3KwTNG6v/4vGTrwdsnkZNB6VxLp3ptdaTUnkL6ubgCnJ4ENr6BmjjU4LVDrqMEwd8q0R/+trAOXI65Tgds8PJaop/0uucZmyAIgiAIgiXF/xj8HQRBEARB8JonApsgCIIgCPqGCGyCIAiCIOgbIrAJgiAIgqBviMAmCIIgCIK+IQKbIAiCIAj6hvi6dw+w7zko0e4FRsGSoZOX0dW9/CwIgiBYOmgU2OSMPy/h462MubeodvumVe/8mzgdfw0vGeJtjWyl4N9g2eTtixa9AVRvbS3R7o2Ndc/lM8mo9FZRj+ro3+DYpH68PEpv6NXbNdkrpu5tkHX3bfdSJ2Rj24E2bfcWWX+NKF1b0pPp095f3XDTbcMCznZBZrv2FPZFXLYdPXUvrLRvuqX9eTtq07fsBkEQBMPpKGNjHWrJ2ZWcUh1yTN4BcNxu7e/JlSEX2GhL/Ry8+ppytsu4eKxzpM6dZGy8E7Sv+Kb8uVd1K+jxdeZ8u3Gj/cwGMVAKAHLYV1+X2oHAqN0eR5QB7L2847YBAlg9s/jzSqhcu+60XXXdnJuHvHLdlhlZNpWHsO1oy8O9ckGwDZJoHx/8+GA2J58gCIKgOT0JbEBBRG7/nTpwDgQduWxFLwMbOXieZ/+uc5QlZ+VpN8LPlROUMelk7x/+toEPcmPTMup62MH7VhfPuqba/8N7DHPolAGnqt2qRZ0j5bOc499myhZpc7fcXjA2IEIu2jlb9fbPoz5sPHnkYR+p1lx9teweM3XBp+pv5W/bzbY9NGnTdu3p5UKww75D7BfVNGOTa3uoa48gCIKgPUsssJFzqJsWKDlWi79eZewkY4NjkePPOSaPptqo60gyPZ0GNu/aavNsgCRsm9jPlaV49LHfV3Ofal8/W8a6QMDqQw4CR7CfW8fNjth2x2abTVH5ucfGG06ubr39rmFBgJWVLYsNTNjJ2pbRBw5qg7oN+4TfwM0GxiU5lYKkCGyCIAhGh0aBDcbZO/CjD9+vuuXWH3YV2CiIYOv4OgOOke8mY+M35GQX40nrrpUcoHVG7TI2TfHOCHlZGXiH7csoKOv6k9aqxowZkw1stDutIAA5YPoe1RUDAUIpuCKjAW9YacVscNDOkfI5W/TzbLVFqfygoIi2oaw+GOB+s79xY/r7pfnzhyzGLQU2jz7+ZDV+uXHDyii5ICsFCptuPDkdUzDj62evgVyAkQtGuM4HcZTtDSutUN173y9Ttuzs8/49MjZBEARLmJ5lbOQInnp6XqPApi7zMBJKDqhdxga4tuSwLTln3WlmCRQwMo1hywC5wEbH7P8+iLLY8+RIm2QmVNZVV5kwZD2KDTLrnsu5BK4bbjAp/Z+TVcnZ5wIbgk/+9xkRPvPTTMq62UycdG3FFV4/TO86kYtfd1SqR4mm+mXJ6U0QBEFQpieBDX9rlNmrwCYXjJB92HH7KVlHpDU61nnYr+fKgTGilyP02EAAKKd3plYGwo+y22VsxFXXfDMFCy+8NL/lvHwZwB+z/ys4qsvYcJ7q30mGoHRv7mkzOB7u6bM8oPtNWmfN7PNKQYaCFK63a3YU9Pj6sNbFZoIUAOXKnJMLz6nL2EhmZAK33/ad6Tl1bQD+q+LdtEcQBEHQnp4ENt+79c4UhPhMRommgY11WnLmCmysQ5DjwoHrPNajKCjBUTG6xkHyvNKzuXZxZWy45rY77kmLcJl+uv3OHyeH/csHH0mf5wIbPxUFLOSdN+/ZthkbQE6lzJXHZyIorw0KSrJSIAX2Gs7n21s7bDclTYmVAptSxiYXdLBGxwc2qqMthwIq8NmPUjCVw7e7L5vIBcSeXF0hApsgCIKR0VVgQxChAEej6LXXeks1buyy6Vg7w744A5vV3/Km5AjrUEag5KgskoF1cB5kUpe1knwOOWBadekVs1NdgCCAekAusNEx+7+cdruMDYykfjZ4y02/8LnPlCiwsfqSc9zShwM+skf6rC6wsfjPJPdpH9y1mnXl11uZHQUvvHfJlq8E9/EZmxz2+faaJl/rLulIBDZBEAQjo/GWChji2XNuao34FcCcc/6sauf3bJsW5y4NLAq8Jg7+V1W77/ruas7XLmr9XP6lM6v111u7OueMk1rHcEzUZd6fnisGWgLnZJ0+gcDUDx0x5Oe4T51ePfTIo9WBHz1x2GecjywJZpZffvzgXapUhrpgKQf3uve+B6rVVlk51cvWkx+c6UjAyarcBDVkLLjvyScckb5tdPTxM5LcKAfO+AufPzEbNHiZeVhwDu0CDgvBCu0lpIsENcgSnST7xfFPfPrMNAXJmh8CSq4Vto76of3uvOsn1b4HHjvk+H6HnZDaLgfPeuzx36egBlgYb9vEBjVAlnPNNVZrXGdbTv4OgiAI8jQKbDCkZAVI48tIcwzHvdOO2w4z2jgq1h+MGZMfcfL5iy/NH/yvDM5UxtxPe9jPFGw1DU5y8JVwnF8nzhWou5yXfgiaCJ5ywQbn43j5KUFdVbdc3QneOMbvzTfbaPBoM6zccj/2WZRR5SarZdli4Lm0PTrANQRq3WYYaLdx48YmfWFqjsBC5SlNnRFAzJ+/ILUXgQoBC+WRXKWTlI939/A/wRVvWSbQ4Zlg66gf2o8pvmsuP3fI8asunpnVLYKdm2+5o5q6+07VMSecVv30Z+XAg7KeNvOipKf7T99j8Gg9XEPgSBvww982OAuCIAhepaOpKEEK3r5/BDDudkrEp94Z1Vun2W49jp9m4Hqom4oiU8OiVZ6L48pNh3HcT4MRpHWT/uc6Tc90gqa+cE6+Lqqnlx1wjGvs2gzkbqc0fJn0LPAyzcGzSlNRfuGt0DPtsyB3jeqcWyA8+a3r1K6xKemQf46eAbk25T68FHDbrbesvvb1bw0ebQZrpfbd631J5vytF/PpxYel+rF4+ORPHlldevns2gXs1CWni5IxeDkHQRAEr9JVYBMEQRAEQbA00niNTRAEQRAEwdJOBDZBEARBEPQNEdgEQRAEQdA3RGATBEEQBEHfEIFNEARBEAR9QwQ2QRAEQRD0DRHYBEEQBEHQN0RgEwRBEARB3xCBTRAEQRAEfUMENkEQBEEQ9A0R2ARBEARB0DdEYBMEQRAEQd8QgU0QBEEQBH1DBDZBEARBEPQNEdgEQRAEQdA3RGATBEEQBEHfEIFNEARBEAR9QwQ2QRAEQRD0DRHYBEEQBEHQN0RgEwRBEARB3xCBTRAEQRAEfUMENkEQBEEQ9A0R2ARBEARB0DdEYBMEQRAEQd8QgU0QBEEQBH1DBDZBEARBEPQNEdgEQRAEQdA3RGATBEEQBEHfEIFNEARBEAR9w6gENt+++bZq6oeOaP3wv3j+Ly9Unzr1rOqxJ54cPPIqfHbazIvSb8vCV16pzrngsuw1QRAEQRAE4u9eXvjX/x78uy0EFnfe9ZNqv30/MHhkEQQuq71pYrXZxhsMHlkE55993qzq48ccXH3v1jurm79/5+AnQ/nMiUe1rr3v57+qLrvq69XnTjk2Xf+dm2+vjv/YwdVTT8+rLrnsP6pPHndotcLyr0/n/fgnP6sOO2jfdN1IKJX/qmu+WW0zZYtqrTXePHgkCIIgCIKlmb8/+eRT/tfg30XIoHzi5DOrVVZZufq///f/DgQ3/6d6+pk/VfMXvFyd/oWLqo03XL9auPCVFHiss/bq1YorvD5dw2cH779XNfmt61RbbLZRtc8Hd6t23nGb6tcPP1qd9ImPVgd8eI/q8SfmVpPWXbNadeKE9Cx+//7Jp6px48amAOaeH99XvfMfN03Hydz8buCzSeuuVd173y+q149fLv3dLQRHufL/6J57q9nX31StvdZbqpfmL0jHt3j7htWYMcsMXhkEQRAEwdJIRxmbiy+7JmVdbIaFAOaUz52b/ibLQjBCAHLWv82qdtt5u3QeAcRnz7wgnVNi8003TJmZMcu8Gjxwn4suvbqa+v73Dsma+PsLPceWrx258gPZolNPP6+atM6aw8oVBEEQBMHSSeM1NgQTZGiYmpn7h2cGj1bVc8+/UE1ceUL64W948Ne/re69/xcpyGCNDefP+dpF6efyL51Zrb/e2tU5Z5xUXXP5uSmgIRAheCBY4fyjj5+RAg6CCTIyv3zwkXRfwbTU/PkLejJFlCs/8HyCGiCbEwRBEATB0k/jjA3ZEAKUd221eXXBxV+tjjrswym7oXUoBAK5NS9aODz3D083WmNDpsSupfH/A5mj1d60SvW+nbdP/4+EXPkJ4q68+vpq7w/uVv3w7nvTeb14VhAEQRAEo0tHU1FNIZghkCFIIAjZcotNhkxd/e9zLqkOPWifbMalXSDD51qQHIt6gyAIgiCwjMrXvd82eb20KPjx3w38DPxedtkx6WvcTDMd+NETq4ceebQ67lOnt74OTuBSx3t32Ka6+ZY70nVXX3tDtfN7to2gJgiCIAiCYYxKxkaLeye8ccVq3p+eG7L4tmnG5l+PPCB9++p9u7w7XauFwXyrqhdf8Q6CIAiCoP8YlcAGCFD4VtGxAwEKtPtWlNbZ6LoXX3ypOni/vVrTTzpmz/V0862oIAiCIAj6h1ELbPTVcLBf5W6XsWF9zuw5N1UzTjqmWnWVCSnzwzesFKxwPV/P/suL89M59h4R2ARBEATB3zajEthozYymjGyQU8K/x0ZBirI2HmVxtn7HZjE1FQRBEARBYtQyNkEQBEEQBIub2N07CIIgCIK+IQKbIAiCIAj6hghsgiAIgiDoGyKwCYIgCIKgb4jAJgiCIAiCviECmyAIgiAI+oYIbIIgCIIg6BsisAmCIAiCoG+IwCYIgiAIgr4hApsgCIIgCPqGCGyCIAiCIOgbIrAJgiAIgqBviMAmCIIgCIK+IQKbIAiCIAj6hghsgiAIgiDoGyKwCYIgCIKgb4jAJgiCIAiCviECmyAIgiAI+oYIbIIgCIIg6BsisAmCIAiCoG+IwCYIgiAIgr4hApsgCIIgCPqGCGyCIAiCIOgbIrAJgiAIgqBviMAmCIIgCIK+IQKbIAiCIAj6hghsgiAIgiDoGyKwCYIgCIKgb4jApod8++bb0k8QBEEQBEuGv3t54V//e/DvpYKLL7umWu1Nq1Tv23n76rEnnqxOPf286sUXXxr8dDg777hNddhB+w7+V6VrLrnsP6pPHndotcLyr6/u+/mvqu/cfHt1/McOrsYss8zgWa+y8JVXqrP+bVZ17/2/GDxSz2dOPKrabOMNBv8byvN/eaE65XPnVgftt1fxHA/lPfu8WdXHjzm4WnGF11cXXPzV6qjDPpzKnoPAae4fnh5S505ROTfcYNKI7hMEQRAESxtdBTYEH1tusUlj5w1XXfPNapspW1RrrfHmwSOLHOy13/hOtf/0PVLQQZDx1NPzqnPOn1VNXHlCtefUnasbv3t7dcQh07NBSc7JUzbQsVxgY8vPMy+69Opq6vvf2yob5frf51xSHXrQPq1jCoB223m71nVNA6I3v2li9blTjh0SrCi4oJ4qG8ce/PWj1ddm/+ew84UyQgR+TdBznvzDM4NH6smVtVMI1u686yfVfvt+YPDIIkrHgyAIgqBXdBTY2AxKXebCgiO+/+cPVpttskG17LJjqltu/WH1r0cdUF16+exq/UlrDZ5VVX9+9vlWMFIKIvgfh6sMhw2SwGY/9JkPbCjPd79/R3XkYR+p1l9v7REHNvq/BGWyGSSgDLOu+nr6u0QpwCAou/n7dw7+V0bXg80C2YyY6CZQzaEgauruO1XPDrTnn599Lj3rXVttnj3eNDgLgiAIgqY0DmwUNBx1+Eeq6+bc3NahWxQQTVpnzSGZEzn4g/fbqzX15IMAXTtt6i4tRygH6qdSfLYGbGBz5dXXV7/41cNDAgYFKJ1ORY0ksLFQvssGZOCDmFwAkgvC2oGsCGygSR0333TDIRmknJzboeDLB7+l40EQBEHQKxovHsaRXnD2qdWaq682eKQ5OEiCGli48JX0G5hGYo0Mv4E1JhMmrFQdc8JpKSDA6TMtdd7Mk5ODJxDCORIAnH/WqekajgHnljIZ8+cvqGacfv6woEaMHTumOueMk6o5X7so/Vz+pTNTNsceu+byc5PTHwkEJqfNvKia+qEjWj+fPfOCNE104EdPHHKcuhD0cT7XpesHZLdgwcIkp04hY0M9kDeBpOqlYwQb/H3yCUe0As9uoKzzF7ycph3nmumv0vEgCIIg6CUdr7HBQTXJVAjOJ1Oy9wd3q354973pmLIzrLeYtscuw7IQBCu5BbKl4zazAD5jQ/BgMxEWyrck19hooTEB2xtWWqF66OHHirJV9qpuMTXY5/EcPxWVCwB7lUVB3gQuTD/Z55aOB0EQBEEvGfXAZiSUnLCFgOU9O2xdzZv3bLXagEP/8U9+1gpsFAj4KTBLJwEK2KmoJtNCuako6vWj/7qvmnHSMdX3br0z1ZEsyhabbVSNGfO66rKvXFc99vjvs9mldvC8Od/6XmvBtQ9sgiAIgqCfWSoDGxy/X1+iIAUICHLBBFkBBTZkd1i0vMN2U6pbb7+rGNjkHH+TjE3unHZwDVmanXbcNmWeCGgUKCmzBAQ5WnALnQQ43McullZg9Z4d3lWd/+WrBs/KE2tfgiAIgtc6S90L+nD+jz8xt3rb5PUGjyw6dvW1N1Q7DgQpm260fspycKyEpqzSepExrxs8+ipc+6lTz0pO/7nnX0hrbMaM6WxdCdexHmjVVSYMHmkPwQlrgwjYCL5Yw3PuhVe01tponQuZJ4KtL3z+xHQ+U3h2/U3ph4DQQ13HjRtbTXnHZtm1Q1pjQ+Zr8lvXGbwqCIIgCF6b9CSwIUtw9PEzaoONphBs4IgVMHBPMiPT9969WmnF5atxY5et3rvDNulY6XkKHEoQlACLcJPjH7hnLptTxy8ffKSr64A67nfYCdVxnzq9OvbIA1oBBhCgkHWyi3ipjw1ESj/UmXUsE964Yuta7rXpxpPT/wRWp550dAoSCf5UDrJjuUXDyIZ2zQVMQRAEQbA0stRlbKwjJmDiG1J+uoe/p31w1/RNIs7plBTMDARPf/c//i5N2/AOl07g+h/dfW8KsLqB8l918cwUjIAyLtRdAUq3kKkiUAHK6bNfgm9cEVgtP35cmvYKgiAIgn6g4zU2o4nWg7DQlqyKf9me/1YUQY19Bwz/a42NKC0OZtqHa+xCW0FAoPUzZGb0Mj1924hy+ud0AvXQPf2WEJ1g7yPst78kDwI3rd8ZP365IWuUqCtrefRm4tKLAYMgCILgtcBSFdgEQRAEQRCMhNjdOwiCIAiCviECmyAIgiAI+oYIbIIgCIIg6BsisAmCIAiCoG+IwCYIgiAIgr4hApsgCIIgCPqGCGyCIAiCIOgbIrAJgqAjeKnjaTMvSr+BF0HyPy/DDIIgWNIssRf05d6aO33a+6sbbrqtevHFlwaPDEW7T3Mt2N2/BZ/NnnNTcQfw3O7k9o3HpTfu2meydxI7c5dgd+5c2ZrC/XlbsHb9tm85phz27cv8z6aZflduX8/cW5lL2Dcv52RYAjnqbdHsw+V3Tff4uow2tp2v/cZ3im0oPUOGF116dTX1/e8d8vZraNe+tKF2qNfbnQ8a0Au1UxMZ23u0g/bV26VL+LdOS/5sDeL1v135JMvDDt63unjWNa3zcn2j1G9te/Cm8dxbwEs06bNQOg952V3wc/g2bKfPpbecl5BcgiDoLUv8zcPW2FkjBNawWmcvA8KeUtboY6zYLZsdwBcsWJg1WnWGrs7x23LasniaOr4S1O3BX/821WPa1F1azwPKJmfE35SZLSWOPOwj1Zqrr9aRUfVOzlJyaiVnIMc9ceUJrc849uCvH62+Nvs/i1s0jFRWnaAy2uCiCeiL3dqjkzJ7xyiZEvTx9/4f3qNaZeU3ZmVTaoMS7fQ3dz/pkg1s2gV8XGu34LCwnQc75U9ad61UZx9c+zZAPnUDhDrH3zSwsf3FUteHwcurdB9LLhDOyd3LJQiC3rLUBTannn5e24wNYDDsCEpBjZy1DQYseh5Gqs6oAs7/sAP3ri6+/NpWmdhLCQdeF0CMNGMD1nCPGbNMyxCyezdl3/uDu9WOIL2RtY7PG1sZ2lKdkAPB4mOP/35YkII8febNU9p/qp1jEyPdv0p6xU7q3TgSrr/zrp9U++37gSHBSo52sszBfmEEF3W6n8PKpZeBjepn65oLBHwfhFyb2n6LLMnMbLXl24cEvTqey9g00TGhgH3VVSZk24Gy8LycrG2/tUH8woWvFIM5sM+MwCYIljyvyYyNh89+8auHhzk/js/703NDsgjeyEATx2fLWVcWex7wTIzihhtMqh3tCW/gVbY6hyeD3ORc0TRjQ3ahaflxBnZTUoG8fDDgA6/RwjpfAsSRPjNXF0un9VJwYWXbjeND9r2YimoyRcezCLDZFV6yveHGH1TbTNmi+t6td7b6Rif18HpvycmI833Gxso+F2TQdhtvOLm69fa7hpXJ9lv12Z123Db9r+czmMjZD6H6Ng1q6zJSQRB0z2susMGgavR2wr8emozUhDeuWHS61tn+8O57h62/scbIjtj0PBkeW87cZ97wik4DG86/7CvXtbIj7dYeUBY5Wjkc/rZGnrryWW5E30kwJMgUnPzJI6tLL5/dUWbC7jxuAw4bBI0myAqQV10GgADg0584vPr69Td3VD+fqeN53Uy1oE/3//zBIVN+dToGpfYVyNs7Ze5p5eCnkqye279Lgc2WW2xcXTdnuMyoJyjw4n/K2i5bp4wU/bZXgc2jjz9ZjV9u3BDZgu3fkgvt+bbJ6xVtksf3OcjJXTYnMjZBMDosscAG4+hHmE0XD4M1tLn/vePEELJWYty4sdXhB+87xNgB1yr1fOXV16dMz/S9d2+dJ2Mn48/URIm6bEhTKBcOGMPaNLDxjqodTIHkHCGyIxiza2bq0Pl27cQbVlqheujhx4rGu2lANdJpKIFsfLBg8fpTwsrbUjruaSdb6anW9AjKXxfYdEPuntSjScbG9110nownAcv+0/dI9co58KZytuTK2W1gw7P53wfVaj/6G3q56sQJKQMFWpyvtvNTUupHEdgEwdLBa3YqqvT/5Leu08rAEIR8eJ9/TgtrMcYLF/61uvvHP20ZHp6tDI4WdL740vxqlQGjJqdjjbhG5P7Zo+F0RJMAwGcKcgaWetgRvf9fxrYuQ5ELMpDFj/7rviRDpiFwipRni802qsaMed2Q7FOnwQl1rwvqmkIZKZfNGHl8m+YoBR1NHZV0ybeX0H3gkAOmVafNvLC4rgMUaKh+Fp6x4/ZTsm2q56O3CoRt26ocfnG+h/rYxeRehjm52HNs3/LYoLvbwCZXd8nMt6XKBWSjhK1/LkixqL51fchiB2pBEPSOUQlsvDMuZQbABjaWdkbEG1Fr3OschwwfTvjxJ+amDI4yM3UBisqJs+Aeq7951erq2d9KxzwjNVi27tA0YwN1zsJDOYHzGXG/frlx1c7vWbSuwOMdiUavrENAZshe9bZloC2YsuBc6CTA8Y6zG7gHARzrSNrJsV1gwznAvaxTtA4cmspfKKjQ+pZcAFanm77sVldzgYXN8IGdUqKdKT9tSd1yfVD1tVPAyNlOg8rB+2DYllVt4+vk68r/TTORypbWZWwkC+oqnSBLm5Oh7QvtbBKf+0xQ7hqrL3peEAS9Y6nK2LQzYDZA8kbK/y/scQU2MG7ssillbo1fneFSOeUEprzz7dVd9/x0mAMqlaMTbBDBGpsmGRtAdqutOrFae623FB24Neb+c8ruR/6Wumkh7mvLaYMcG5w0dVK0NXIcaWAj6uoN7dqNetiF0XJOZDXQiTqHB+2copx8qc7IbbQDm9Xf8qYkozpKQbvV2brA1Za1k8DG1z33PPVvZWzaBTaWkgx9YJObilIg+tTT84bpWAQ2QbD4WSrePIyjm/qhI9Jc9pyvXZR+Lv/SmdX6661dnXPGSa1jOaP+gzvuSUYuBwaEtTIejF3uXhjIaR/ctbr62hvStTn0rGXHjEm/24FhO/r4GclwNuWXDz5SrbnGai2DzVetr7n83JYc7A8BAGCA+Z8sgoXynnPBZcX6eAiS/DP4oR2WGzdu8KxX4f77HXZCddynTk9rLHQ+0KY4rpNPOKJl6FXOdj+0DxkAsgIjDWpGCg6YVwkcd/TBrTahTNSL+hB8AtOZ3YKDy+nkaEKwQJ8Tu+/67iFtkOuDcsRqd9qYH9r/oUcerQ786ImtY/wgO5HrjwTS9nx+fOCLjJvIhjY57qiDisFliZKdyEEfsPLgR/pNX2fA1Km+IiPV3corCILuWGKBDSMiOvJ3v39HMqDWaDaFlPmCBS+3DJmdGwfePzF//oLaESS88te/plfCE3xQBkbhn/j0mclQWRYuXJhG04y0WD9Cqn3fA49tGSV+6jIeTcDIssiVUXU3IAuMO8YVGeNwWOiscjIFp89zKMj0P9znpfnzB896FZ531cUzU/uBzieg4dhInPUix/uqHKiPRtKLC3TCvh8pB4FoTjaLE/qCZO8DA/uZ9BPdxpl3GgQI2+784OwJgtSX9aM+zfPoUyy8R544cD6z59qfXgR5vKQTvfV19zS1E3XQb7ENZH06QdeRCeOHvzkWBEH3LPGpKMEIsN2Ui+bPtdDXpncxlLm1DXa9DQbDpqf1TPCOi/sx9XDIgftUZ503K5WLb2397smnUqqZtwPnpgx8SrtTKJNdv8H/Pr2Nc5fzsmsKtK5B5NYaWTn5aQXKbtfrWChHbqrBlqVuLVU77H2EX2tCGcimQafTUzk5Ul85Oz/NhiNm2iH3NX3u5XW1NEVjn1G3eFnQPuhVu2/egV2bk5tGqZuKIlOjNTHU1a8NAY437Wd1oKP77vW+6v/9v/9v63m5KR1Pu6nPuqkv39fB9k2vb153JUPbF3LyEDn9AnsNAbCeaetW1yeDIOicpSawCYKm1AVgQRAEwd82EdgEQRAEQdA3LBWLh4MgCIIgCHpBBDZBEARBEPQNEdgEQRAEQdA3RGATBEEQBEHfEIFNEARBEAR9QwQ2QRAEQRD0DRHY9Dm8aEwvGwuCIAhe+/DiR96Wz+9gOEsssOFNnXavGRrJvkqcl7CVHDKf8bZOz2g78VKZqEtuPybOVf38D+UvXcf/yCN3Xe4nJwvBBodsW1F3jodyHfXxGel3kw5EPZHNSCjJoh08l724mnbwuvMldy8r2+5N5DESupGDLzdlo462HvzdTleoY06/O0V6Txme+eOfUn2oV0n2/P+pU89K51j4n+M5WXMvW19/PZ9xToncvTvR43b3z8GzbLvwPNqtrq1zZeI+nehgp+eXsGVpUnYLdS71O8E5+ASvBxY+k99od67opq3aQf358VC/nC4LyiK73e6nTr68sZqtf3hjeNM2GO3283BvnpGT02izxF/QR+W1SzKveS+9rt2+8hzh8kr2g/bbK73aXK8s17YCeoU85+VeFd8JNGiuTPaV6Chx7nXqNGhpR2YoXYdM/OvgqYt/nbtkp/rqf7utQonc6+ol14krT2i9+p9jD/760eprs/+z+Hp7Ke5I3gRckoXopG7CbylBOdmHa4ftplRfmvW11jYadHZetT/5resMkSd4ubdr05GCvvkdr5GN38JBW2mUdMGWmy1Ivn/bXdWeH9g5nVuiaTtSHrZ7YNNMtnPYZ6/3Ved/6SuttrF91euydIy+KxlT59z2JHXlUb/UFgSUyW6xQJvm3k4tPdt1p+2qK796/ZAtGaQHKlcduXZqh5yKrsnJwpPTt5IO5vSkHdIjQC7Tp+1eXXrF7GE2k/qWdrf3Mqaene6Zp75q70sd/X1y25JIjn6LDt2zm7Zqh8rJJr32vt5eeHJlybUn59k+wf9NtzIpbaWzONqPuvitcXJ4+9Vrlnhg4zu74LgMU6nhUZD9p+8xxKDLcOEgn3p6Xq2z7BRbJilGztGq8+FMcKTP/HHesE6H8ffKI4fAvUcS2FjHnMM7AWiikKW9e5p2BF3P85t2UskSrEx8R/VOgvqAOi3/0xYyFHIC7EiOHpUCG2tg2CwxZ0BFLzqr1TFhdZqyW/2ATp1ZXTs22apCsrX7TQn1S9tXuW8pYMjpDkaSTGNO1jZoKukscvk/9/5s2LUEQUD53rvDNkP6gPQhJ8fc/k08OxdclOB8Mqde7l6PdazUP44+fL9qzg3fzepgaZ8p+ka7AR7PpC1p05zjzZVdfS63n1o7Bw/So3b6Bk3uVyKnk72gqZ225MqS0yXO84FNLvj35Prw4my/XF08I2nLpizRwMYKQUIuOQ0oOY6cgCEn5LrGzFEqlx05eMcj9HyCL98BwCorQZDKqgClaXZCBm0kgY2FcnljC7lOk+vc7ch10tyxnFzlgCats2ZLbuq0Y8Ysk+r/8G8fH6InlBt8e0sO48aNTTLzgY3afqcdt011Vnvu/cHdet4xcw4ecPJvm7xeMbCxz1f721FYnU6UnukpZWDYKZ6ABZoGqhb0FiNvgx71ZeTsdQ0dUVBi5eF1J6engvv7YIi+vP6ktQb0Z0zrGtreBgO563LkMgqUr26HeO5tg26LdE7yp24/+q/7Wvfy5YSmZbUj+6uu+Wa1zZQt0kadBDfWnkCubKBzfJ8r2U2PyqD7+AyI4H6d9rk6OZSCwJHSrpzoQqeDupyOl7C6vzjbT3h9zdFNW3bKPwz+XuxQORwSgsO40ohf+PyJLeHbBrLC4u/jPnV6OkfKKcO/8JUpretpMIwFBn0kYCzOP+vUwf8WH+zufM4ZJw1RNK8MVnG7RffIBVEHfvTEwb+GYo0wWYwFCxam6Y6RwGgRo1bXaWl7dOa8mSendkFHfvGrh6upu++UOiHBzcknHDFEVvw970/PpawZ89YWdO7Uk46urrz6+sEjQ/nh3fe2OjZB0I8G/icYHA3QbQIm66QW9YGJg2fUo3ZEhvQZG7xO33v3ITvGC55pDRDP85kVjllon+OOOij9ba+d87WL0m8FH/Yz2g2sARSc62Gaa8GCBUkeOZhyRueoL3poob0ff2Ju9cAvHx7i1OQksCPYDeQr+Tz3/AutYJkd0akjx+iDBMtA2b0BB3+MvmHhGOXgmSUjrnsceswpxeAHaNP5C16udt9l0Q7p4MspbDDKubngx7Lfvh9Iv71tyU1VWJAVfU4Djq3fsVl6bqd2U/dBf1jLQeaVYNBn0GT7ha2nR21GXeU/RmozkaUcfmmg/dL8+UPK6TOkvsy2fEKBTLcs7vaz4M/bDZiQ3WiyxAIbKziESmBy388erGZ+8ZJ0TMg4oQxAI2F8rHLK0D3469+2jDJ/A6NwS6cNZhXZgqH0U0wYZPCjAZz/Y4//vqXsMrIeArle0GREQGcDKTaorprOwam9YaUVqocefqyYBcKwEu2XgiBRmv4AOiEOgfswGq9zAPxQTowfa4EUDHPNMSeclqaWKOcZM44fvGqRsSbQsYFiO8OBTs6ec1M1ad210v+MZKd9cNdUfp7vjRfUGdkm8EwCE56BTHBiOXl5ZJSmTd0la8SoM0EN50g+YlHwtErqUwSAOSgHCyJLGb5OyQVQFjIHlMdnpQh+gfam//A5081AYL7vgcemv23/QzYEdQR39EOCHnTMQnvuuN2U6sGHfpPux/No73Fjl03PEtYB8bvUX2ecfn4KquHmW+4Yoncgmdu24m+CWNqoFNxwjKAS3UUW1NGXk89kM71z8X0UO6RAzsMxOTwW6dZNdapvX3XxzMEji+rYaTYQqJPss70fbVQa5St49Cjw6CXoP+VTeXIsN27csDbvBVbH6yCLsqTaD9rZwTrZ9YolFtggcI2YqCidc6stN22N/HKdvwSNiOPFUSmQ4W+i1Vyn7RSvqDJw3N9G2mqwnPHHCaM81Ns6VGUpvKEkUPOOE3LHbFbKZ3pySPYW5K0UN1MMBEd0kC0222jA+G1dXfaV67LTUzzHdogcPI/A1Y8qBdNJcNLxh9c6aI1C6OA+eFQ5qEdd2t9SlyGiLSmH8OUZDeOlaRmQwyZo19850EVlsQgyvRGTM8OJXXLe51J2SvIBHD2ZEZz+/PkLsrq7+ptXTfpIO5aCEYHDtSM2jBx1UmaG9iGAsgMOH4jLMB/0kT2HBNqgPsLnyhwhA56jKV/VgTa8+tobqtM+s0hn+X/NNVZryfTFl+ZXJ3/23Gqjty2aluY+BAp87rO9XEvGDseKHlIHtZUFneKH+6AzF5w9dBBF4EGWMZeNoo7qS8jJOhb+1oCIusz+xo3VP759o2Hl5B6yoYKy+4xN04yA7d+Uydtk7oNd8CDPnHOzfRiH6uVAWUsBTAnKww9l8dlCwJ5Jb+r0fHFh+4fFH6O9Le0CBqCNLIu7/ZYWRiWwwQDioGRgcw2C8WBtA+eijAg8F3nr/7oRP2Ao6ahyksBopBeURucscKQTUgcUiKmLrQeO2Q6pDpVD9fbQ+eDyL53Zqm+uw0vJBNfNm/fs4H9luF4ZDe6L82AdCWlI6knQQHuh9B899jPpPJyNHA3UtYWHZ+AYPZSX8pP50v1w0DyDQM+OrCkLDnC1VSemkVhdVmr99dZOgRvtxn1zaPRfAgfBDzq5OJCzVNCBMSZb1C4wl1EH5Ccjhk5q4GDbSQZLuoO+8jnnT5iwUuqXHtaeEMRr4ODL1K6/8zlBs3XO9h42SLXyply0H07Z9ilQ+a1TFwTRyp6CgjvpNQZeTsQ+W/154cJFumqDL779RVBEOdBn8GUSBDw4C+5nZU+ZkSGBmmSeayNhy4b+KxDhuZTlnAsuH+hXC1rl8O3gyWVVyQDY55SQfuaCuaYgdw2elCX2EJwDU9vq8xZrh62eUb7b7rgnZfgsvSh3L8HuNFmXYtsb2tkrYe9hWVztB6XAzfKanIqio8nAlsCwyVgSQWsKQg2eiy5z/GBAmbmOH0Yk1vG2cwpNwOD4qSspIp8xPXHO+bOqf9x8k+p3v//DkCkmZWH8PDgjOigpWmnevB1cV3JOJXz9aAdrHGX06Gg4GE395ILQHBifXB2J+DG0izr5q52E8vCMNCq474HBo6+ORFvOYHCdjUcGwTpPOSJ+M4Vl58e7JRfs5px2U7hGqWPkv/z4caM6GmKqloDyXVt9OP3fLpDCSZOx0FSNxfZ35K/sjEcGHSPL+y1yQYmHNs4ZUcqB3eDZfoCAcyObQ3vbTIXan8ACPUePbF04h0APvUbvJQvahDU7TOcBAxj6cE7/gICIDC3X2YCBQRfX6RjPxn5Qxk71Rv2UqUWVw7aDxcsBcv2kDitvD3WVreJZ2GA/dW/JZZ0VpJDpImhTOUt9SjZYoM9k/SmfDRTqyt0raGd+3r3tOwePlKFc3QQX3V4nFlf7+b9z8AwGEKPJEpuKAjIqpFJRZCJ0OR2LdZ5eYETzKP6Ud2yWjCWdV9czwsoJVw3X9FtRQEcBjLLtNICRItvR+mbOYAekPKxNYGFzzmnIseQUjTL6+f0m5NYFNEUOlYDGjxRZdIvsrYNBFu2CToHMMOi2XHVBAMfk5H/35FODR0cOxtIGcdSNAFptSZs1pd1UFPciOGu3eK8EeoyeljJOQs8hUMyRG6WrfSUL2ic3PcK9FXwjO7tuqQm2bOi/HFG30wFcrwCGPoLdAK2baZextO2Pbnk4xroqwOkrO0Uba0oJneGcXFCs8kl/Ldw7t/icdiAwI+hpqifUncEUfdVPD1O+UjbT6wJ9sAm0I1N6yu5ZfCbBytjTbrDKc/zUWhO4Dhmiv9Qfn8HA5Z+2eUd13Zybh5SbwR9TkBauyU2zN4F2veXWHw5r1xyUs+m6OQvtnVsb1pTF1X5LE0s0sMG5yyDbrzBCnRCJPlloqhEghhllxvnaNTo4ZJ/26wau1/0sGjXxbYoPTftnk4HYPpURI4tSMtqTUqJIKDeGUylpFE8OhL/5rNPOzXO0BqAbkLsddauuVqbdYh1SL5j79B+zDls0NdilqcBeIOdNYNsU9FhOk/agHQhu0JP7H3hoyMJBDDeZiZwTBQxu3TQHoGsEHnYq0EId+Kwb5GAJoiifnkUdJRN9k847YvqQx/YRUNuRPbFTRExvd/MNPfo36XMFffzvp2k45u2UUPly+kS5aAv6JjKmbWxWVOhr1sLLBb3WFyys7WPRvMrE9b1cY8O1Ggh6O0qdCUT8oKVbclkF/ENpwSy2CfAjmv6QvaJ+LHhHZn5Jwvjlxg3REWwy9Sv1kxwESNihu+75afpmZZP6U06m5DvJqIPV8U5ZnO0nloapqCX2HhsUz0bJMoR1aPpADaxGI5WWG/3LmJYMdxNkhEDPrrsvxk+j3+f/8mI6pq/sUj/qwNc1//zs8+kcys/oXGuI6DD2HR2CumqNDZkZZbJ0HeXE2DfNQnkUHALGoRf3ET47I6OaazO1qTJvPjBt57BL95bjskh2ZPf0mV/LRX3AlsG2RcnYUM5cO5bgORiZnEz8vdC/3HtsLO3kJDnrHT3Cy6mpLtjrbDBgUb/BWalduY5gRedbeXubID0i4EL+TOOwiHb/D++RRubcl/LqpZ3873VPSD7/euQB6U274M/jHPr+Hu9/z0CffiQ5ACsLr+u5Z3l9htx5PIt1QfratZcLII/cwniVM/eNN7VJSQ51qH62PfUsBWXt1j7aNvT22+P7bqkvA2WzmXOP2lf6b2XhdTon63ZQNtlbrwc5eCbknqO6WH8A9JHctwObsrjbD9q1CzSxnyNlib95OAj6ETo42KAhCIKlC5ysz2YFr30isAmCIAiCoG9YYrt7B0EQBEEQ9JoIbIIgCIIg6BsisAmCIAiCoG+IwCYIgiAIgr4hApsgCIIgCPqGCGyCIAiCIOgbIrAJgiAIivBOJr2XKQheCzR+j41/Y2Ed/s2O/i2Qou7Nkp5uXnjGc88+b1bavI43HPKGSSi9FdG+NZG/S2+T9G/xtG+1rMO/RRfsm0lzn9eRe2Nm3Vs0S298bPImSL01lq0eOnlDp8XKtw77tssSubdgjkTPkJvfwsO+XdRj36LbBP823tzzcseg3dtCKWfujbQjgbbyr/gH36dyeHnn5G/7s69fE3JviL75ljuqF16aX3sf2w7qe2xZ4dvG9iHfLnV6zLlQ+szel/vYt01LDv4Nwhzv5C3WMFL9tJTkJHLtV3pLbU7H0Y9O+7vagK1qfJ9vZ88ob6d2wpa7ib7WvbFb8uxkv0KeqX7HdhDtXipYp6O9hOfITvB3uzcwd/MG7G7o+Qv6cgItCdl39Dq4B3ijX0Id225CaJUjp/ClcoKUEfwrqJvUw3YM3UuvzrZGpaQcBD3ssdOtA2DbgPXWXStt2EaHp3PYMnh8kFXX6ZvSNDjiWXXbQ5QMV7d6pvuxOd7cp/LyEDKw7PfiX3WeK1euzqXyWx0pgQ5bJyddGjt2bNoDp1dGo1RGqOsnkNMV26btrheSnd/KwCMZaO+1dluSUB/r3MA6CukL4HBtX6jT4Vzftdfqvjy/ru+BdYy+zZtAObvRT/3fJCAqvY6/TndyOt5Nf5cO2cDGbo3i8Ta2EzuBTNjHio1H2b5nz6k7Vzd+9/Zie9j7Szfr2triZarr7bZBHHvw149WX5v9n1n5A2WAOlvSC1S+XNDLZ0vqrc6jugmm7yR2LxkqyoZyXhFLWQsUhQ7RlCuvvj79thug0Sl2fs+2aafTpg5AdWDTzboRcbsRB1A3oO7soKp7e7wMpKQ8WxtVQq4j5o7xHDbok6zZdp7I+QufP7HVUUqGCPicfb3onKUN6QT33WuPnavPf+HLxQCsZDTrRo11jFTPtMmcN3R1Bpdndouex67vvlxgnaNGOOz+rD3H2EgPKAOGQ/s90fbIoRfBDXJjLybKCLly2mOU8z07bF2defbFg0eqpCvTp72/uuGm21q6YK/h77qRrXbAxzDWgTwZ/aI76CryYT8pKwP2YAMCetpV/dVupqrNJIHPKRsbKhJYsKEizpO/0TOrw5yHbSL7cs3l5w7pUwxG7POoM7Jid3hkw55xOGcCl4M+smd12VeuS+c1gfb27VKyn53Sri8qMIScA2MzUo7vd9gJWTtgN3vtJao/slEAxd8wEjtBObGXXP/yywur4446KN3vtJkXpaCQ6zVo9vInKFEAYsslOJYLqLD7sgUl20tQkQtu8JfUpV0GpRScNoXrjjv64KS/2g1f0C9JLHR775EwqhkbGt6PGmjEjTecXN16+13DRj02yuQ8r2Q5coaR+3z3+3cUG0yKruus4QGNyrXZZLtOXlJMC+d4hVZHs3KwMhC5Y5Z2Izp9Pn3a7tUXL7xiWAAjI5wLbFRGm/nKUTqPZ5fS67l0MPj2yGFT0yPRM9sGlKNdRky6oOtKQZpH1yHr3AjnB3fcU13/n99NUyk5gy8dA4ItbfSY25ixTvcXB5Qht6GnlbWte46SnDxev0rPoEy5UbqFe7ER5csvvzykP6OPZKD+5YBp1b+5/iNdxUFM3X2n6pHfPJYClVxmWG3IMfU36vnbR5+ofvfkU9W4scuma7E7lJW/c/pos7C2nDm97lQ/m7aR77/IQYMAySsXYOfsYKf9HdSenWRscLzd2AmCU2+rpHfTpu7Sqot01k4xcYygD5q0hQYyXm7IyG4aLXLypA19PRc3kg+6Wzd4GS1GNWNT4pvfviWlzVG0EgjCCkNGwSoexzwcI/KmE5QMO/flvKOPn5EUhXsyMrPGD0VStJvrdL6x2nVMIPoHnmMjaSk8Sr3+pLWqMWPGpP9LUPZcB8YoW2SsMJST1l2rWmaZ1w1+kr8HmRyBIfn0Jw6vvn79zcl52o5DZ/WBEBkFsBky4PPzZp6cOjd/0yZcj6Hg+lIb1XUGPb8dTfSMciN/jBqstsrK1ScHyku5rLEGr29jx46pzjnjpJYMcnKRoxCMYnxamnNwiKtMnFCtvdZbklHQ9cDn8xe8nMpEW/I391z9LW+q/s+9P6umfuiIwTMXsc2ULaqTP3tu7TqYOqyjkQ7loL4++KCsBDUjBSeFnHCQfiQoeD7TA9bxcx7BNe3my6Q2hpz+2+yY78/03aee/mP10COPtvoJOopNsrpKRgiDngtOLS/Nnz+kvwmViXtyPRla2kOBAlMi9J0mdKOf3UIbUUbKOneg3WgDOOeCyxo52G76O7KSvLAv1NdmbOQvfL/1tLMTtOmECSu1MnqUhyADu0aftH6DTDzP45i1mXaas13GhjYhE5QLhGyG0WIHEmQryVpS7tGkZCeQD5neTTdav1r9zatWDz38WKpjqX1Hg8aBjTpAk6gTJa1jnz13S4rO/Wz6EuWg0YWUAGfJVEoOjLxNE//iVw+3FA5Ubh+NI2SUr5TK41yCHVsG3YeOa+FettFo8Fx0LVBqfhTV2mwGZWqCOjBwH5+xodxC56FwwLmMDqmfxRs+6tFufYNQnQT3QrbWiftOaQ27HakgC9tWHmR6xozjB/8r007PKOOPBgKN1VZdNMUz2tBOPI+6WphyAWT9hpVWSEHO2zfZYIjuYKisvNT+++37gcEjvcPqPqgPMS1kdZrgQ1NAAsfLtC3BxqHHnFKddPzh1XVzbh5iN+zfucCJPkB/P+FfD00j6ft+9mB2PQHyZBqO9rQwwkbOtC/na0rLO1f7bPUh8LpsUTDDfe1AwsrI2p8cfIYD7Bac7JgxwwO9XtJkoEbmSNBvp++9e8pUwcH775WObb/tO9tO/dMGXgcsyCvX330whL4yYNSg0QautFmJdnaC/5l6Qi9x2Dyzrv3a2UtbRmHLh5xOPmHRYEV2VIMH6oiNIFjwPk0w7UofLAVBYqTTUDzb2gmwPgRZMUhHptTBB3ujSUcZGz8CyEHhraHxBhlkGOgIfmSpdQQYmsefmFvt/cHdUgQ6f/6CbAMQEfIMzkfQXuGUSchF4yUDRh0oB2WiDKQ7bRkU2OSctyWnWLYzYhhfPzBS6PU3WnIgH6UGt95q80YKhjzVcWywZpFDyE2D2bnlptBJ/EgaJ67A0gfW+qwbPaPsu++2Y3KeYu7AqNy3W8lA5p4JuWMYIfSFdStkEywP/PLhpGMyBBhT6TNYQwfIaOHCha35fdCIHj31o/KRoudTJkatk9ZZM2UWCT54poU6bP2OzdJnhxwwrTX1yfWlQYYFPdNUGs+DzTaZXK0y8Y3p2dxb/Uf6iTws1Js1TAReTNkhGxyD10PvvAk4kZ8vI/ZAI+Ic1PUTnz4zBVnv2mqREW83hWZHux4/7dItneqnaGLnaRufOeL8jd42KQ0uda0yOQSXOXl0099lu7iOHzlo9EJTtLmpc/SvW38Eul+uzGCPaaDmoYztAh/BczT7QL9CX6j/FpttNCCfrdN6rNwAmrLbtZg5aD/sdi8DZO6Zm4KlbJSRfoE86/pFr+j5VJRXJt9JrBHiGEKQYxQoIFE+DhihIDBGKXwTxYMjQInpPD5ljSNh5IZh5TjGRA7AO2GBcqI8CB+DhoGknFzLgjjKwHQAUDYCKQVzdQpLvelAalTu96c/P5umH7bbZsuWQtThjaGP+v1UFHXBSO671/uqGwfK+NlPf6y6eNY1aURLmf31go7v17AgNww3dUaugs+Z5mKxdtMO2w47kqacFvuZ1aVu9Iz7UDcFNpx3yXmfS86Nenp9sffkHLj8S2emc8GOVlQOOXNQuW1gwzNY06Hz4V0Dem+n7kBBNBAwEvxoyoXgn6CbbAnnSWd7DffEYEp3CNJtP6KfMhB4zw7vSs5++eXHN8qsCWShIF/1Fno2bcCC1HaOX+tT6AOUU7K3lDI2gmPcg2DKBpYeMm18rjZioKN+Wjcq9hkHkA5ZGEjxjJLNytGNfgLXzZv37OB/Zbi+1LZ/eXF+yhrwXMpMwIBtyrUBdNPfATutvgKyj1xD+cjk+wC/GzshOJd+Z4MT6QjkdJI+Sd/86c9+VZ3/5asGj+ZRXaVH2Ft0D3vMZzyTOn702M+k86k/C85lF0p6loNnEOT1Ctp79jduHBbUCMpVWmQ8GozKGhsaG0d99Ec/MnikDEIgzWdR6pjRDxCt4jxLwkC5CWBQIitURmwERzqG0mAkck4YpWWkIUNAHXgvBg2FEhAZMwqjDEpRWjCgNmLPodE+98NhMqK99IrZ1Tprr5F+qKe/r4Xy++kjDBMLxchccQ8ZAc8uA52E5woFoDYg4/PcaJ+sl19nY+E48sMo6RwUnQ69tJDTsxzUVd/YIGggeJDeWZ2hfhjJkYx4kDfGgK+Z23UyCjjRX56JXO2CYGQNmnIBgpl773uglaIeDXiuAn++/YNDpNzWIJORsugaix2FK4BmsEAd203jIA+CltzI0MJxnALPtlk2i8+Y2ClCPuN/Al1vd3QdgYmQg/OLmNEfWx/dd4ftphRtBjIR3MevD2pCt/rJdaVBZDtwutjQA6bvMWT6ibYotVOvuOHGH7QCU9uuNjtz4scPG/yrTMlOoNvK3guOUc8dB9qSQSr2m0GGbW/OYUA8ZUAXmV7O2Vf6CAMBzSpwvZ15UJCutWTqb8iboE7fbtWAox3obalPdAvredoNYkqyHQ1G7c3DLMaqM1AeOjCNCzQaDcv1NBadheDFovNJbXEeQrXKQqPzOSlNC/9znM+F/tYzZaSYJ+aeubUEPkWJocdgYfQJjvib3ygRf/O5ruf+GCpGtILPfLDVDjoNKXDmsff8wC5pSoN7N4VyE0jJUeZANjgcOmwdpIAxwJKlOvRorwXoFKtnOZAJjpb2Jw1M8JAj1W/sssOcXlMWLvxrMkoE3hecfWoKWNEV9Ie/0RfKqWBRuinQP5wPTghnhO5svtlGyZnZaVfag+CDH6vz7aB+9DugDFyPrlA2ykO9yVJgZMmyoHfosO0jQLm4RnWiL3CNjpGF4VnoDga6ic2gTyIz298ttDHTdMiPdTo4ulzdbTkYxSM7wWfUj3pSPu7Hb33GNeqvPAcHR0aUARCy4qu59HFkpTbgPGSQ7jvmdam99Xz9YDNYwC404i/VtUS3+kmA2c11PE+DP5w4aO3YaLBocPmqDd5913cPk+P6662d2lXHNtlw/cGz2+PtBPqtjD1QX4IUslErrbh86xttHJOegB0codunnnR00hX6FPck+0i/kq5Z9DnBGQGz6gHoE/e216FrOqfuB73NZQHVbyhbU9rZ0yVFR4ENqSvbaCVS5xh0aprTpCH4yY1QgBSo1rCk/weFXPrqKueT1cmBQjASZtESDWeNOwaHEaOMMdiggueieBp5KZrGcetzfUNF/1NO7pvLanBfjvM538JCfjkHYCHqVnn58VE49+BepCCRje41bY9dUtn1nCZQXtXdwz2QIynEdg4HOdPJb7vjnuovL76YMlIYdt9Zm4AjKtXdfmZ1qVs986j9GR3xwz29PDmH+o1k1PPzXzxYmwVDbugvGRnpKfBsGRLOYQQkp+czmyonjpgf/uZYO6grusXXl3FWOBAMYq6s6B7BSaeO18I9coa9G+jr6ovcc6stN03Ojf5OP21Sf4/NftBX1N9AjotnPff8X9I0lAIWncdv/vd1REelr/phfRfrvICyoouakgfaxgYeub6idu9UP7k3+mazEk3geQTpTJ1QV8pG30c2Tei0v1NO+kA3OtetnbABCjrGei+feeFvMpa0IedQTrI8ucER9aQcy48fN2zQLrgffQvdAZWZsihA6ZbcrIPqXBrMeagfA2vvTwXlK9m30abxVJSUFUVrh9LLy7zudckglOY0iQytImMQOA+BaY7xfTsPXTRpFZHzZTwEwlXaTotAZWgsKB4BmFVMoJ4YIKB8dCBSqow+VHdGnUTudGjSzRhR7k+5cYIYN85RtoIG5ofya3qhDkbtViEUQVNmylCat1fZJT/K0WTlu+4LqhtwjU0vWvnb8wSyxNFyP2Ti26YpOGFd60cP9jOrS93omQXnRduxPgDdlQ4A9ZEuIc9DDtxnWGbEY5/JNf55OJ128rHy921Exgcjl4Pncg56a/ssskNH2kEfou+9e9t3pvS5dKmOJno22tDmdjpZIHutz8EQU05h7QV6wXU4MMlM0CclO9sW1HvZZZdNbZGzM3VwvrcF9F1G/WCngG3fox1Frq+Q5elGP5FFN+uzsI0+SKdMtp+q7DzLZ3877e+UU1N8yKsTurETPE9fZOHvWVd+PdmInJwoK2VmQMD5yJMyqq/KN8q+WFsNth/Z8nSqWxZfL8A+aLAuOp2GRBbMZJBNpk8QqLVjcdmJnr+gLwiCIAiC1xYKKpdUlqWXRGATBEEQBEHfMGqLh4MgCIIgCBY3EdgEQRAEQdA3RGATBEEQBEHfEIFNEARBEAR9QwQ2QRAEQRD0DRHYBEEQBEHQN0RgUwPf69d3+4MgCIIgWPrp6D02ekui35KftzfaN6nyP69r5kU/9qU/vKnQbubl0VsZefMhGztOff97a9+Cyb39rtp6G7Df7r6EfbOlp1RfD/ViC/9PHnfokDcq8jZGXm1et5u4pdPzRU4OJWzbCMqvHW2bvpm27nzKY990yVsu2R6A167n2kXtbtvay7SJbOwbYUv4Z0l2vEbetyHtn9u0rp2O6a2/KifPYFsCr0OUV7tZ1+l5EARB0JzGgY11NICTwlnhBBTYAI7FbgmQCw4w6GADITYctAa+FCxYSoGND4pyDkrOiVfOU45OAiL/WuhSYOEDPkHd6gK8HN5ZWnS/aVN3afvWyFxgkzsGTQIFj5cNZSMIYnv9y75y3bBgtRQ8UCaQTHOBjZcv57CPSinAyz0rF9iw7UVpDxn/+ne1O/e2fUL4eog6Hahr6yAIgqCeRoFNycFp9MvmezgC7X3igxI5N43wH3rk0erCi7/S2h+jlDXBcQi/14VHDpX9mUYS2Oj/ErZuPCsXDFEf6p1zXH4fKEvOeVuoR5N9eyy0CUFLTn603wHT96iuuPr6YeXMZVGEb886dG4ngQ3XnH3erOrjxxzcOuZlg26wQeqRh30k7eKrc3oV2CjQs0GfD6TqAhvqUAo2S/Kj/JHBCYIgGBkj2lIBA33nXT+pXn755WEj55yDbueY65xpDutYRCeZF1BQ1W1g44MonN/GG06ubr39rmH3UqAmR4ecOpk6yTnmOnLysY5adWaXdGVZck6Xa0oZDItk6du506konge23FanrhwIxNjs0G+m1qk8oRTYjCRjgwzZBM+XD5qUUXTaH4IgCIIOApucc1PKnF1ofUaAzATrCmTEcQgYaOuYrWPAySpIwEnY63AkV13zzWqbKVsMMfI5x23vo3NzAYEPZHoZ2Dz6+JPV+OXGDQvsKC/YwKbTDIPgWju6t47VO1OLDWz0fHYnlmxzZbLXQCn4UXBrP2enYX9uu3rR9n7nY47P/saN6e+X5s8vBg3dZGz8eiB2AJ607lqpvrZe9m8oBTalcnEtwRnY87jWT9fm9DgIgiBoT0eBjTXqOedWQtdioDvJ2JScpZ43GoFNJ2tsSoGN6uodHZ/ZAEFOvI66UbvKPOGNK6Yt8jsNbARy1OJW/7l3/HUoGMkFGO3uw7XUAf1gK3yw10tWvV5/ktMhZFCXsUG+7dZIKSDn/vf//MFWmRXENJlOjIxNEARB54w4Y4MjxaHaTIc35lwrZ28DDOtUcgGJrrP3tU4o55Q6CVBADij3/Bw+Y5N7lu7JuXatiK9PNxkG4D5+KqYuY1CSiQ1EyCQccsC06osXXpHNpFjaBZk+YNM6H33u6yU5IJu5Aw6fIMvKhecRSExaZ81iUJPTT7KGO24/JVt3rXWi3Aq47MJnyWzTjScPCQItts5e/gpgCNJUD4/qRYAknRHUZ96fnutpEBcEQfC3wIgzNiwKVWCjkezW79hsiDHXtTixbjM2gLNhfQUje56VC2xyDt47UpDjUkCWO6cduWCoJCeCAMpuP/MBQI7SqF2Oc6cdt02OV8FJzhHmymllJ1m8+NL8IVNoTcrn8eVV0NIksFE72v8pJ0HyDttNSeuW6gIbK1uuAwU2NvDmXGWldN67ttq8pTe0GfUm2KB8Jb3QtdzH6t1zz78wJKCV3r5t8nrV2edflq4BZZ/4zAdlPtAJgiAImtHRC/ow9lM/dET6Oe5Tp1cLFiwc/GTRZ1dfe0N1yXmfGxJoeJYbN64654yTqjlfuyiNmhnN8/c1l59bbbrR+oNn5cGhcW8FLICDsuBUWCNBNqUTuG7ChJXSO3R6CY7tuKMOKo66Vf/cz+VfOrNabZWVB89cFCTtd9gJSf4HfvTEFCCSbeB/5E9WYt8Dj221ET9HHz+j+ssLLw7eIQ9lw/E/9cy8avreu7fKimPNlYv2Y00ObaZjasurLp45JAAgAyNw3io734xDh1T2HAq+Tj7hiIH2fN3g0VchmPjUqWclufSKG278Qas8/PZl5YfACygb2SUP9b/g7FPTb8r4iU+fmYKud221RUteBC5qLz5DdnDCvx6aZGt1PAiCIGhOR4ENxliGGedGACH4LDmgAaeIMT9t5kXpN6NVUuol5i94OZ2LgX/s8d9XK66wyKCXrrPOffacm9Io2MIzx41dthhIlPjlg490dV1TbH1wjHLocva5H+tUqTMQOKgN9ENQAbkg6fyzTq2Wf/349HkJZMpCZKZECE4pqyC48OWiPHwbzgZRdetnlB1RmQjY+Io2OsTfTAHh3D1cUxckE4yCdKYbfHCy+67vHiI/W1YdI+BDz2hPG8R5kOsxJ5zWWhRsdZeMFPei36AH1J92/POzz1Xbb/vOYe0gneFHgVUQBEEwnFHZUkFZk4Wv/DWNVvkbx4lhP2PG8S1ngOMim0FAhJHHCTNS1Sh39be8KX1t1hpyrpVz99kBHAHTMTknWQfP+9Hd96av/HYKWSs7mvdTCmLhwleq+fMXpPrZTIiCEqYllAHBiTKlAwpWcnUlIOSZTNVwLfVWOZhusfhyKhAhcOH4sUcekJ7DQmRkj0zABiT6KWVschA45OCbTTxXmSfazTryJqQgdtzYVnaOAMHXT9jP1EZNgpMSfCWc9TelzAryP+f8WdV5M09uTSlJd5Ebz6UsCnAmv3Wd1I7A+dybKTRkIr0mCOKnG1kFQRD8rdDxGhsMuRY84nS1DsI7EhwdI2GmIrQGocm3QRi9s4aGDAr3xoBj4P3iTw/XHXLgPtX3b/vRsG9q8Wytk+C+KqsWixJw2TUeTaFsdWtsvFwkL1snlQFw0Mp4yVnrPK4l8JLs231jhmAQZ851+0/fI7swmvLxkju7CBm41r8ozreD6pLDtjX1+/gx/1Kdfd6/D2l7++0mL0ee79ujpAc4emRt5Q7UDerW2Hj99GuzwOqOZEH5/HomXc8C7EuvmJ1ddKw2UduRabJ9wn/jy7YD9+daUJ2DIAiC4TQObIIgCIIgCJZ2YnfvIAiCIAj6hghsgiAIgiDoGyKwCYIgCIKgb4jAJgiCIAiCviECmyAIgiAI+oYIbIIgCIIg6BsisAmCIAiCoG+IwCYIgiAIgr4hApsgCIIgCPqGCGyCIAiCIOgbIrAJgiAIgqBviMAmCIIgCIK+IQKbIAiCIAj6hghsgiAIgiDoGyKwCYIgCIKgb4jAJgiCIAiCviECmyAIgiAI+oYIbIIgCIIg6BsisAmCIAiCoG+IwCYIgiAIgr4hApsgCIIgCPqGCGyCIAiCIOgbIrAJgiAIgqBviMAmCIIgCIK+IQKbIAiCIAj6hghsgiAIgiDoGyKwCYIgCIKgb4jAJgiCIAiCviECmyAIgiAI+oa/e3nhX/978O+ljm/ffFs166qvp7933nGb6rCD9k1/i4svu6bacotNqs023qBa+Mor1Vn/Nqu69/5fDH5az2dOPCpdBzzn/p8/WB3/sYOrMcssk47BfT//VfWdm28fdhz47LNnXjD4Xz3jxy9XzTjpmGqtNd48eGQopefnoM6rvWmV6n07b5/+V71323m7Vn08Vk45+Pzm79+Z/rZyCYIgCILXGo0Dm+f/8kJ1yufOrZ78wzPp/1ygUcdV13yz2mbKFkOcO/e89hvfqfafvkdy6P4Zm2+64RBnz+f/+5xLqkMP2ifdxwc2F116dTX1/e9tPcOfDz4QeOyJJ6tTTz+vevHFl9LngvqBHL5485smVp875dhqheVfP3ikN1AXqJOp6rP/h/eorptzc20QZ9tHcpr81nWKwd/Rh+9X3XXPT6ujDvvwiOuGTO+86yfVfvt+YPDIIkrHgyAIgqBXNA5sfnDHPSk44EfBwaYbT25lDkooG7HZJhtUyy47prrl1h9W/3rUAdWll8+u1p+01uBZVfXnZ58f4tRxgnO+9b3qiEOmj1pgI0dPPeb+4ekhmRA54ZVWXL5xNqUdpSCqDhtIkSX68U9+NkROyBdy7eCzSgSKhxwwrTpt5oXVQfvtlWRywcVfrT68zz9XF8+6ZoicugF5E5hO3X2n6tmB9vzzs88lmb5rq82zx9vpThAEQRB0StdTUXXTNB459EnrrDnkfJwyU00HDzhZnJz+z4GD//gx/zLEAfvAppSNyMGUCyhQ8IGRzTDlAopeUBeUeHLBZC6YyyE5ERy1C6zstJkClQ03mNRR3XkemS4/rVU6HgRBEAS9ouvABqdMlqOJw1MQBHaqA0cn/H34bN6fnhv1qSg5b01/1dHp9Fs7KH/TzIUNApG7nyLz2ADFyklwbL1110rTT8IHqd0ENmoHmDRwfx+EgT0eBEEQBL2kq8BGDo/pjHYjbxzalVdfX+39wd2qH959bzqGU9NUz7Q9dhkWkJQyPKMR2OTg+X4azAdyuk+TDJEyUh7KXwpQbGBCeS657D+qyeuvm6bGdK9cwJKD896w0grVgpdfSVkoZHvskQekezMVRbD53PMvpONQt9C5HQSxcweCRKafdG9No+WOB0EQBEEv6TiwUVCz047bjtqoG0c8f8HL1f0PPJSmTTR10S6w6XQqSvdcEhmbugBLgcwnjzu0FRQAgQEg93blVv2U6WF9zdixY1IwWUcpCAuCIAiC1wIdBTY42HMvvGJEI/p28IzLBhwx2aDb7rin2nWn7arTz/pyK8NQCmxw9D4T4AMh8AEFz/NrhXIZm17DM84+b1b18WMOHiZLH9iIJmtykImm8B789W/T2iCQnOw9vMya3D8IgiAIlmYav6BPAcAl531u1IIaHK2CGjn0NVdfLQVSs79x48DnL6ZjOZhKISMxZkxngQhZELI8+x54bDX1Q0ekn+M+dXrKbNhj+lH2ZKR879Y7q43eNikrS+QwbtzY2roQ/Bz18Rnpt7BBDQEZgUwuw0QGh7oc+NETU935zf+lhdtBEARB8FqhUWBDloOghixHLoOBsz/6+BnJIY8EnDRTXDhkC87/jBnHDwQ74wePDCcFA2OX7TjDQnZiztcuSj/XXH5umrJhHQo//G8/45jNoHQL8vrRf91XvXeHRe/K6YYVV3h9dconj6zOOX9WddrMi6pzLrhs2GLrEkw3UafLv3Rmqi+/+Z/jFmRKuxIwBUEQBMFrgY62VOCdKDZ7sd9hJwzJGIwUApq6aRCCCgIcAh2CLRw5KPBiuqUbuJ7g4NBjTqmm7717WoAscOrUlezNY4//PgUUI4GgBjlqai0H00cT3rhibYCCLCau/Mbq/LNOTQEnGaZ214jI2ARBEAT9Stdf9x5tCJhy61wUGIBeXsc0VO5cMg5aY/PLBx9pOW5dxzO4l9/yoPRsweft3gfj4Zl8M+ySK2YPW6OkBb7CvpTP0m4NjDIrmn6SrGz96u4Ra2yCIAiC1zpLbWATBEEQBEHQKbG7dxAEQRAEfUMENkEQBEEQ9A0R2ARBEARB0DdEYBMEQRAEQd8QgU0QBEEQBH1DBDZBEARBEPQNEdgEQRAEQdA3RGATBEEQBEHfsMRe0OfftgvTp72/uuGm24pv9P3MiUcN26Haw2ez59xU3IHc7+4NvEk4t5u2xT6TN/ze/P070/852HNppG/v5Xn3//zBYXs/8TZhvxu5sG9lbod/27Kn9PwcyGO1N63SqnNOxh6u0Y7jOayM1e5Qaqs6udS1l7035b7y6uvTG6JLeiB8neuoK1sQBEHQW5b4m4dtwGCdFmg7BJyvdYRynJtuPHmIY8GBnHvhFdWmG61fLViwMOtI6hwjezTldsMGH9iUnLI9r1tKWzbsvOOiTTO9ky5twTBSqCeUZALatmL/D+9RXTfn5rT3VAnKr3tJhpPfuk5qy9x1Rx++X3XXPT+tjjrsw626Id+5f3h6WJnq2qT0mT3eJBgTdquOUmBoicAmCIJg8bHUBTZ1ezDZ0TXO5YKLv9pyegpqlIUoOWU9D+dYl3UBshqHHbh3dfHl17bKRBAxceUJtQ58JBkbG7RRRpsVQD5sdrnSiss3zqa0o53Mc9hAKhcQ1gV3nG+zSuwufsgB06rTZl5YHTQgN9qOdv3wPv9cXTzrmlbwILl4uaMTlCNXB7UDulCXseH+p3zu3PR8G9TY6wjKCILqMmJWPy3tguYgCIKgd7wmMzYePvvFrx4elrXgODuAKwAojbTl3NlxuzRat+WsK4t36jwTp7nhBpMaOTbrBHHmF116ddptnPJedc03q22mbJH+Hi1nWReUeHKZM1/mEpJhKSixEGB++hOHp6yHvS/32HjDydWtt981LNPSpL04vt66a1W33PrDlk4oeNxv3w+0rgNkzd910116Bn+3C5rFaGXbgiAI/lZ5zQU2c//wTGttzgn/emhyahPeuGLRwRMAXDZwPs7jh3ffO2z9jc0E2EyLdVRQ5yj5LDc9Ap0GNqBrnhyoazvs9E4voG5N145Qb9oCuTXNgNmMmpUhcIxAg+knoSAiFzBx/qOPP1mNX27csGDDt1ddxkZl8IGvygg2sNlhuynVzC9eko4D99Dntj6ipB9W3yOwCYIg6A1LLLDxUxLQdPEweMfo/8dJ2akqnMjZ582qxo0bWx1+8L5DnCPIaeEgWUBKpmf63ru3zpMTZ+pk7NgxaVRfot3C3G6g/HO+9b3qiEOmtxy4d5g2SGtHabqsLgiw9ZJTnrz+umlqrBQQluC8N6y0QrXg5VdSFkoZM+6tdnvu+RfScShlbHiWvUYBAp/5AK0um6Rg0k5H6f7gA5uf/+LBJHed0y6wAS9v+kApAxQEQRB0x2t2Kqr0v12MShDCWo01V18tOZGFC/9a3f3jn7YcG89WBmfFFV6fnvfiS/OrVSZOaDkbG4DZNRv22T7AGClLKmOjwCi3gNZnF5ALkEED5NKu3ApMkVfTIBGQ+47bT8kGbbqnAtePH3PwEH2Bdt8UU0BNYIX+6JtR137jO617jCSw8foiIrAJgiDoPaPyHhuczH6HnVBN/dAR6QfD3gQc0hkzjs+m5XEiOadhwYHte+Cxac3HnK9dVJ18whEpqAGu3WyTyelvoEw/uvveatI6a6b/eebWW21ebfS2Sek6ORqu4144V8D5z1/wcvXbR59o1Q8nTZZD/8vpdwvyY4HyNZefm57NzzlnnJQyG/YYP70KauCpp+dVTz8zLyt/T5Knaw+uO/+sU4eUjx+CL4IYggZkQxDIMQKo4446KMmWH869/EtnpnP5zf+SOxAEIQd7X4HuENSQ1aKNBGXkHpyr6/hBjsiT+/352edb66u+f9td6bomMmgCwd7jT8wt3o9p1AhqgiAIeseoBDY4masuntlyIk2dLyN5BQcHfvTE6qFHHq2O+9TprWPtAiRG7zzPpvy5xgcaOD849aSjk7MU7xoIbHBCBBYlFi58JX2VfKWVVkwO2Aca1tl2C1kQMhMEaao7ciCzYY/pZ6SBlPjerXemwI728+CgmcYbM6bshJHbUR+fMUR+yN8u4CZ4yOkDwSF1od2pO7/5n+NNodwESrlAwQae/CDH+x94KH2moBk58m2z/afvkY7XofuVpu0EWZ8111gtK1Nlu4IgCILesVS8eVhObbU3TWwFCIzY119v7SEj9JxD/MEd9xQDEUbuOFUPU1G5ezGqnvbBXaurr71hyKjfomctO+bVgKgOAoKjj5/ROGsFBGaqM4ETARTZBZ+xUdahF9kFnPqP/uu+6r07dB+YMZ13yiePrM45f1Z12syLqnMuuGxIUFNHk4xNU3y7v23yetVqq05MusT9mHpCbnYdFPVnkTnrdGxZyQLmprJsBoigKAdtzrf1mNYqwTogQRkUePUqWA2CIPhbY4kFNsrOfPf7d7ScWMlBlMDhLFjwcss5+REw2ZX58xe0dfyv/PWvyRHjiCgDU1mf+PSZKSixLFy4MK2JYAplzJjXDcuq8NNuBN8UnDNlOvSYU9IiZoIxQTl5Fs9+7PHfp4BiJOBEkaUW7+ZgDUm7aRPkPHHlN6bpKGREhqnpVEuTjA2ZMpvBK8natjt1I1A96/QTW3UbMxCUsgibzB2BKvLUN+e8rpAF5MfClGZdFlLBLMHVFz5/Ylb/aF+yQ4L/0S09j79LwXUQBEFQZokvHhY4mCbvM7ELfe37aOScPYzQNTWFo7DfitEzwX+Lifvh7A45cJ/qrPNmpXIx0v/dk08lp/jgr3+bXfiJkywtIm2C6uG/WUVZ/beiLE3k5+EdKmQTLrli9rD6a4GvKL1vhfPATv9ZkAcoEMjVr+4e+ozFw7mve0vWvrxkVGzwYeVD4KD2oTxNF/D6cwlgtFha9QGek3snEuW1wRiZKftcyQZsGYMgCILmLDWBTRAEQRAEwUiJ3b2DIAiCIOgbIrAJgiAIgqBviMAmCIIgCIK+IQKbIAiCIAj6hghsgiAIgiDoGyKwCYIgCIKgb4jAJgiCIAiCviECmyAIgiAI+oa/P/nkU/7X4N+LFd4E+7FPnlZddc2ctFHgb377RLXlFhtX//AP/5A+5y2tTz/zp2rSumul/y189vd///fVqhMnDB5ZBG+fffg3j2ev6QXc/7Y77qm22GyjwSOdwZtqP3HymdX/9//9d+Mycs2MM86v1ll79fTG5U7LgJxnnntJtcXbN6zdwNLDW3BP/8JF1ZR3vL3txpeXf/W6arNNNmi1XVOkA3O+fUvaxsJuDVG6b6n+Xk4WPuPt0Rtv+NZhdZHOsGP7Dd/5flu5lnRvpPj+oJ+/DJT93vt+UX3+C18acpyft663VqscVi78/cnPfGHY+fz4fmbpRj8Fz5x9/U3Fe5dQvf/n//yHts+0NqGuTUdKO31p1/9y5zTpJ7oO/Zp15dcbyzKnk/Tfpvfopt25plO7xJvfzzznkuqFF1/qWL+Eyvr7J5+qfZavv5597oWXD+sT6kfUATuQ69tN6ge5tqizGV6OonTcojqNHz8ue+8mNK0X8jzi2FOHyc7+3Pi9/1/Wjuf8Tyf62Q1L/M3DNM5Z/zYrCYRNMHPbIoB9RT6NzqvsD9pvr/R6fW2vsOoqE9K92KeI19Fz3gUXfzVtbJjbr6dTUAIobR/g4Xz7mv925F6jTx3s9hHcc+4fnq7dq8iCAjXdMsDCdaX9kyycxz5Spe0LhN9ygM/8Ng0YAG2RwD1yW0iU6u/lZLF6QAdst5+X3+rAQrkuuew/qk8ed2hPdMpi62bb7cqrr2/JBdRnpOdQpxfqL2Dl3Y1+IlttI9EUv72FkJ4cMH2P6pZbf5htOzHSftApyP/cC6/IbjVS91zbNvQLNjnFXpT0Wfj6qf33nLpzdfpZXx7Sl7ydsP1GWP3xz+um3e29oZv2qHtuTkekt011TfYE7HX23t5eWdnpefgVKPkiwXY9bLDrbV07VE5s0XoDAZ50n4Cgrr52eyCoa+Om5GxJDi83j9cHUdKLnM72kt6HSh2C0WajRDUYm2ECFZdRkHAEhhnlQ9CT37pONW7c2CRYBMqGkRgQjj/3/AvV2LFjejaioww4xXZGQYpL2VUv22lGqzFz+I1Be42Mt2fTjdZvGXE6D/s8AW101cUzkzwINizsW4WMdtpx22QwLHQsa2jYiZxnsNGmhU0yhQIUCx3MdjJ0C6zBqIPyr7nGaslRLc527AYZrYd/+/gwBw3d6CfnLTduXNop3d8vh++7QgHieTNPTv357ZtsUAxMgfPp5wxeKAOb5+IAckGq32etG5AB+31979Y7i8Y8B3vIAfaHvuGhH0hnbcBg6yedPPmEI9Jv+ovALlpoY7uTvaW0Ae2SsEv0XzZ9vebyc4eUibpyfP+B4DbHxJUntIJx6xOEd5DSeepD+6NT791hm/QZYA9lr7zseMZxRx/cCkDli0B6nNMF3z7eYeeO6dnSX+wW9opNc5EP7VLXH/icgSd9gM2Q6+C+e+2xc/X5LwwNkC1sPJwjF9Q2Qe2g+6qe3A85Y7993/WB20hYohkbqyzqYHXReclgyRB4oeSUUc/ZcINJHRksGspvwtgJTaNrKQQZLOrjFdzXKdfZLXz+i189PGSk3gTKW5ex4b45p6JRjB2d5mRHvXLZNB1nBEGKdKQZG863gejRh+9Xzbnhu0U9U1BKMGw7ZhNG2jF9WRWY1WVswAZ86iO/fPCRdK+mhqmpfgpf1hK553Mtzsw/y9bLXqM+S8CLfKUDBMJ1xn800LNztsOXP9dHJA/r7Hyf5xmQ0yV7HZRk1rQ9F4dd4rMmugI2iytbAE36If3lPTtsXZ159sWDR16FrA0BDsH0YQfvW5193r8nG6A+ltPDds/MXSvaZej0+fRpu1dfvPCKYTpcsmfg26JE6Tyenduol+OlbDR60i6DZf0zz85tWrzxhpOrW2+/a5i+1ul8NyyxjA0NZ0ddKImiVfAdQ52GvzUql5GQI134ypTW9QgW4ynjP1IWLnylWrBgYXG+01NShLroWopBmTE27GhdBzJ8/Im5Q0YkFmTAqAAZo7RWkUQ7hT3woycO/vUqMj44FhucLGqziYNn5fHP4/7Um+wL8+60NyNVytsLuN+7ttq8VU64656ftoyn7VDWkKJHGjFbKNfZ582qPn7MwcMMTi9Q2lwOpx20KSNL20e4Vo4k17Y8A+fYrX5Sb+TFj4wn2YGcs7cgXzt4KT0Lh2KnD354972ta5D/jwb+x/iOBshRsrNlsGCvbMCigPb7t92Vyr7DdlOq02ZelP7WZ5QbG0Umx6PrcEDdQibC9m/+f+aP85Ldso51cdslnodeSudURs7xjtv2P8tQ+1KfsQFkzjM5TtaMcuDIyRJQjzVXX606/6xTB89ehNpddZUNygUAQL24t/VXuYGezyjLZzHwwN4ts8zrBj/J38NmoCnbpz9xePX1628eMssBOXmiV+Dbi8/JlCJr/lYQSVDD9T6oEaX+AHp+O7757Vuq8cuNy/aDXrLEAhuEJ+VSp7/vZw9WM784VDjWyACNSUNhTAXpW4IO0sBSQJsSttjndgLTWqT0c47eIqdPOZTKlJNqNyoSKAlGiTpISXNg8JW+zsH13IcsBZ3Qd06w5bRQ5nZrbDiHDsbnODgW3pXOFXqev78cpB31lSBYw3Gs/pY3Jb2xyBBYJ+xBJr4dpWe032sdyViOQP0Fx6SpyZHop5AhVhYM5yBjK6cwbeou6VgTfbJw/tHHz6gOOXCfavacm1qLTXEI0z64a7oH/eSl+fOHGH+oM8DtoKz8KFDMkbs/9SXgYoA2ZszrkmNEPjk04AB7XTcQuKDPs676xZC+w99/eXF+sltW3iNp927sEufxzJIsOoV+qr4qCGA8NvjkN21mM3xMMdqASH5FU+ZA2ZlmouyaVqzLjtuMrXyazdhYGeg8ZAqcO27sssNssQIGBSy0WZNBBPAMW1bu5WdFvB20fclmpJCTZJUDHTtjxvGD/5XZZ8/dUj2wRzZbj74i216xxAIbGl5pLwROo2615aathkUJ6pTIguA1mlAgw9+MgDox1HVIyeuQMvs1PXQKRmR1oyLbKWhs0u5cx3NzYByVkSrVkeu5z5R3bDZw7q9S+Ur36wbuL6Py1NPz0m+Mmf4uQdlpHzoYHUt1pxNhWChnDjo1Rs2mq1dacfn0mdUTGexSwGfn7XFgwPXoYW7EuDixBtk6u9wom7b3UB+yZrSzRs04v/nzF6T65tZcdaKftI0WSzL6ZG0ERuq//3ug7LfckX7mPvVMaiOtnwGMIgMKjYzrUFDK+bQlwZGw7QydrPcZTdAdAi5k2QTW/iGbTq/zELgggy9/8bPVpVfMTnaTNmGQsfsu26dAsCSbTtodKO9I7FJOh31QWjewwJk3DVgJZGzGhswJuvvQI4+2nmn7GbbHoiCAtTp6pg1M2jn6Jti+tPVWmw/T7Rz2ufQNDRYs3NcHVcLavqZQb8lKoBcaMKFDFn1GssG3L23Cs1kLe/Jnzx2S+W6X7e+EUQlsbINBboSD0yGq51yUjyAmZ/T0v3VmOQhocGZKvwHCXZzQGWhMT12HRGkYvfmyMr2Gk8iNRkDZmJKBQelZW8MoBeXeftt3Vldfe0PHo/ISGnXqmyOMgBhVN7m3smkYlEMOmJYMMkpNhz3uqIPSZ+iFhfqgJ3QaonvpAdNMjGiQF7KgDWZ/48Y0wimVpWnGhmfmjDHkDHKnBiOH+grPRp+FXauC7DEoHowP8uE8+hKLnJEJ99IIGkfn6UQ/uR8BvsqAfCgbx7V2bef3bDukjTw5eyBoP5vSliFXALq0orZBR+sgcMfJovvKaEC760ogL9p54spvTCNgZPftm36Q7NA2U/4xpf5pq1xf6KTdxUjsktVhtbOdOuGYHVgQtBGQ//Rnv6rO//JVg0fz2HvnePnll1N/UqBG/aiDvQY5CXSXwJrzaBvJyTtfbyO8//JTUfRRAvd993pfdeOATn/20x+rLp51TZJrXdCPvbFZaMpKfQg0KSuyE3yOLWZtXql9O8XK1/dF+xnyEgTvdtBhP+MYQY0CsF4zKoENhW6X3aCjkVGhcVBeomquU9SKEJpkbH5wxz3pOn7o2BhXwMn0woHXKZtFI4Qc3IP1RN7xUUeMRy7YwOitMnFC9cAvHx488iqMxqxSe1ByInlGG/ocxaODEvg1GRm0g/Laeejlx49LQVQ7KBuBB6NU6sAcs13Lwuc2XYphUIemk/pORf241znns+7lX9KiQH0jokTTjA0y86lh6juaa2xyeOMk2Qv0iCD28i+dmepEGXE+lNHqAtflUr6d6Kfah2kO2oRycD3GfZspWyTd1JomjvdC1+rITUXZFHovuO6bNycHb2XTLRhxgnccE46HPjOS+9KnZXe4z6knHZ0CTjImBDtQ6vOdtLvoxi5RV+7XacYGXSMgJ+Nc+tacyuqXHBBAKMvAb3RCU3ay5/pc9oW6Ce6rz8HeS2gw420E9SWAXf3Nq1brrL3GkODJssuAnKijUBvRR9Xn+TxXb9rUr7OxcJw62D6oQHFpgfpoINtrlthUFGAsSFsy4mBRLnPqdv4PbFDhR3p0FBQWxUeZMKa6nncE5KJVGeam34pCKUrK40GJUDZvDLgeYy+HcNLxh1fXzbk5fVYywBzDaVDeBx/6zeDRRTBtV1IIWz/foTCifAZN69QU5M696eh14HRJu9pOitzUzjIWdMJSOtVDPTGmx574+dqR2/N/ebH1bYhSxgaOOeG01shoSYCMyISR8dSoCyMFtKE1dIwYwa5XI9BkwSOfc53XBT/q7EQ/cVh6low//RLjzrOZXgYNMqyRHg3aTUVhF3D07b5BUoI6EgiOJPgoQSDg18B0AvLmHtap6/UZam/pizKalsVll5iaxqEq8Iacw+aYHVgQtGk5AT8K2jhGfdBzpim9fqFzZGbQc+6hqSg/GKjL2HBPe19sFGu92tkF2V8GEtz7qmu+mepcd42FNuFZlK/Ub+jzCkjr0DSxsuGUjUCxV68/6RUKfHvJEt1SgbQl83MYR5xJeofAgIHkB2OJcup/ftTQdBQW8vI5ykr0yjwxHVrnwtQPLRpNLi5yo2Ehh3DJeZ9LxoPyM8+YMx7dgqFDjjj5XKegDHQGOgWLb21H7gZki3GhsyNzOjOdmg50/wMPpTahDfjN/0AH8w6G/9VuyKgTQ0+d9zvshFQnghoCAgJkyuBZYfnx6f4YWL5mqWfyg3Ncf72102dkG5saohzIpVO9ox4YTvoCU4YfPfhDKWjHOGHkgDZFNjgDskZcgzzV1rQn1+pbHFyHwdA7QvgcR5iTb1P9RK7Il3bFMSA7Pd8aTt0PfHtQR67P/RBwzn36j4NnjhytL8IRdgJ9mXJSx24CIsAWcB9An3D6kic2bN68Zxt/yxKsA1BbM8Wse/r2BtqBjCb9FH3xNG33kcD0J4PXnN6VQF9YI5ZrNwYhZHrIEhOYWex1tm90AnI654LLkowJItBL7AvTRmSG+V8DCqF+gf3DxvJsmLbHLqmdSjYpB/pWKjf3IOONr2wnT9qQtuS1GX958cWUTatbk1kHSQT1UTsIBPsZfUZojU3uM4tdA9grlth7bFAM+y0J/s+lKi12jhFoZBSJqYXcCAPFJGIlBann9Aocl2/gTlLgKptf4d5EDh7N2V7z9W83zjRgBPV+Gzpy02eqDTBWuXeRAPez2Rbq6t9pQNsxOrMr4y3+HvyPcdaiVa7h/0nrrDmsDDoXw0f9wD7r8d/NrR59/Pfpa9/MA2se3LZfN+1gs00YM2iqDx6ejyGifIyEvaGjjqV3TgD6qfZhAKG6NNXRkn56vJzqMmZAueqyOOhFLvWuQNEGGaVzLV6PmmD1td3bYMHaJfqVMgFWZ3P4tQmaevd15TM5BekY97ZrP2x75+pJOzX5Vlqv7dLxAw74mq9/a1gb2bZjfZ7qp6w8z9M0m55bsv9qG2RDhorMLLJTXRg8a22NsO0k1F7YFNmFXH/RfUHvzVG7lGRry2rPLemwlXddn7W6UXee5FnXl0t4WUk/mXFBDgRLXo/5zNt8ex/uYf2nn40ZKUt8S4Ug6FfUya1BDRYvuYAoCIL+JgKbIAiCIAj6hiW6xiYIgiAIgqCXRGATBEEQBEHfEIFNEARBEAR9QwQ2QRAEQRD0DRHYBEEQBEHQN0RgEwRBEARB3xCBTRAEwQjgfUW9eJN3EAS9oeP32PAGQ96Iqjcc6m2CvEWx9IZPvanRvqGwyVtDu8G+YTH3XODZ9k209g2Vdfg3X4pu3m4qkN+yyy5b/Z97f9bo7aa88Vd7f+Twb+OsexMs5a57ey1ysW+PzJ3f7gVoXl+gmxfX2bIgg9zmfZZuXsxG/ewGl5QTSm/ELMkvV2fBZ03f4Nrubab2+T+8+97aN892CvLL6ZmXUQ5f/5w8bPt0IhORewNv0/4uZLs41/cbi97oytYt/m3j7bA2o0k9vY1BTrypmf2OvK61s6Hd6KfFt3W7/gC+b6tNmu7V1bRswrabf7twCeole83eWqVX/ZfsvUf3O+gje6Y9Cv3GpmpDL7d27Rd0T8ebYGJEtDGZhYZhq/RPfPrMIa+LtsaCwAEjsf6ktaqrZ38rHdPuru2MeDdQRvbKoHNTvtK9OU8bpFHmnBGUkcjt7cI1vPbeyoTz/evUfUfhOvY1QbH32/cD6ZhHz5Vx0ivetYO1N8adyJHr2cOltGEo9aFNqYfKzb4zyAfDAzhTHIkHA6VXolswdOxX1OnePZYtNtsoOV2Vw+tiN1AutkHY+T3bttoHZ6I9mXTMUtoDh3ojk1y5cKLsr2SRYewmMBbIBHAivZAJe/BgdKmbrTt/IyNeg1/n4CwKMrShpzf0OZnkaOf0ONakv5ewu74LtQ3gNPkp2QhR1551r47nvsi8HQQP1hnbHbLtQKYb/RTd9AfZM/r31A8NDQCx/TYobBo05OA51u7ZOqNbueCzFPSwr1Yqr3n1PzRtC8G+X4C9K9lTIf0nAApGh44CGxQaxS01iBRHDUuHYoO13Ehqx+23bhkH4O/RAGWlczOibRLNl7Z2x5CzK3XOkGEoGKV4Nt1o/ZZxQwZkHCyUibJ10rl5ftosdMBwTh64tzYaBBn+3O6t3hh4/KhFo1RkRie0xhPY2HL6tPenTfPuNaNQGay5A8/JyYR9i9iDRfszCa7b8Z+2quZ8+5bBI3n8dTaQtlDm3PNL4HSBPU4E7YJhx8BbZyp9VoZPssPAUo4f/dd9w+SJYdVOyqU28HUDHCEOpW7PIb9TOW0z0oEC1xHEoveQG9XaY+iL9s0R0pEbbrqtVXZ7DX/3eo+YJv2dfqLMCWVA99g4lD3lvCyBunlK54rcNb1EjtpmSPgbutVPK69O+oPA7mMjuU9ul++msE9VXdBFHaxf8fi6EEiAbXegv6F/DEqxjxb8AGgg285+gtUH7cOn/oe8aSfkWRoMBr2jo6kodSKchu8YHjlGFNQqBQaXkRGbjAGOn90960ZAnaBMgTWWPN/e3/9vIXjDiWiHZB3Lpd+RR04OdCwyEnbUpsBGIwPJhJ24ZZTsvRQgQC6dDKXnW3QfOminaU8vSzvSllGxwaolVzaMCCj9D3WjWw/3tNdamsgCco6UetVNbXFv0HW+LYFzNt5wcnXr7XcNk4kMq7Igvg1KMrDyzsF1Jd1YklDu3LRYnc7oMz8dLP1FXgrc7X1H0t+tPpXOybVNnf2AUnt6x5rD1hekA3YqigCipOsEL5Pfuk5X+qlggP876Q+guil7wjl1/bHpeRYfrOf0ydcFcvWz+pm7xutVXZuXPpOdAIInfOfChQuHBPoe6zeD7mmcsaGhUUAUEgWgwaVYU9759uqWW384zGDT4Iyo//Li/Or1y41rKTNIodl2n2vIkjz9xz8lBSk5y25B2TTVBETjBFalzAZKhwHFQKBgpHTnPvVMK2uheiADsldWqakX0yTtYETpo3/dlzLk0qDWMHIuz/fGpZSq556ekmFQp6dd2BGYOtnnwFNPz6tefGl+de6FVwzppAQOSu+ec8ZJ6bkqk91lWs/jcz+N1w1eFpTZB0Ec83CMESzOxBsswX057+jjZyTDmtMb+Oa3b6nGD+g5epOD+58x4/hUZ+5F++PIDhiQF9z3swermV9c1O7ewKmt/FqFuU//cUh2ok4HmuL1zMrQQj0IzpkW1TmUE/3pBvokOiMbwv07mQ4QnfT33z76RDX7GzdWhx28b+OMjb+/h/KXMhZ1GapSfbGTcv7YGupiMzbS85x+W9rpJ3TTHwAZrrbqq3bP98cS/jzsTy6YVxAPnGOnmxQM004scxgzZtGgOYf0k2uU7cVe02fIpqjPENQgVw/y98E3WUnaBD1Dx2RTkR9TVJPXX7d6+eWXW+01beou6W+1d6yx6T2NAhsawCsukGkhIMmtOwEa1qcM7d+Xf+nMpCg7bDelGjdubPWHp/6Y7lfqUL2C+tQ5U2UWcMQYDJTQKqItHx2O1CnHqBsOvV35ueZHA87IG8x2UBbWIlgDZp2QYAoActE/z7bZJxwlnZh7q9NrDRU/dHzaiLqDjKwfWVIOgiACPYIeOjR6oeuA6SmMwL33/TIdR048W1NGHCule2mTRdnCZ1pO1INclO6d96fnBo8Ohfb51KlnpZEvsiBlfN7Mk1ttJv30wTWGFoNK+U7+5JGDR4eyz567JXlwvR29YahVR+C4nUKEdw8E+FBaa0Jb4EypIz/W8M+ec1O17jprVNfNuTlNDZJtHAlezyQTHL8dMZM52HCDSUPkRNtTBoLdQ485pTrp+MNTuawzsH/XBU69Ar3y/R19RY/pI6eedHT6zLdJDmSiIKMJtn78rqsrciXw9fhgiDLg2OXcbXlyzli0009k0k1/oM8zBcV9QNf4AMBS1+62r4jUhgM+gsBB9pj+67PrlKkO9BN7vc2ULaqttnx7sm2HHDAt+R0+Qz7ct7TkArnZ4IXnqr6yddxL92FadKUVl6/mDgQ2fI5dKi3lCHpHo8CGBmK+HSdkeXUecvn0O4cMAWlEziNK1vQLaOQzZszrkoOmE8tZjhbWmXr0GVNJfhEihtyvieF8GRM6Bqy6yoTW3zlQ8Jw8uyU3CqTNSIdbMAxv32SD6pHfPJayUNSD0QppZ9sp7cJe6q42wnAxUmRKBYOggJZn3XbHPdUXPn9ichDoBaMUye3pZ+YlJ8dIZc8P7FL9+dnn0zU8HwNCmh04X85F5bfpfAxvSWacL2OkgFvPt6z+5lWrBQsWpvMxSt6Z8c0XyI1qZVAxZNzDrztCD3gmC1hP/uy5Q6YukXMuCG2HDyB9O6+2yspJ1gRr6EFdJqFbFFQhs2NOOK2atM6aaWSMkSZwtqS1aO/YLH2Gw/jihVekESnXl5zkaOP7O+3ACB3nRsaYvlq3hgk0DQJ+DUcJBYaQC4i4D0F4Lgiwz+A62VDKgA6QFeW63LeNutXPbvuDUH2lL92AjakLziyskWEmgKyx7SN1cM166641MID7VbXZJpOrlxcurBa8vDDZddlEdJj/c/bDZmz0m7YiWGLQha7pWuTJj4Itjo1G/wyG0+g9Nmogz6ur7scPHhkOnZDRHx1mzdVXSx2TrIAcqeD+nOcN90jBiFkDw3NxgLlv5fAZIxY6OQrOKIRgBjSasdE2BgQDTsfC6NMh+BaRHHGJkjxxelM/dERKhzPFMFpgOGgDyk89lxs3LgUj1IHgh8BMIBOcJp956OSUFwOKwSBTtN9hJ6TPpu2xS3q3B3V64aX5yfDICBLIkAG84cYfDAsU68AwkHGh3Bb+Z0GjFndTlwkTVhpSD0GaGmeAY/P3oa5k0jD8tCFtXno/iaZN0Fl+CCoE9cFpEJjZa6Xj/odrGcHmPrvq4pnD5MM9KRdyf2n+/Gr3Xd+djCtTCLl26hWUg/IgP77V6Bd58mz6Fo4Dlh+wC2QgmrZvL2jS32kHHAxZHFC9JHMyyWRy+K1j2C/v6HgO+u9/7PMtto1pL4v9zOoScC5lYW0iUEf6GgEig4xc/+xGPz2d9AdPSTb8YCNyeqq28nIWVt8oy5/+/Gy1ysQJ1e67bN/6tlYdfM41b1p15cEjizKlyAObdPMtd1TXffOmYXYesCkMlgjWCYiR7TWXn5v0BH+BTeX6B375cGugloMgR3LAzj/0yKOpH+tYu4xT0IyOv+4tpPSMxjx8htMjbcf8f+7rd7m5bDtKGSkoMaMwRpcaVdIhKRfKlFvZzzUYD41OKAsd9JOf+UL18G8eS8bHdjqu1UiWZy0/ftyI0oy59Gy7zgoa0XnsVBcdU+sM6MhKveL8CWbuve+B6qGHH2tNQwmez+dkZwji7GhK6WzOsdkV/j/+pDOT8cT4EkTYIIPnE9B8//a7UsDTlFSGec+2UsboGVOD226zZZomeddWi75h1y7AxBmgu7qP0Lc6dIy2YBSmryl3AvfIrbOQrvjsQKn9rI5izAkUlcXRV5sBXcXAYiRxYr0eIAB9gXLSTzHqZAwwxtJb2oNMpEXXWGx2QnVBP3JZBj5vguTaSX+3WB0Gv96mZJt8n8UxaUpmNGAwQDnBZv+s3E78+GGDf5Up6adlpP0hZ8/UZ3PkMuKC5wrugU0hyLj0itnVOmuvkX7o96VMPHAdGbplXve6wSOvwjP5xhe+ytt54Frs4KOPP5n0FH1lqQLgL7AlDODISufKL9Ah6ZFkEWtsek/Xbx6uU0LrRGlEjRr4wUBgeO0xfjiGYbZoZNpJFEsHwJBi5DCYBB4YM+6FIQZGP6CvNAJKxhoRHLGMH9fgzAlqcDJ1i+6AtSHMOXOvTsFQeCOQg3szorDk5MmIgjYQZNe0zoBOS9txjP+R0eabbZSCHZy+BXkS7GjEQnvr7xKcc8HZpxY7Kw6aNsK5Y4yaonLrGsoBW/3jpq0RNbqCfHw91JboGOf5TAJl4nP79VbQeh0+7wY918L0kbIBtB2GlL9t37Dth9NllEuam89yWRxAf/gcWNiJrlBujQY7qYPVM40ycRrcnz4tvaHsyljyfK/D6DXX8KMRrurLj62LzzL4z3N029899IXHHv99msYEBjg2Y5MLakBZVv3kBnEjYdH6l1ftItk5Kx/KuP56aw+R2yYbrj94dnty+gmj1R9KEADnMiUWBS3oGnaajKBA79oFWzn9FNyTtWqAH/A2HD0jY7TVlpumAQVT6+i9slnoD/aMtuLaUpa7Kd3222ARXQU2ch4lJaRhiWotHMPYMgXC/LCFzpVbdKu1Erlpoxzch/vjIKxBpLykblFMDB/PYfRGB6VDAYGaXQjJca7BqWMspMw6X3BvGVXO4xsiCm7uf+ChdA+Uk9/8PxLoKKxx+Kd3bZk6FQpf6tDUnREZnY6ykKGwKVKuscb61WnFV9tA8qSzEkxoqgeY6iFw7QTuR6BK2ZXKpQ1KqWkrP52DzqF7tIMts+5d+poqusQoPEcyat+4cdHCwAF5WaPC88kwyHkLZRd0ns9KiLr1Pk2hLdHndoZbcB6BHu3DyJZAgp/c9FsO9AUdnrr7TsnI0/7ods65o3/tgo8mIHf0tZP7jKS/W2hXphGoL/3rpz9r7khskKafUjvZIMgHQPYz6RLtQJm7ke1I9LOb/pDDB338+Gl2+QXqyRq9XD9ROwt0jp8SyNY+sy7YlN2wNpw1oJQTPQJvPzWw4tuMZEyvuuabye7w9Xr62IO/fnTYlH4nUKZu+m3wKh2/x4b589xXu/nMdh4aBCVFYYhk/TsIUBqrcD7tDnQcO8XRKSiDRm25NDQKS6p6u222rG6/88fpHH0luZR6ppPzOfXZdustq18/8lj23r7slCX3bglGIf45XCu5gcrCsxk58LecT+4bRBaV89nnnm8tOLRTASW47pAD96mumf2tNL2AoeMrsWef9+/pmZSJrIjKQKYhZ9ApMx2TtPFpMy9MwaM/TzIleGTKAHL6IGzd0TPkyf92UTp4ncyV0csacudZ2Zfakmk6DK7XbXs/nqf3kdAX/HVkB3FKtFFJprZepXOEZAvIqs4hiG71TP1bbe7bT/2xk8XDXpZ1deikv599/mVpmotv1BC86SvruofvI6ofA6BcnxVW3lYmtp1BTlOLh61MOJdnEFDadtD0vmwocNxPZ4xUPzvtD8I+w9dX2PICz7LfahJcb/tuzh7k9ElyteXyx2Sb+VYUr1co6RRl0ACeQZTsJwGz5IEc0B/aWd+WQnes/+D5WhQt3SihqVnk1Gm/DV6l472iFic5JQ2CIAiCICixVAc2QRAEQRAEndD14uEgCIIgCIKljQhsgiAIgiDoGyKwCYIgCIKgb4jAJgiCIAiCviECmyAIgiAI+oYIbIIgCIIg6BsisAmCIAiCoG+IwCYIgiAIgr4hApsgCIIgCPqGCGyCIAiCIOgbIrAJgiAIgqBviMAmCIIgCIK+IQKbIAiCIAj6hghsgiAIgiDoGyKwCYIgCIKgb4jAJgiCIAiCviECmyAIgiAI+oYIbIIgCIIg6BsisAmCIAiCoG+IwCYIgiAIgr4hApsgCIIgCPqGCGyCIAiCIOgbIrAJgiAIgqBviMAmCIIgCIK+IQKbIAiCIAj6hghsgiAIgiDoGyKwCYIgCIKgb4jAJgiCIAiCvmGpDWzu+/mvqtNmXlQtfOWV9P/Fl12Tjj32xJPVORdc1jru4fNPnXpW9fxfXkj/+/s0od0zSlDGo4+f0Xp2O3zZuI7/S9d/++bb0jM8nE+dKXcOnpMrV+l4HZSVMnJtEARBECxt/N3LC//634N/14LTPPX086oXX3wp/b/zjttUhx20b/q7CVdd881qmylbVGut8ebBI4sc8rXf+E61//Q9qjHLLDN4dBE48NXetEr1vp23b/2/5RabVJttvEFy8N/9/h3V5045tlph+denz4Ucv8qGA/7OzbdXx3/s4NYz7L1yUNc53/pedcQh04eVC3DuZ/3brOre+38xeKQ9B++310B9JlafPfOCwSPNGD9+uWrGScdUK67w+up/n3NJdehB+yQZIoP7f/5gqtfCha8M+czKrlTWzTfdsHrmj/OqJ//wzOCRRbx5oIzIlXa5+ft3Dh59tRy0ma+DPrNt2w3I/c67flLtt+8HBo8sonQ8CIIgCDyNA5sf3HFPclz84NxO+dy51UEDzroUHAg54M022aBadtkx1S23/rD616MOqC69fHa1/qS1Bs+qqj8/+3wrGMGRXXLZf1SfPO7QVuDigxHuO/cPTw8Jrrju7PNmVR8/5uCWk/WBjYKiIw/7SLX+emunz5sGGwQD3AcuuvTqaur735uewz0uu+rrrUDLy4dngoI04cvGdRdc/NXqqMM+PCxg4x6zBp4hCJTeNnm9JKfDDt63unjWNdX+H96jum7OzdVuO2/XkpMCPWT345/8LMlLwc6mG09OwZYP/IDrNt5wcnXr7XdVO2w3pbr7xz+ttt/2nameE1eeMESeCrByQWATJK+pu+9UPTugB39+9rkUmL1rq82zx70cgyAIgkA0Dmw8NivQDgIOsj2T1llziAOUs8ZJ2/vo3gQuNmuQQ8EG95QTt8GODR6uvPr66he/enhIpscHF6Vj1MFncXy9vn/bXa1M0pgxy6Tg4eHfPt7KZsiB+yxJHWTG9v7gbkMyMh7um/uceiiYAQVYCogUOPrzIBfYwKR1FwWjCrKs/IXqueEGk4bcsx08k/b+zIlHDQmYS8eDIAiCwNPVGhsc+uNPzE0j6ibg6HD+wLSJIHDBcfNb4GRxYmQScIpzvnZRdc3l5yYHevTh+6UsyzlnnJSO83PyCUckp6rrcsyfv6Cacfr5w4KaEnMHAo8Jb1xxiLP2ECScc/6s6ryZJ6cyEDQR1JBdwKlTT47zOUEEMoPlxo2rzphxfKpPHQR7/ADXPvTIo9Vxnzq9mvqhI6r9DjshZdD4zf8HfvTEIZ/zQ/kIcqizjhGM8MN5nM91HCdjhez4u249Ehmq0cqW8Mz5C15O05XIX5SOB0EQBEGOxhkbu1YjN0ovwXU4fbIOP7z73nQM54izZt3EtD12aU3raB3Jiy/Nrw7e/9VpLmUkpn1w12r2N24clpmwGQLwGRscd6nMfG6zM6qnzbQA5c2tu9Gz7fQM55LJOfbIA7IZBj3DThlZlFnxQYQ9zjP8dJ0oXS/qrhXKkgjW0Wy60fqpzWyGTXVdfvy4RkFjCdqBwIVg2U7HlY4HQRAEQY6upqLaOe5uwYkB0yJ2PY0csdaS5KZccH5keeyUisrpp8AsPrAhKGDNyJ5Td65OP+vL1bSpu7QCCRvY2ECvNEVCcPCj/7pv2MJae20JPz0HPrChblrM7dH1TZ4lbPCXm4rSmqIgCIIgWFrpeo2NDwh6CU41t1C43VoTyqTARgEKThnn3C6wIRNARoBvCvlFwGSC3rvDNq3A5sFf/zZlgVZbdWL1wkvzi8EFMHUGL82f33VGgzL6Bc5Mzcyb92zbjA2BjV3oDAoU7bU+cCsFNt+79c5hU376JlVkUoIgCIIlzVIf2GgaimDGf+WZz/y0BYGNFh4T4OTKae/J3woaclkSZTz4Btfvnnxq2OLhuimdkoyoX2k9kMWXp9uMjQ1sFKyxgJkMjQI6Mjr2K/x1gU0um1Y3rRUEQRAEi4tGi4dxjtd986b0G3COfO2XrwvjsHHgnb7orSm8T2XNNVbLZmiee/6FauzYMekbSBYcul1n4+E6IFACHDwLlH1QA9SPRcCbb7bR4JHewPSVFkDnfghMShDg3HvfA9Vqq6xcXf6lM2uvpfzHHXVQkh/XEdTwNXQySazxOfmz51bT9949XedlNvOLl6SAh9/3P/DQ4NH2oAfoA8FREARBECxOGgU2OEfeM7Pvgcemb87wbZqddtw2Gwj0Ehwx3+phCioHDnTBgoWD/zWH68aNGzssIOqGuU//sfXtIv/jp48sfJa7Rj/2nTWCLBTH+d1JoIUcuSecf9aprcwKwc5Zp59YXX3tDdnAVMEXQR8Lh4UtO9+wYpotCIIgCJYGup6KGk0Y6a+37lrpZX5+PY2fxrELdzUVZTMPmkryi2d1XWm6CHD0mrYBPzXU7VRUE+y0E/gpJf9snmUDKeoHHGtSbtUV6tbLIP+YigqCIAiWVpbKwCYIgiAIgqAbYnfvIAiCIAj6hghsgiAIgiDoGyKwCYIgCIKgb4jAJgiCIAiCviECmyAIgiAI+oYIbIIgCIIg6BsisAmCIAiCoG+IwCYIgiAIgr5hib2gjzfr+m0Dpk97f3XDTbcVN3bU24L9W3ktfDZ7zk3VjJOOye4vpTcRs09SJ2/Ptc/0bz/2+Df99gLKaHffbgplZVuKprtv+7cl80Ziu9GoB7low1EL19XtxA6UjQ1Lray433e/f0exvLn2g1I5RoJ9y7J/q7V/Hv+v9qaJQ8oEvrz+PnU0kaHF6jF7rJV0VP3Iv80aqAd0q7+5e1oo49nnzao+fszBrc99ucHLx+t/qQ+OH7/ckL6v67ba8u3Vl2Z9LWsXSjoVBMFrkyX+5mFrSK2BA2vUrZORIWITTmuAcRrnXnhF2teIPaRyWxnYZ1jH2c7h2HLasnhG6hhKeMPukUz81hF1EIDhjOv2tMoh5+F3W6fu9//8wST3hQtfGdZ+NojJBUy0AZur/uPmm1Qvv/xyti3UfpPXXzfJow42N+1mOwtAng/++rdJn6ZN3aXV7kC5qKsCG5X7yMM+Uq25+modtYN3xJZSYMPzcjvWa4PTTpwz8rSBRhP95Rw/KHnzgB4RjLL/Wl1g4/UAfJ+0chZe/3P3ycnLXgdXXn192ntOz6EfT37rOhHYBEEfsdQFNqeefl7bjA14x6igRk4iZxxBz8Mp1WVdAKdz2IF7Vxdffm2rTBjwiStPqHVcI83YUJemwYacN1iHImerzId3fCUH5p2ml7PFOzjq/bbJ6yUnddjB+1YXz7qm2v/De1TXzbm5bYbFtt+qq0zIBq5QKre/X6+wThenLQc49w/PpOfhJOsyWj6DQT0VQHtH3C44RR8J2h97/PdDMlrqN8ceeUBXjpnr77zrJ9V++34gGzB0gq+vpfQc6diUd769Ov/LVw2eXVU777hN9d4dthlmE9B5dvWftO5a1Y7bT2k9zwfaoPbzgTC6SvtFYBME/cdrMmPj4bPcdAvH5/3puSFOOjcCbuIYbDnryuIdrwKKDTeY1Njp+uCidIxy+yyO6jJpnTXTud+/7a7W1I4c88O/fbwVAKp82uizCTgcHHpOlqIka9AztUN8rv3k5KHUflxXCk5Hkq0BL1vJtRR0gwLaJueKphkbnHZOjzhHgVW7bEkTkGk3gY3aNKdHtMW/HDCt+vcrZqdyPvf8C0m2q7951erq2d8aPKu+zXx7qJylwAZsG6Czvv+pH0dgEwT9xWsusGGkrCzBCf96aHXr7XdVE964YjFoICBQ5uKHd987bP2NHSXbTIueJ0NXF9jwWSlbIIM/0sAm9wxv7DnHrk+hnAQMU3ffqZpzw3dbx73D5G9lVtplokAjXZtVwkEfMH2P6oqrry86dMmXctKGrKl66OHHatvP1sm3n28H4eXSDcjosq9c18qOyBmX7klZFBDQfugpf9dlbCydBENC0z8KBikDUA4/VWShrT79icOrr19f394e2z9KWN1SfdHl9+ywdXXm2Renc3y567I8otPARvehPDajZv9nPQ/6E4FNEPQXSyywweD56Zami4fBOzX/vzdoGEbWEowbN7Y6/OB9W4ZPzoBrFUwwD0+mZ/reu7fOkzNWGpyUeom6UXgTfGCj4MtmWqDkwKk7wRRTZrqHHGcpK6VnlIw79Qfv2OxxnqHAVE5L6DxNVdEOdqqJz23g5p+Xaz/abrQyNkIOlHI3DWwoe11g4cllEyDXjiV4ptY3lcqXCwI9th4WHX/XVpsXMzO5TJ7XZf4HWw7p3osvza8e/s1jg0cXBUDc7+zzLxs8sghNB6M/lMcH6Taw8UGTrZ9kEoFNEPQXr9mpqNL/MlKMRHFuH97nn9OCTgzqwoV/re7+8U9bRo5nKwMgo4hxXWXiq47EBmAasfpnc59SxqYbvDOQ09pz6s7V6Wd9ubWY1Qc2chDU3QaBFsr+o/+6b1jgZa8tkRux+/aryzpwPYuVgayFdaBehva+kGs/3w7Cy6UXtKsbePl4pwrUw2Zs/P9N2iGXqSHAqwvmSrKyUEf/jSVQmazjz9UNuIcNbm27EqgxNbrnB3ZO56rcoq78Xk5cq0BLAxjwgQ2o7lwP9h7WZkRgEwT9wagENt4JlEak4B2YwAjmjJTwhtoayVLK3Brj7916Z/X4E3NTBkCZGe9cLSqnUt9+fYClFFQ0RYENxhqj/cwf57UcmUbxTG2xsFIOnG/wEICtturE6oWB4KzOAa+/3trp90vz5w9xkJ1AGX3GbZspW1Tz5j1bm7FRu9BePrCB0v/gnaltc08vMjZWB6FpxgZy8imBvgDnk+17/XLjqp3fs2j9kccHDnL4Vhe6DWw4B7iXDXBygY0PNIR01wbl9Kn9p+8xJGDzwZnO4365vs/nZMHs4AJ5EyjPuvLr1dprvaWaPm336osXXjHMZuharxOSSQQ2QdBfLFUZGxmgEjZA8oa6ZLjtcTlGGDd22WRsraOsC6ZUTo0Q+QbHXff8dJjzLJWjE6xTzAVpcjTrT1qr+t2TTw1xZt7xebzjEZS7FCRYfHls+/mA1mOv5Xk2EPBys/cVucAmJ2vK0YuMjZUla2yaZGwAHSbAxNmWylBXxnZt4YMCaFfnkqwEemG/RScd89M9yN22g5/+8e1KOxKw6NtNyjZ6VH7eNzPzi5cMGRyoLAQeNutS1w+EzrGDA9uutq4R2ARBf7BUvHkYRzD1Q0ek0decr12Ufi7/0pkps3DOGSe1juUyKT+4455kqHJgsFgr48Eg5+6FkZv2wV2rq6+9IV2bQ89adsyY9LsdBEtHHz8jGfxOYHR5zeXnZp0AxvvkE46oNt9so8EjvQFnIlnnfuS4c+DA7r3vgWq1VVZObdfJtciU7JkPJptAAIju2J/jPnV6eo/RSPnlg49Ua66xWiuA4KvWtImvGz8E3UB78T/ZDgt1POeCy4p65UFe/hn80B+WGzdu8KzeQFDDV+2PO/rgVl2lY9SHoA4IYoDsIF+15mv5BPkPPfJoRQaU+7BYnUBIENQAbXvVxTPT/ZDFfoedkM4X3Is2+9rs/0z6YwMMnkdgwj3Ub7mWaS3Y8G1vTb+B/vapU89Kz+Dn0GNOSYvTyXCy+FznkKnlW2Q5uLd0yZYxCILXBksssMERYjj4xoscYaejJZzaggUvtxwi30Sx8JK4+fMXtIx1iVf++tfqtJkXpeCDMjBK/cSnz0wG0LJw4cKU7WBkN2bM61Jafd8Dj20ZQX6aZD1Gm7lP/7E68KMnDimXfuqmR3JBgv3JZdNwXBzndzeBFo6eQHLrAWfYrp1y5IIxnD8LvAW6pgxQUygX65rIPnQDOnncUQelAIFnE2yx4Fz6QiCgz3Mo2Pc/3IcpxF6Bztv3P+UgwNMzkQt9gPIRNDCNS7DHAAL94T1Jvh0lQwUMtPcl530u9TUFOciF9W0sSuaYApRf/+bR9Dx7X4IbMjfYDqZrl3nd69JxQdCCPpIhol6cT8bo5lvuSPfGTtDHc7JX/dArfvi7aTAaBMHSwRKfihIYnHapfn3bKPftB4xmzmnb6Q8MlJ3K0DPBG3buR2r+kAP3qc46b1YqF9/aUsqbUSRGb7SmonL3Bgy+/VaKrR9Qp26mopqg4KBOnn79h20TO72AnOTwct/m8c8CPW/TgXvUfa1cSF8AZwpN601d7DoT/vdTPZRRwZ6epZcL2sW/vo3AysbKBSQbfw2U2jdXPu6jQNtPX0mPcq8h4F6+L/oyemyZ7fWSC8+zeqf6+3UvVi5kwehLfi0P5+RePqk+UVrTp3KByqRnWfnUtU0QBEs/S01gEwSjTV3AEARBEPQHEdgEQRAEQdA3LBWLh4MgCIIgCHpBBDZBEARBEPQNEdgEQRAEQdA3RGATBEEQBEHfEIFNEARBEAR9QwQ2QRAEQRD0DRHYBEEQBEHQNyyx99j4t5vmdt4tvUyNz3Jv9829rbYX5J7Hs3htu95wWipTr+Ctu0036uPNqfYtryobb1Wt2yiRNvFvDu70LcXco+4ZJSgj+wzZt+PW4cvGW2TZt4hX7Oeu9+0luK608Sn4t9yK0vE6OmnDTrB67/uVx74h2b41ukRJbnWonrx9WW/0Bft2YI99W3BJTt3op79GdKrbi0uvR5te2CkvC68jekN4nW5RDmvf2/VDS5P756Ccess52+2gj2zVkZOF1eE6rN/imiuvvr7a+4O7tfRTb7DO4X1ep9gy9rKfdYO1QZZO2rWXLPEX9Em47N3CJpglRbANgrCklAhLgtPr7NVQ7ZxdU3KN4ztzLwyGxT+zEyX0RsOWjXKzx07O0HIeqE4549+unu0cgO2MTWFLgjrdKFHagsMbOPuZlV2prBgkNmX0xkPG5dpvfGfInmF2WwFfB30mveoG2x/ULrQd6H/q9aP/um/Is0pO3+L1HNoZ7HZ14nq/TYLV78lvXSer693oZ6780E6PPaOl1+iZrwdls/rjt8PoFsqYCwj888Da26uu+Wa1zZQt0p5h9EO1D9gyq9/U6ZXkTvtbG9VOvpZSPerg/naLFLB2wD+zyTNy+sexJgOeXJsjF+13KL1YEv2sG5AlqP3rBleLY5uSfxj8vcQgwmX3XSk4mxiC7SgyTgKFwYjTaDQOm95h3GlgNuWjg3CcXYnZDLG0i29TeJ52/d5huynVzC9eMvhJNcQg6O/c3kC9wiu6j/pRKnbKZtSQQ+XC+VqF57oHfvnwsF2pLbQDo89/2uYd6f+6jseGjxaVE2gTNqqkvbwh8E5aHYa/pRvgDQPXlYJY7sEO1GwgCbQPejLj9POrww5eJANthGo7uXSTjigDIcOw047bJiPvDZs44V8PrW69/a6kL3f/+KepfNTTthflwrASkI8E6svO3NJ77r3ssmOqCy/+Siv4og7euSN/Nh/Vrte5TU4Fui0Ha9tC8iDQa+p8kSVGvBM61U+VS4GG+iZyoIwEed6Z20Bjcel1CWtDOJdrm8q3xFNPz6vmzXu2tUu7xTobyk4bAeX+3e//UI0d0CdsMDu3o1/0M8rE5qUWBk3/uPkmqb+xEa9ATkd/9CPV/AUvZ+vAprDItiRf278YjFCPplCHc86fVe38nm2HBAE7bj8l9T92ie+VvUaG2Ab6VNN7oqvwplVWrm67454UTMGS6Ged4vsKNgRdYid/QPY+KbA4WKIZGzqsRlPq+KUUGpQiVBkJr0j2/kLPyW3+1wn+3oq4ZRxGilcIKXa76FoBIWXzhttjjQbXgZWJDR5w8j6lbj+X4ckdwyn50Zii+knrrJnOxbgok0QgSl0f/u3jrfZuoh8eRp0EeHUdq9TxZNwlD+nY2yavN2w6xJ4HyHLjDScPCWxg0rprpd8KIHJGe6S0k1OnGaJcHwLpo20jUWeE1e52NIcccJQEpqWRZKf6SRn8iNu2i+9H1oYsTr0Gf2/1YdmzXF06ISdzsBlGa7usTutvdkdXXZG1zvd2iWeVsjUl3Tz68P2qu+756ZBBiW2PTvq+DdBA5WOA4nUYdG+b7YQmMs/pRFPstQScBHS77/ru1Bb7T9+jdT+Vf3H1s26x7WUp2dfRZollbKgwHR5lxQEj9C98/sRWg9rObY0rf2vkLSXG2dDpFr4yZYhCEI3TaCMBBVRE6jvN0gZlRZaUE7khLyn/lHe+vbrl1h9mFUzXEQh45s9fkDIbL82fP6zz5CCVihGp6+i0IW1/3syT0/1oa5zS1N13SkaG55x8whFDOgWjzOXGjavOmHF8dd2cm2tT/ox2AZ2hg9tsDY79gAHD4XcH1+fA9YxMGXFP/dARg0eHYkejIB3GUOWQgZQB6BVeP3kGclLmwPYdGWvI6bWmHNoZIO9orOzEoozDcNkxMp82dZeWAVT56rKqvdTPb377lmr8cuOSUe+E0dLrdrKGTjMUHp7BCFq6h+zpF9jMdtls9EI277ijDkq/CWrQHfTGy5Hpqv/vv/97WP/gXGSy1ppvSXae4Ej2HTnRnymTnoVOKNvAdeefdWr6G5Cfz85KJy06NnHlCSlYyMH1tAvnjWSwKztLPezUITIvZUKxF0D7SA/s8xd3P+sFvszClr3TwVU3LLHAxiqrOtl9P3twyDQPSClk1GgoUogokSCVv2DBwurBX/+21TH4G3zH852kHdyPdCCdb3HgI22vzDmHTkc6/mOHVLO/cWO12qoTB48uAqOI8c+lnwFFxIHnnAYQFNABTz3p6FqjDgomGV0wwispLm3ID88++vgZyfAoqOWaY044rTr2yAOS7AlkBH/zDJAz9ljjLWg/b9RXW2Xl6pODDsii80p6wrXt1qWA9Jj2oiMDozIMkdLL3OvQY06plh8/rpFTzpHTT5y81xsCA6AsBFm56whqfAYiR0423Mev4fFQXztNKn2pG3z0Uj9hnz13S+XDfljHiNHH0eYYbb1uB9MaTLePZMqSOjz8m8dS2wNlHDd22UYy81B++h+ZHNlXBcm0xYxPH9O6r/SLa+hb/pnqz5SL+3EeZUNPkLXgmIJBwKZ5COiZylG2ieyHD1Zy/ZfftBM6QXl1Pj4lF0xYFJxQJwWtBF2WRcHH0EwGwToZmzoWZz/rBfhqZSclWyG52D43miyxwMYqmDrZVltu2jL6NKBNx9aBUtFoKIo6Gn+zILmbjlsH5ZKTgNzfBBrbbr1l9bWvfyv93xRFsnZ+UsoAfpSHDOWICORYB0SntrDOCFZcYfn028M9tF7EXsvxcy+8InXcpqlW0u5w0vGHp+DMjhgsdDSNbnyAQt2oP3Lm+aUOLEOaA0PSjrlP/3HYqFLoeltOj7/Wy8mvscFwa8QrVNde0yRjk4PzmS5jNG2dQQmf9dE1HLfrS4Bns0Zt9912TDqtLwuQRs+1rxiJfuYcE1kAysQaq5M/e+6QxaQ8I8fi1GuBk+jllCXTHaDgCFkqI9IN1E1BCEEG+sbf3FflRPe8DbfPJNCfPeemJAsGXugF96BtfSBHcLfmGqslmaFffJ7LPmw6UCYy09zH67B0kHVl3rlSZgITi10zlaNJcFJC8mvC4uhn3WLLlgvglhSjEtigmDbrwGjLKxlKi3JyLp2BDkBH8Gk7/W/TezkIaFAyGSEgs9NrqAc/1mEABotOa5V1rwED2C0oqBSTOtNRLZIxI0A6pZ5rjT+QGsYgrLD8+MEjQ1EHQ0EFdSPC/+jBH0rOuR1khTDodq6XdDwpSWRkR17qCGSWCOTqApT111s7Bb92miFngOqwHQ/QJzIT7TI2whs35O5HfBwjwGyHD4qhnV53Q5OMTQn6DIEN+lYqk+/fkGtHgj/1fQJvdHmzTSYnWf77lbNTW2AMeQ76nmMk+unbDvkLjhHUaGCQY3HpdY5eOwnak0CCASTlrvuCQROoL/b2kAOmDR5ZxLw/PZeyVXYqgnZWcEaAtd9hJyTd4ZjN7qAfl33luhSQMlDVcfTt5lvuaC0cZ1qQc/W55U2rrpz8Sm7xrrL48gvoQ9PB85JgcfazbqFv2ow49y8NBuH/3965R9lVVfl60+MOKBJilDYERIXw0giIERoxSC4ICIig4RHBKPIYiM3Lhg4RIcpAENMQwQu+gAFBFKMRFVERBcQBEum+IigqXGwFrgbBIIiYkPDPvfWtqt/JrFlrv05V5XGc3xhnVJ199mOtueaac6651t6bsmoAr345FoxJYEOB60aiKCUNQOcg4leKV0rWVOl+dNe96Tg+ZDYwOoDByCn+aOA72mgj5UA+qj9KqakY7t7B2GouvwyM2T39HVzpWwu/KRtkz6GAjeDBOhPBcTYljAKjrAOGeHXAwTmV3r3v/gcHt67uCMgwBQgldZDh9CPVXHCQQ47Bdzy2yWD4rIvg2BzUnbsrMNqSHX+RAYalib7ZkbxkMNp0m7EB6qBgXdAPLbn+bfWC3wXXp804p+q9+eSN0noVHFvbwUdT/Tz2ffk1FRbK6bNoYk3r9Vij8tEWBL1ydN3CAAr7tOKFlek7GRdkT7tq4GH7HPCdgPSqyy/orLGxMmBdG1MZTOHZJQSsF9l5xx1Se3GNMpsGG224YSd7j27p/BzHVD3HaRvrbmhHMhrSzTVJnS6szX7WLdQjN/Ck3Dl/M1as1ScPS9hkFOgYRPos1uSD8yLS1Hc+NJyF6JXV9GR/MNoIDqfDh/nVHAiY6/hzVcExLAIEOcUT3j/wDJ2xgE5vgxpQQMPtlfzG3GudgiADpW89ZbfCc03v2Cyrp7YGrk2nWbTwsiFlFVLyXaftPLhldCA4wEiXfcoCE8AA4JDI2Cz8/PzKYyk/jg/5cRxBM3dPMOLGeDKVkR4v0H+clxlrbHCO/H3gwYcHt9ajdpZTaALHMFIug1tspTuPPvaHTtuVHYeOM6qmzzFVwOL8HPShXD/CYNPH6Dc5feIY+hNGTgZdulLnYJrqZxvjmZPD2tDrNlgZdwO2tY2OWZAXOoVerM4IvyRlUqpAlshNbe7BXmG76TfKrgDtzYfrYuNzNs3aJXTIX4dzMwVlj+N3+i8BT7dyLGPVqheLG2/6frFy5UDgl6PJgnRYk/0MGbe1Px7KQ7ko39pira2xAZQXJQa/IIpGKcvYkM5kId/AaGrgrik6KqNmnAxwPIZZ+3QLjYRD484G5jNxbLlsVJWxbYvOpSBKqUgcOkrZBGSCUpeluqkXKd+2cFzZ/HZbqta5AM4lR1WaX/jghlE+wTI6Qnbwvvt/PfhLNdItzkcwSZsAerrgooGRu52qEMrMYChslsSXnakoixZ7lwUTHuknd5uwdoOpSbswdUD3h+u/juOZI9JrGTvqVpVxlV7u+aZpWb3nPJyPtlWKHHRNu6h2tLH6WbbGxiOZj9ZIslu9bgNOkYWxTcss2XMMNhK9RHeF10varQzsL3dpbbDBBsOyJz671wTpE7fIE0xyfn1XNqNO56gfU3s55KTlB/ANPutLwOQzJzn98eTaEntw1kcvTv6MwA/bk4PtVfJaG/2srf3JgU4qqwllQdRYstaeY0M0Zxc+8b3OYfm5OduAuXSeOm/O8TSFcmFE6BS6np0/zjGSdRP2Gt2ch067/XZTsrd2+w5tp0WoJ+ll24EkPwWfQsdxTFkq1cvKB5h0Wr9WxVJ17jq8IVNwwdoS5OGv7XWP+gHbmpRbdYWq9kL+dh1W7lxsa3JnkuhWP1lfgdGlvcva2aPjrrpucacfWtlh5H17UWfgOvxfNlgBBZHgdZ/rtNFPpjJsm4OVv70WWMdQpXtrU68tXpeqUJlt8Grx58rJ2oLs5JT5y7HogOwz15NOWBtjkS4wDcS+uf3Yh8GZ1znI6XruHL6dIbeff9SBtxk5cm3pt6EPBCd2nYzI9RfBeewic76viX7W1v7Y+tXJv6q+o81af6VCEASrwRBAmVEKApz6mlyvEPzj0Cv2JwKbIAiCIAh6hrW6eDgIgiAIgmA0icAmCIIgCIKeIQKbIAiCIAh6hghsgiAIgiDoGSKwCYIgCIKgZ4jAJgiCIAiCniECmwq4p1/39QdBEARBsO7T6jk2OHleYuafHsgDo3Iv5so9HVL4Jx5ybp5iqadd6qmivJOHpxnaJyICv/GeDf90zKZPURVlT8YElb/siZ1AueteopZ7QqUCptyDkPhNr/Mve+qlla1/+mkZVU/TLPvNP5VU1D1htVuou39SaBlt3xJbpqejCW1tn6idw+o2T3gte6mn7yOetk8JFXqia9W5PXVPMwX7FNKmqI68jbmbds+1aU5nvX0RuXpV1ZXfytorR5l96VYXm9ikOhvonwDbxIZZ+8ATq3lZZZX+5GxeGbY/2DKU2SRRZoOaXNu3cVkZLDm9sljdULv783o9LNMDr2fqJ7wqpK6cbZFOjcRPN3lqeRt7M1IavyuKCjzy34+ml4ahLDkjZt+roYbl/ToeKWQVvC+ElzTqLa8In1fuS1F5ZxIKzMv6vHPjOL3dGHLKowYRVQ2kR1kL20i8kbbO0OTgBaC6vjWg1Img5g07v7a44Ws3D+mcXgGt0SwLCGzQw3n2mbFHaidvcG+/c0mSr5UjMqEj82jvWTMPGlJO9uOlcrl3rIwU+3j7MtSm+t93zLF8fHdO9ykz76BCVmy37wryska3eR8LMiSw8b9Dkz5SR53Ryb3PKBckI9/HHl+a6lcF9cm9Y0rlyA1ELG3bHXj54aRJm6YX4dp2KQs+7DvpmtbLQvl8GdVWTYN8lZP3eqm/0e+rXmPQBnQe+2idEHXNPa0YBwq+zXPw7iTOw768S+jaL91YGlRTF17W26T/sQ9+BRkiD5WPfgK0bQ77Ak4L18bxl11b7f4/93pTeuGj7R++r+R0sqpfnfbBY9KLmdWuvHsJ9B253XrbXUkH2Gb116O+aG0Bdprr2mu3HeB5kF+3fhq8v/U0Pc9o0jiwQaA7bDclvT31I+ctSEGCjJiMTdvRRxUoLdeTcvI+HCJsC86g6mV93ZBzMhbfSCjFmaedkEbOBGFNOjKwH0YGY0NwxHkwbvb9IBgd3vStjiUFVMfyeKeEYfNQN/ZjRKPycl2NwCz8xv6UhzqP6w98rvjC9YO/roa3Rosmzmks2GT8+E7noj7Ub6zgGugduqCMCUYYGV1+8byOoaX90FmvT2UGuQrq5ANscfeSnw3+N4CCOrBGh3PYbBL91gbl0hfqlcu8VL0QsGpExstueV8b+j6a2FEtMqAMyJ83OTfJ2JAloh1+eMfd2UDIDhSsTOl7dSNmtb0PGCgHfc3qCehcHLcm+o/a2A9YpBO50Tt4Z87b4k887qhiweXXDNMXKMvC0Va54xRsY0eQH+1q9Zvj5n34lOLqhYs7ZbFZEmRK8Orb09pG6k6785Z+vVRYuu/bC2zf47zowonHziqeunhZ6jv0Lez4e496Z3HlNYuSH1Tbci3KSb0UgOy84w6pTpdecU1Hzqqj+lEOzsWg19pY2bqy4G9N0ORlodRrTdJoKgplx1i8f/ZhKcDBQEDOGAg1EBFpzkjqdymANzzWaDVB51OqznfAMhTIKFioM1goFw4sNzqTsch1cOHrLahvbnqA7cuefnZI9iFX1lzHtNuqHKNHHRCqpjp8m40GOidUtT8jI73ok2DbBtbq7Dh1axQtIx3lAGUlhc85qpwByBj5QQDt22SqT3WyepDbxnG+zaSXelsyfViBrPoLb8vPyaNpvyjDB09ldNPulFU6zuBAGQlsVe4c1iGUletHd91bfPPbPyj+9vflpfqhYw/Yb0bqW7atJE+fnfLHCMrvnX/V4KCpPEEyld5JPpS3bLrU7pezUVVTMaLpflVI78j6IC9bLmTsp6i45ut3mlrc8eMlw3RVOsJ5/HmBbVVTXkL1Qi51dl72BftjX65pqbou18rp8Nx/+0CnjlA37d0U2Yi2frqJ7NQ/Zh3+9mLxN25pnNkcCY0yNhQMIfOxFSWizq25UeXZh2Pt6+dBFa0CwUl4KLUCK3udHAi6m6mo0YBz5zJI3gFZYyZFxRDm0oHIgOPPOnd+MWPP3YuvfP07g7+sHj0xgnjtDlP6O3xf+p6Djv6tr3xu8NsAtENV4PLUn58uli17Jl17NDpPG2z756BNcXBVUK8zTz1+8FteD7oF/UH31Y4EyKTANUrHMOl/2o/fgCzB0if/nP4XZQEnfa0KspjoTVWfQNdshoByEUDPPPSA5CBpV0atZbIhCAJNCYM3blXQbwn40P8mGc227U45cDYMoOj3OD3wmVeVWdAOPhClTX/7348Wm0+eVGwz5VWpf+T0BDkiN+TF1IKFDKt1mkCZkTXXQ19sIEMmwfdL9IV2qpJDTmfKBk0e5GJtjfSzSXuKMn1BzvIVZdi2kR3GUVPuT11+TfHvp5+Qzo99Q7/Bt2+Om757WzFhk/FDdNWjqRzayAcPuUFQbgDE/7LznGP77aak6SchO4/+3N5v27Gx4ANWzYLApZ+5dpgdRjeE1aepr9km6ROMll1G3t34adAUZRnI65Pnz0m60TZT3S2NAhs5Rb3aXQVD2IxYUcx9955e/PJXD6X5auYQUU7IzbWqok3BCFV1Fj8FMxKaZDXkcGgoGSmVoS5YAPbjQ6fo69uwkw7lux3poCwapcgQHTnzoHQNomvm6LUvZRltJm/28uK8c05L7cs1da01hZWvBcNoDQ38ffnyIelQgr3H/u/S4otf/uaYjBAwSkyvLPz8/OS8hXdc+h+jhgzpG1v0O06LDD31VcBQZ1QUWJFpoc95eQjpGrp02pzz+9t0UnHJJ85Ouskxp8+9sKNHvk+qvPTlMl2ugvqQbVTwfv8vHiq+svjbtca4abtTJ87PNspq1+Dl+jFtAOx7T79NQUcsTJkBzvSfN31pCnLeuMvrsmVlm+TF+UQuOGDf3KClDBzznXfdm85b1q4+cLNwnB19W7upqR6rcxqcCvTarr+yGVyCaY7DJo8fP27IFIjaraps2DiLAkHtv+Cis5O9Qa/xNbQvuk5bq335nuOoIw5O8uJ4m3GiTzHIULuTXQDaio+3u1X87vePFw/++pFUNtlgrklgwzUJwD5w+kfTvkcf+Y70Oz6Q87MfffC555cX58z5YJK7nVkgsNKUp/QImVrUtgQhBHq002j4v279NPtzXBO/afVorGm8xoaoftOXTex0NL4rC4FC8B34/TOfGujEKCCKScfyhqrp6IJzoJizZx1S7Dpt5871AWXPjZrK5vxy25TSA5/pyYFiyeHIaVjl41g6II6vW2WjznROlB5F/+tzzw+REx3gJf0jE7sepwpv6Dy5kYo6GIqrwKvsPDKcozG947GdVnLJkVtjs/Wrt0wLnAk8cg6nW9A7jBLX9Ki8GEufseG42e9+Z/HT/1o9uisrF/WoMirKpGAgaRO/VkJYXfIOh2sw8qSsXpc4jsXrZC/GbdyXDLLPcFiH6c9NnTXdhd7AtF2m9p/v5SmY2vNN0yrbpEm7c16CEPqGnAdwXj7IOzetwnbS4hxjwWERJLLmhuynnKHqRZ2qDLgNBoS1c2UBmwdZ2kxjW9SuXE+BspcF32nTnV63Q6d/C4JflZn6k0UB5MH5OJYAgWyNHKGuRfBY5+TUTshz4403Tn2JqURN42GT5/XLXNdmgEJ/trY6Z+M5L2VmIfK8j1+WAnLpMwNwtTvBmWAbGcyyQbMNANkHu4if0LVtXW37o78H7Tcj/S89o2wMKpi62WjD1QNa6ukHw7IfgM4gbyCYvOryCzr7oSfsS1s28ac56F8j8dP005ztAeQ7WlnyNjSeitLdHlRcTg80TZFb3GudooXzNUlxAaMozovi++kovpPasgLTKnRG0mqMnHC9seQ4pl3q4Pi6KPbdhx/cCbjaNqY6Ch0jJzuMwdN/eSY5nL332r2Tuq2CMuSmyOgQ9i6RHJITRoUObs9jDee6Ch2OeiK3tm1RBqPV6Xu8cUj6uQnID3kS2KCTuWABrJH1oxz0lPZgVC2DwzQTqWnawt7hI0e85RaT03mqHA4LKemTZL44L31LgfXEiROGZBzq2p3rKlDyBlG6SJvk7mhsA/LE7sx8z8nJAOPYOKcPvK3DsYbaBjaU+YUXXhhSFq3bYRv7cz0/bQSyZ00ygzZg85QFcCPB22RQwCDHz3XJnGC3qqZ8CA4IQrgbytpdZCd9oF2bZmzYhw/lIdglk7nN1q/sHMv5WWjLzSq0m20bPwi152UbdVOwIHReG9jQXrlsGufD2ZM9U/0I2tAxzqMpJNqSvmyDRvoH8FeBAn2aOsybe0r6Tp39IJEBZi6rIZ3hOvRze7MGNAk+qujWT9v61aFAcCwGvzkaBTYUwjtGGl4G2BoOVbRO2NziVjVfCjQkkboUBqN9/kVXJAOCc0HxbAoVmszF5uC4stvu2kJZyRRw90vbBswZBWRNh+JcyIMV+Vdft7jYdput0ocRZs6AVUFnRX6XXDA3zU2XrV+ytyavDdAn33nsyK0JcsDo02ggI2MDm5UrX8yOevS/pkEEOuKDBQwbsj7snQcUb52xx+AvA9BeBBqrU8+rDRHnYiSIU7zv/gcHtw4Ychxxx/G6O3EE51b2FR3gO6CLbG8D9cjd9eOhTejPZYF503ZXkMDdIlxPdoo649i4aweqbBFtyaLG5/++PAVJQtcf7YzfmgJnrOyIhb6srLqcJYuRkQ9yIxtiYd0KC/T5EFCT0SFgsIMeK5+mGRtBeXB26IINzIHvDL5YdF2lTx7O2STrRX1tkAcKatQf6Ed82G7xOuozNugmH9lvzoHMgGt5Xa1aviBsZhrUt8eKKj+t+lWBfq2NjE2rJw9jtOj4jDSJ7jGafDCAjAr5IHS2YbSrDInvPDkwKHQanQfBICCie80Le0Xg3HauvSkEId0cZ8EhIBvK0KTRBXdioKA56Ah0MmAf5MEIWtBZ2hpd2pHV9ASMrKPBeMw5Z362DN3cmgzIAl3hI0fZDRgI6Zk+1NmjNTZcr86wepAxz7NALm3QWgSCmRdWrkxBifSfQEZlp39Uoesyb88IdcWKF7JlIXuyaOFlWb1Cbxl1MV07UrrRKaCd6ZcEWU30hf6Mg80ZvKbtjs6SpmctAwaevsc2HMXsWYcmJ8xCaUbUcioWAlJ+S89k6i8L17Fth7zpf211Y22DHCh3lTNBTthSe4cVWSy71oLz0LeA/ckwasE62UN03rc1+m7bzX58gA9cg1uf0X36sOwF7cV0KFkNAtecfarD2s8cBGsf/fAp6frYABbx2qCmCukIswP0Tf7yne05brzp1uK5554f/DZ2dGvPPLRLEz8NBG9cM9fH1gaNAhsUihQv0HAKWqg4jpzOgFFg4ReKWFdB9q+7m0PRsTocjYTTIn1HdE/nIyVnnSbXZISZG6VUQT0wjn600AYid9LvPNOmTRCAE8aRyQDZNClY44EscsZdUAYFE3zsaAIUbDCSs4En177wY2d0Orfajr84qrbyVDtg4DTqr9KHMtoEhxrJoJ91gYRHMvZrterAacqY0YZ+MWUdyAR50x62nvp/NA0Fd2IRhFn90KdtIFgGuklwVecQ6mja7vRbghkGO1ybKWIyuejx8e87othoow3TfiwAxl4wbc4xFm54wBaVXY+6MADAPnTjWD2+j9oP9swuJh0JDAqpc5ktwr4iJzJrsinUj3VG9AN+p0zoBtkS5Ip9o2+xJgVb0jbLjS77IIPzoJcEVwTTshcP//b3aREubUP/Yg0Ztl9toDU2kp2dvrWUBV+C7QzusIcMGsma1vkmobak/Mqm8t3bXUCOZD7+988fTNdA9tJF7C/ZJX/NZ559LmU/OR/+l7rbARwf/lfgKbq1Z54mflrQdmV9bG3Q1VQUBc/dboYAMGwoq71FmKDENramqcrgeDoAUy5ah6DoWFAmjBEdEKXhnCced1Sahqq63c+WhWM4Dwrj1+o0hc6K86d81jhSB+sw6LBWQZAhT7+0aUUCCI7xHYNzNymbL4MidpWF0ZKVoYV2onMjCwzKxAnjkzzpIJJRbuEwWKOiOVSMhOrv694tyDpNtwwaf0ZJGFXObdc9YahlrKWrWsuiYyzdTEMiL81Lcw2/mBIwTFZ/LRyTHHD/dpXVQjtimMik1a2h8nXkWl7eW26+We1UVBksdswtMLftPtJ5/irK2p11ISwGVd9A3xW0A3IRyJM1IsjJllNTBFWwb926uqb4PmpRPUVVn7O2xUI7kE3HfjK97Fm16sUUMOOEfFaO7OyB+89I8uQ3/Y5c7fQi8pO+5XTNk7O5gN6RObbrIWkL/qfe9q5PtR/bzz3rg5VrbOz1ALun/argWthHzsVH9Zf9xLbZwW9ZW8ruAjpIIMi+9GcyiWQBWTtKIOThGtxNRd/yfYpzNZmK6nZZhZebrt8UZMEHPUbHfH9dk7R6V1QQ9CIyRGUOJwiCYH0h7FkENkEQBEEQ9BCtFg8HQRAEQRCsy0RgEwRBEARBzxCBTRAEQRAEPUMENkEQBEEQ9AwR2ARBEARB0DNEYBMEQRAEQc+wVgIb7rO3DzEKgiAIgiAYDRo/x8Y//bMOnjZb9kRPPSm17KmrFp4A6Z8Oqiellr3Pg7LytNSZh7xt2BMny37LXQf0ZMfcm3v9E189PHHRltE+OInr5Z7cylMjy64H/rg67NMxy+pSJ0+PnsRZ9uTNKvlbkAdPivVPQAV+4ymYXIN9cnVeU2+KDYIgCNYfWgU23lnh2P2bOxUA8Uh9ggR9bxIQ+UdIQzeBDcj5+gAr50wpI4+45l0ovJPEO2uOKXvppqCc4J20vR7/gwIb1Qs56rX3vOMl58TLgogyCGL8W2tzdYecjMvgHLyQjsed8zh03iOTK1dVQCh8eThGj5C3QWGufDndC4IgCII1Ftjoexk5R1h2LEELL+jyDtqD47QBCcfhjH3wJFSG/fd9S3HFF64f3JqH949Yh6zXzv/pyWVD6mGdN/+DApvtt5tS3HbHT9L7bgjUpu/xxmLJvT8fFkDZ4wTH8zp/ZSxs+6Q31pqMmOTog0uCPsqYex+ND6SUneLFjyqfzgu5oE/lBv/+K48Nan3gGoFNEARB0JQxn4oqC048bQObsoyNMjVN0FQGKDDx5wMbnHhstkXltuW7/c4ljQIbAi6mtJAbQZt15LnABiQf3sDKC+/Kpn/Yz//G9V+/09Tijh8vGSZfez3b7mXTi5J526ySlyvffQBEAAkxFRUEQRA0Yb3I2PAmWuswcYC8bbYs8+KxGZVc4PLUn58uPv3Z69Lr33Pn9A7YknPGAkcPTTM2BEfgAyV7nDInzz2/fIhTzwVYItd2XP/3j/2xmLDJ+GEBoq7H23QJWGbPOqS4+ft3Zt8yLMi4/MuuuxS39wdKvJ2WtgQFQ9cvuqnYa/puQ4KQMrlSNt5OnAtcgyAIgqCKNXZXFA5y5ntOLv2c+ZGLUmBhWblyVX/QsSwFDjg7gTPEsbPQdjSYvNnLi/POOS1NsxAEtYFgg1fd5z67Tdt5cK/mcH0yMPzl1e8EJRaClisWnFdcdfkFxQ1fu7kThCCL5ctXpP+bctQRB6dAiOCRwEggXyAgoR5HvOug4vorL+7Ui9fmE6Tw+n1to0zHHP2utN9B+81I25RtAfYnuPT18VAOXvNPhuiLN3wzyeGYk+ZmdYZPTkZBEATBPy5rZCqqbIrEggPzGRtt+7dTji2uvm7xkCmXV79yi6Kvr29IJof9c+tFqvB3LkHdecqmQAi+tnzF5sOyS1UZG9bUvPeodxZf/uq3U5DB4mGmoZCB5PGTn96XjlMGpQ1kUuZ9+JTi6oWLs2tsaCPqaxcaU7aqxcTsX5UBE/48PkOTy9gwrfXVG79X/NMGG6TvZLN0fFNdCoIgCP5xaRzY5KY62FY3FZXbpyk4OS0S1nl2nbZj8fAjjxYnHjuruOm7t6VAp266AgdrF9rm8OW25Bww1AV7ZCwIdJoGNlz7zrvuTQEDyIn/+qHfpu82YLIgm6rb53MBgQ86bLBCpsT+xr5NbjH3a2z8NSgH53734QcnHfJyVTkJWnNtnKtHEARBEFgaT0Ux1TFuXF/R19duzQPHTZq0abHF5pMGtzRHi2gBR8h0EQ6PAIDpI2BxbhUER6zXuOSCucUP77g7Occc3M3EVE4bh4mznTf35M50DIEMzl3ffSBk4TfuXiIoYr0Q51n6xFPF3Ut+Vhx93Bnpw/8KasqgPgScrG9hAXK3UzPU+8xTj88GiZRVdeKTm4riUxZ4Cc7NuRQYA4Gf4Jb78eM2LrbdZqv0feLECSmoIXhk2kkyYdpSU1G0bxAEQRCIxoENWQGcTl12xINj7uY4MgjLV7xQTH3NtoNbijTaZzpKGQBG/vf89L60bw4yAjh7skwEQm/bd69izjnzs/tTzq232nKI0x0NcPa5AIfggwXDTAfh3AlI9ttn+pBAgSCJjAafHJwDp49MWN/COheCPgKAbh0+5yQQHCll50H2WjPD83B2nLr94C8DQTBtZLHBI4EUARWBlWQkXaC+EewEQRAEjQIbOWFlT5pCMETg4Z1VHVyPhbH7zNijExAxrYGjZAQvCEJYg8F6GBusyMkREODsFayQlbjwY2cUl15xzZDMBn953k3b+uVgobMcLGUuwwZpBD/c+eWzT2ynvtSb9TUWzk0AQyBjAyfOt/Dz81NAZ6+/YsXKIZmOsqklFmyTuRpJgEe7n3Xu/OLVr3pFKocNNGgDLUTmr82QvbW/vdtkzIT0kyCRD/+rbYMgCIJ/LBqtsSFoyC0W1boX1s+Q8dBtz3rYGsc1eZCeB0dojyPzUvXkX/bHgZLB+dQV1w55eF4ZlI2AaOKE8cWJxx1VLFr8nbRQl6xBkwXILCCec9oJxdXXfbXzSoXcQmStf2EfLTpmW5VcqK+9hVznBa3p0cLfKrSGheCoao2Nv57kR3BQtYYoB2Xdf989iwd+8ZtW5yh7QB8BYNX6HitTLaxuIpsgCIKgN2m8eDgIgiAIgmBdZ6283TsIgiAIgmAsiMAmCIIgCIKeIQKbIAiCIAh6hghsgiAIgiDoGSKwCYIgCIKgZ4jAJgiCIAiCniECmyAIgiAIeoYIbIIgCIIg6BkisAmCIAiCoGeIwCYIgiAIgp4hApsgCIIgCHqGCGyCIAiCIOgZIrAJgiAIgqBniMAmCIIgCIKeIQKbIAiCIAh6hghsgiAIgiDoGSKwCYIgCIKgZ4jAJgiCIAiCniECmyAIgiAIeoYIbIIgCIIg6BkisAmCIAiCoGeIwCYIgiAIgp4hApsgCIIgCHqGCGyCIAiCIOgZIrAJgiAIgqBniMAmCIIgCIKeIQKbIAiCIAh6hghsgiAIgiDoGSKwCYIgCIKWfPfWO9MnWPfY4IWVL/6/wf8rUQO+48B9ikcf/2Nx3kWXF88///e0zTNhwibF+eecXmyx+aTic1ffUMw85G3FlK1eOfjrcDj30ieeLE46/ujBLQPbtnzF5GLa6183uGUArv2py68p/v30EyrPCff/8jfFf/3sF53z5q4Dvj67vmGnYs6HTij6Ntoofb/y2kX9Zdk81d3Db7vvtsuwclp5jRW5a5eVB/763N+K/7j0quIDxx81RHZl2y0rV60qFvyva4qDD9w7e24Lcv/4/M8MfmvGK/vb+oKPnpHaQm1Wdk3K+5krv1ycetJ7i5dOfEnalqu3b+8q2YwGbWQkqMtHL7is+OMTTw1uGSCng7fefnf6vwkfO/vUThly8rLQXt+79cdDrufh+mV9oI42fXYk1wGuddW1Xy0+fOYHOnVt0hfVDscfc2Rt2+WuAXVybNIvZDslJ+nw2/bda9g16/ptmSzrjgMvM+n2G14/teu2KcP2y7L+AL5PWGz/OKG/DfEdubZQPe574FeDW6qx/cjTRmeE7Qsve+lLKvsleBvWDSrnTq/bofY8Vv7IsUlbd6PXY83/GPxby1vevGuqsIKN66+8OFUI1Kgo1z3/ef+QChDU5IxAHVyPzscxVhj8f+D+M4of3nF3tpFoGClLFd4JUR/beR/6P78b1ljXXP/19PfA/fbqXPvdhx/cUW7KJoOx3z7T07kkL1uuNnKw0Cl8QJlzdnabAoavfeN7xfbbTRncOlSBxZkfuWjwvwHjYJUaecDU12yb/lZBfb/1lc8NfiunzhGwbfa7D036g2yr5EY75PRlLEGGdQ7C4g0Anf2MU44tNhk/vrj0k+d0ziG5eJoaGvrhaEI9H3t8aXKuYwn1Xvb0s8X7Zx+W1XWL7YN1qC+O1EGIXz/022LrrbYcpo8E5NiTnC6LqnJLn+qwThxsvy1zxDYYq4Ny3PPT+5JeC+pEPx1NOZYxebNJyWZZ+VL+b33nh+n/nO2ib1ibI9+UY9y4viH9LdeP5QtEVUDk/YRsri2/ykzdFlx0dpIn2/bde3ra7ve3EJw2JScbwTbvLyjrnA+d2F+3qzvHWB0isJLfs3hbNBp6PZo0DmwQ+pmnnZCUC+dGw2y8cV/x2Su/NEQgvnIoyp79QcpP+jsK5IQkELpVilmHvz0FMPrNY7cpmvewj877L7vukrbJaM6aeVCxxeTN0jb44g3fLCa9/GWdBlNHwZBo5KMIWlBOghqMGnIZP35cakjqjVOWvJ79699Sh+rrKzd6dXBOAjBBuZpkbOiUOAzJC0OIvC75xOoOVuWg+f3a/najnY8+7ozBrXmqRlXdQHlwIuhPlVOXvtzwtZuTsbj406s7ktUT/d80SOgGb+gkEwV8to2QbbfI2J984uysvDm3NXLH/evZ6W8ZtC1lPfKwA4tPXPKFYUGFdaCenDFvA2UlmCPwv/3OJcUDv3youOryC1K9/CCkLZxj3tyTk9zpv922u3du0iXsHvVmUGd1DcZKz3Rea5v4vw1kDpb+abgzQ6/ocwRwZW2ueo6kv9tAn/Mp0H/qz8uyusq1AFlfseC89L/ahAHkmqAscBQKIC02OCizoWXBDb4G2VT5TVD/AxsYWv0Q1v4I5ClZerwOU591ncaBDeBkzjz1+GSEzjp3fsdgCimpTztZodj/hYIFHxQheAm/6Qhh5cpVg/8NYCPJpGD9juBXv3mkuPzieUOUSI3Fvt4hCKtcNjNly0m2Z2n/cXyXvAAjMX7cxqPm8EH1sg4uJ6c/PbksBVVf+PTHi09/9rrGGQZA2ck0HbDfjGzbCXUK6m+dkR/hdJOSJBtDGcji+Y5vse1AAOH1Ktehx4I645fjvvsfTDpSJWOgDt553r3kZ4P/DRghIQeAPldlC5Uhsg5KAbTasU1QYXXB14drXdavg14Hbr7lR2kgAMoWNOkrqU9njL53jG0yPFX40T7tsXLli8UNt96cnLKVkWyKhbbz7WehfzSBOtt663/02wYM8IPb70qDr6VP/nmIXAgUyB4woBO0HbqgtqvTx5GArHKBfl3GZqSsWLEyG7DltqH3I8XKkbZhkOjrhwz84LYOj8wAAA+LSURBVI22WL7ihSH6VgfyA/q7tb2+j0gHRxKYWkZLr0eLRoGN7SgYbYRs0+fWgdAYrKsBfxyKe/2im4q9pu9W2VC543IoAGkzx2kNHMeTqTj6yENS5yeQoXFobGUzAKXzGRvOwf/qDCrnjlO3Tx1w5arpneORCSPQ0egkkHNuYB0cqEw4zB22m1JstNGGg7/kz2E7Nop47lkfLL7+zVuHZLFAcrMBEqNsIO0vylK+bcEAMOIWPvvVVF/WZXba8TXFLT/4cb8B335wSx70TvpblrGhbT1lo2Ch0bBH7WqnIG0fyEEgvXz5ihSIemibPd80LWXWZFCpx+0/XtJxXLRhlX2wWKcBGjH7NTaUtwk2IBAaDZdlW2/67m3FhE3GN5qm7SZlb50GDgvdtxkbBQVqd/5XwIDdwiaRoZ44YXwa0AHXIZD0Do32xiES2IDO6ctc5qC75Xe/f7xY/I1bipNOOLo2YzNSyuxS1VRUN+gcuemrsr6In1C/YJBOEMZanLZoECMdsH3E6gzQP2zgo/Ii79fuMKVf7/vS9yrWy6ko21HE35cvHxbhqvPhFFlbkzuOoCZnjC3+OCkICm87EutGWBClBsrx4K8fKY45aW7q1DMPPWBw6wA4SHj1q7bopDblLO7/xUNDpjNAjU8jAsqi+XvBgmmUkTUpKleb9SlNsenBnIOzMtd+KBiwL9kjZGzxHRzjRVBTprAWrmE7z1hCOW32K6dnYwnytus/fD/IGbK6qZqNNtyw2GfGHp2ptCq8IVJAWxXU5UbBgnbOremhnrfedlda6FjWV3Mwfcz0c1ldtS5NfQRd05o9pnSr+nO3YNybUCVD7FCOo444ONUBO2CzYgRT9rqct6puHPfJ8+cMfluNdxroOe0vHbADFByWh7KRIfNTJECdmKYGtfeWW6ye1tGiZfqcbU/aCdtb1sZNoc0pP070vHNOS3omW1yG13/I9TnQtI8yxdjnkZALfD30daAuGpAhPzsIpw3/edOXFg8/8mhpNhT/9MjvHqsckECdbbG6IqyeyHbLrtnMI7Kuo1u9HktaTUVZmmRscrA/2QPSn00cJkhBEPzpcy8sdth26xRJ0iGJbj024ifAmnXYQekcHH9d/3WtISBAQIFw6Izy5DTfvPsbOo4fJfRRbxlcB0XFUSiQUWqX39YWUlqcMU6nSV2swtoRmoXz1gWqow1GtcpR0V62jXP/Ywxm7Ll78ZWvfyd9b4oMpKZq0BdN84Af+bWRD7ImEF/6xJ8Gt5Tj572pcxVtMzb0Y4KszSdPKsZt3FecNuf8YVOzVq4KCKgvC40JXsrA0DG1aUf8yJF2ZeFwU9DJMkeTqyvG3cutLblpDJwEdSADMu/jlw25+0trP7xOAmXRwMg7ZltOjuMjB4bdRE4cl5vuawsZDLUBN2bY7BaBAOsGaVfZAvajjdHzkaCAmsEuQT2ZPjtgyCEZqM4a9PrgQOf20yzs3+1UlM/05EBOPoCk7bV0gaAfnaV9d5u2c3/771lc+6Ubs9kvrmPXVOaQfSnLJqIrTf0sA6SXbDI+O1Vcxkj0eizpOrBpkrEpg0oT2NBBbEPWoYZWxM5IxiotjewjTkuZoqDs6rxymrlRgb7XRcgENHQqpfHBTtF0izfkvnx+Kor2oC2OPvIdxS399fn4uR8qrrxmUUpN5+onaFc5cGSGfKgPzkgGUPB720C1DdSZNtG5ZVSr7tBRZ7YBN9AJbQoWjpx50OB/7UEuBDU4Fy8XsPpYFdSge0o3H3P0u1KdGcmNJm0zNrQnRomAZ+LECUNG0V6uAnkQDLGIu65f0x9Iu5N15Tz8lQOHqtS2oB191lGOJXcXJu0/0kWm3rlxTsE2ghoFsh6bDUKGFvubPSfgDJjWQ9dAdoBjuOZHzlswJJhuCuXEZtDGBDAcTxns9dFb9Js+qPIhY3R2pNkPzmevx/WtfaY/adBQpU8KzJqgNZgLPz+/cwzXqZuK4rhly54Z/FYOxys7wXnJ0mA3mX7FrtJm6DVt+K9nfCztR/se/74j0r5Q5Vs8XINATTBIZxr457/4TXHFF64f3JrH6hzlefovz6SBzN577d65Jb0J3er1WLLGMzZAZ/FGq0mqGMFg+FCERQsvS4o38z0nd4SnjsF+dSlD67jVeTHuKAVOk+2KLDlfk4zNj+66Nx3Hh85oFbXKsTWFOnpDLnm/+pVbFNtus1VHiTwH9Xcu63hVF+ugch0cCND8OhsL25ERemD3yY2MkHsTFBSQnVNWToHEw7/9/ZA1Gjk4XtMoY4EMnx0xY4wwavx24cWfS1kSv0hdoJ/I4tj+kTc6lwNjqudAeQhKfWDqpyHkAEVdSpu0vQJhoF/5gKcKppbQkzIdtNBujIYZqT7+hyfSgn4cbFWbjgTaRFMuYwn9RjcMjAUssiYgAdu2tp9ZZ/LMs8+lwGf/fd+SvlvQK8oqXS6bEmEgxIJu7AO6TJCD3o9FO9FvbWDoM41+xE+Wh4Cj6ToUvz6vKRw3adKmrYI5ZGUHBPgVm5FSO9FPsWta14kdLRt0Wgj+fZ+njQg6p/cHUm/c5XVZe46tpi9oRoFj6OcnHjuruPq6xcmP8CG71MQvr4s0DmzqDAOrtzHmjPLIaEjRyo6T46KRFWRYEDbGjoZTQ6PU1rEzPYVS+NQZjtoHTnVoBMltjpQ9l3q3yuZHlBgZDDMKRZ1RVB2vUalHBsU6xzYgIztvy8JsOpNV4iq4JrJF0cvkhXxZWE1wVoVS43puDzRJ3Xq4o4zg1T8PSbICRlvI12aJrL5It8iUtLl2G7i2bzeVkT4wYIBXL3gGBRpWj5F/7pkosGrVi6WjRG/gaUMP7WD7C+UjWNK1/HcP5W0D11PbN4F9Zfj1lzJhR2A0gxzqiZNcU1CP0QikGHhY53Xo29+asnoCvc85L9pOGVtvWz3IhuC6TA/sdBTXoF65qUbpf7f2DLjR4dHH/pDKBFWZRsD5lvWfHMirm7tTR3JXq/V1NuikjRiY40vszRHIrqn8sB8MJlQuG3TyYd2S2kSLyHnMibX3lI+glsysUF/m/OsjjQIbOdApW78qBRE4DLsYaKARhjeEjuP5MYzM7N1LdJCy+UMdx2JfHeczFYLzlZ2nDYw2NR/onSpOoyxjw4iBBV5yNArCUFaVmeNRYO+MZFBQuDZIPmA7PWuJUGIMeNN0ZlUH4jrcqcDzi+rORSeyz+3he9uRK4aR4NLLycpUHRKnR12RrRajWn3J6URZ8NYNOpc1WoDhskbKgq5aPUa+/kFoHjtNJXJtVlU3W0abFXnuuefT7f9kwOQAxyoQrENlhNEqhwJJgf7I/nRL2RobTy5YsGUB9FzkfkM/CCLayoJ60w/8dAu6BGyz9ptsBJRlPdAV6bQcac4edGvPBDpAlvWwdx6Q1lKSzSxDQRSgz03gGDITdt1ME5r00yqsr1MwA9ZHdAuBr7IqlLNsml6DcpIO/m5F9Qnkk4Nj7aAe6nRXVP02ljR6pQKNwUgag4rwcCI+m+FBgDgcIl2MrhTRLyby6Li/9hvdttfzT1BsAoZ+/333LL686KZOMOANYg7vCFRORhi5kabqb4MOOrLSrn7/HCoXda0KXKzM7L5sLxvdqb5V0wEEEVoD0e20gYIUYUcwHm+8/LWoD5kb5oS70ZemwZ+nTL5t0WjIByr2/ArmrOybgFyBdm3SVjn9RC9wBGTe/Potj5eDD/hsUOphX7supomtKAvE/Lly+LI1gfrN+/ApaQqUKRxdl3YhsEGHvW7bOtv9QG2vRZZ2Goh9cVZkP63dRdf9ehO25/p0jiodsv1Q18dp1umcbYdu7RnnYLBsB79lOqB2uHrh4srMkHTX6n1Z+awM8Vc2CECnOc6u82uL1YuqflCH1y+wfZs6U070TPa8zE/JPtp+K5lbXczZKLutG70ua7PRpPG7ooLRJ6c0QZCjjVHwxiYI1gRhz4J1hQhsgiAIgiDoGf5p8G8QBEEQBMF6TwQ2QRAEQRD0DBHYBEEQBEHQM0RgEwRBEARBzxCBTRAEQRAEPUMENkEQBEEQ9AwR2ARBEARB0DM0fo4ND1/iSZQ8rtk/2bPq6Zc8LKzJ0y556iHv3+Gpw2VPDBVtHlaWewJlEARBEAS9yYgyNgQYvPeCt6/yvhneocJ3PgQUggCGd2LYD4+WFnqUM09LrQtqCKJ4H0a37yMJgiAIgqB3GVHGhrdWK3Nisyj2ke51GRsyPLy7wr4gE+xxBEH2/Rc5bPbHovdndPt+jiAIgiAI1h9GHNjUTTPZIMfC9u23m1LcdsdPOlNYvGyMl+3xWn4dB3qxV9mUkr2GDYjq8C/uC4IgCIJg/aZVYGPfLMpbRXnr7w79wUkuS9Mk0LBZFr9OR+cAG9jsu/f04uJPX5W2A+fQ7z54AgVkPmNDEFX3FuAgCIIgCNYvWq2xYUpIa2TmzT25GD9u4xTssKaG4IWpIv0vCCjYf9HCy4q9pu9WXPrJczrnsEEN01GzDn/7sMXHOVQOu06nCqbIPFxz/PhxRV9fLCgOgiAIgl6hVWBDwELgctqc81NgQNBCwEL25oRjjuwELApaWN+ixcRHH3dGmmayC4z53HjT94vT516Y1thMfc22KVPDuUcLsjVbvmLy4LcgCIIgCHqZVoENwcvCz88vJm82KX0ncCFgOfjAvYu3vHnX4iPnLUhTPILghmNspoePzd785Zm/Fmeccmza9/Y7l6TjRmtqiACJO6jKzjfp5S+LW8CDIAiCoIfo+nbvm2/5UecuJf5W3fKtTI8+BEMPPPhw+o2sj7I7D/zyoeL9sw9L26vQ+eyUVw4WN2+91ZbZ6a2lTzw1+F8QBEEQBL1C48DGT+kc+va3DsnCkMl57fbbDFtDw/NmttxictpO9mb2rENStub8c07vBBwENdde//Xi1JPeOySDQsCUu8XbZoC4Rg6mtH71m0fSA//KsGtv7LSZArIgCIIgCNYvGgU2TOkse/rZRgt7LQQIN3zt5mLBRWd3ju3r6ytOPnF28a3v/DBNWxGAENTkbrvmjic+lmm7TK18Jg1lZQ0Q5b3kE2dnp6F4ICDZIcF37rjS9fifbUEQBEEQrF80CmwIQN7w+qmt176QTeHuqT89uaw45qS56Q4qsj5kZc489fhOwJQLQDRFxScXyCiAIcNyz3/en46nnFqIzHVt9ocAShkZpsJgv32mp7/sxzohZYj4P9beBEEQBMH6R+Pn2ARBEARBEKzrdL14OAiCIAiCYF0jApsgCIIgCHqGCGyCIAiCIOgZIrAJgiAIgqBniMAmCIIgCIKeIQKbIAiCIAh6hKL4/7vk0LB6FJoPAAAAAElFTkSuQmCC;" vertex="1" parent="1">
          <mxGeometry x="727" y="670" width="326" height="332.9" as="geometry" />
        </mxCell>
        <mxCell id="aiHj5P8NERkWDrNoBT0p-85" value="&lt;div style=&quot;font-size: 11px;&quot;&gt;&lt;span style=&quot;background-color: initial;&quot;&gt;讨论对象：intel evo 、小红书、天猫、5 大博主。&amp;nbsp;&lt;/span&gt;&lt;br&gt;&lt;/div&gt;&lt;div style=&quot;font-size: 11px;&quot;&gt;&lt;font style=&quot;font-size: 11px;&quot;&gt;理论：用户心智理论、品牌搜索指数理论、种草营销理论。&lt;/font&gt;&lt;/div&gt;" style="text;html=1;align=center;verticalAlign=middle;whiteSpace=wrap;rounded=0;" vertex="1" parent="1">
          <mxGeometry x="547" y="547" width="240" height="75" as="geometry" />
        </mxCell>
        <mxCell id="aiHj5P8NERkWDrNoBT0p-88" style="edgeStyle=orthogonalEdgeStyle;rounded=0;orthogonalLoop=1;jettySize=auto;html=1;exitX=0.5;exitY=1;exitDx=0;exitDy=0;" edge="1" parent="1" source="aiHj5P8NERkWDrNoBT0p-87" target="aiHj5P8NERkWDrNoBT0p-72">
          <mxGeometry relative="1" as="geometry" />
        </mxCell>
        <mxCell id="aiHj5P8NERkWDrNoBT0p-87" value="intel在小红书的游牧式营销" style="text;html=1;align=center;verticalAlign=middle;whiteSpace=wrap;rounded=0;" vertex="1" parent="1">
          <mxGeometry x="400" y="560" width="110" height="40" as="geometry" />
        </mxCell>
        <mxCell id="aiHj5P8NERkWDrNoBT0p-90" value="&lt;font style=&quot;font-size: 16px;&quot;&gt;直接生成&lt;/font&gt;" style="text;html=1;align=center;verticalAlign=middle;whiteSpace=wrap;rounded=0;" vertex="1" parent="1">
          <mxGeometry x="270" y="780" width="10" height="30" as="geometry" />
        </mxCell>
        <mxCell id="aiHj5P8NERkWDrNoBT0p-92" value="&lt;font style=&quot;font-size: 16px;&quot;&gt;结合数据库&lt;/font&gt;" style="text;html=1;align=center;verticalAlign=middle;whiteSpace=wrap;rounded=0;" vertex="1" parent="1">
          <mxGeometry x="700" y="794.41" width="10" height="30" as="geometry" />
        </mxCell>
      </root>
    </mxGraphModel>
  </diagram>
</mxfile>
